<mxfile host="app.diagrams.net" modified="2024-04-21T18:42:58.496Z" agent="Mozilla/5.0 (Windows NT 10.0; Win64; x64) AppleWebKit/537.36 (KHTML, like Gecko) Chrome/124.0.0.0 Safari/537.36" etag="lQdXKlicL7KA4C3MCl6s" version="24.2.5" type="device" pages="22">
  <diagram name="1" id="1GO5pA2KNHCBCAkFgZQR">
    <mxGraphModel dx="1434" dy="780" grid="1" gridSize="10" guides="1" tooltips="1" connect="1" arrows="1" fold="1" page="1" pageScale="1" pageWidth="827" pageHeight="1169" math="0" shadow="0">
      <root>
        <mxCell id="0" />
        <mxCell id="1" parent="0" />
        <mxCell id="0ZlFR0m7uB6g9EZXlBDp-1" value="Tamanho = 6" style="text;html=1;align=center;verticalAlign=middle;whiteSpace=wrap;rounded=0;fontSize=16;fontStyle=1" vertex="1" parent="1">
          <mxGeometry x="361" y="50" width="106" height="30" as="geometry" />
        </mxCell>
        <mxCell id="yy9yTunvR_vya8VPRvaq-1" value="" style="rounded=0;whiteSpace=wrap;html=1;" vertex="1" parent="1">
          <mxGeometry x="116" y="360" width="100" height="40" as="geometry" />
        </mxCell>
        <mxCell id="yy9yTunvR_vya8VPRvaq-2" value="5" style="text;html=1;align=center;verticalAlign=middle;whiteSpace=wrap;rounded=0;fontSize=16;fontStyle=1" vertex="1" parent="1">
          <mxGeometry x="100" y="365" width="16" height="30" as="geometry" />
        </mxCell>
        <mxCell id="yy9yTunvR_vya8VPRvaq-3" value="" style="rounded=0;whiteSpace=wrap;html=1;" vertex="1" parent="1">
          <mxGeometry x="116" y="320" width="100" height="40" as="geometry" />
        </mxCell>
        <mxCell id="yy9yTunvR_vya8VPRvaq-4" value="4" style="text;html=1;align=center;verticalAlign=middle;whiteSpace=wrap;rounded=0;fontSize=16;fontStyle=1" vertex="1" parent="1">
          <mxGeometry x="100" y="325" width="16" height="30" as="geometry" />
        </mxCell>
        <mxCell id="yy9yTunvR_vya8VPRvaq-5" value="" style="rounded=0;whiteSpace=wrap;html=1;" vertex="1" parent="1">
          <mxGeometry x="116" y="280" width="100" height="40" as="geometry" />
        </mxCell>
        <mxCell id="yy9yTunvR_vya8VPRvaq-6" value="3" style="text;html=1;align=center;verticalAlign=middle;whiteSpace=wrap;rounded=0;fontSize=16;fontStyle=1" vertex="1" parent="1">
          <mxGeometry x="100" y="285" width="16" height="30" as="geometry" />
        </mxCell>
        <mxCell id="yy9yTunvR_vya8VPRvaq-7" value="" style="rounded=0;whiteSpace=wrap;html=1;" vertex="1" parent="1">
          <mxGeometry x="116" y="240" width="100" height="40" as="geometry" />
        </mxCell>
        <mxCell id="yy9yTunvR_vya8VPRvaq-8" value="2" style="text;html=1;align=center;verticalAlign=middle;whiteSpace=wrap;rounded=0;fontSize=16;fontStyle=1" vertex="1" parent="1">
          <mxGeometry x="100" y="245" width="16" height="30" as="geometry" />
        </mxCell>
        <mxCell id="yy9yTunvR_vya8VPRvaq-9" value="" style="rounded=0;whiteSpace=wrap;html=1;" vertex="1" parent="1">
          <mxGeometry x="116" y="200" width="100" height="40" as="geometry" />
        </mxCell>
        <mxCell id="yy9yTunvR_vya8VPRvaq-10" value="1" style="text;html=1;align=center;verticalAlign=middle;whiteSpace=wrap;rounded=0;fontSize=16;fontStyle=1" vertex="1" parent="1">
          <mxGeometry x="100" y="205" width="16" height="30" as="geometry" />
        </mxCell>
        <mxCell id="yy9yTunvR_vya8VPRvaq-11" value="" style="rounded=0;whiteSpace=wrap;html=1;" vertex="1" parent="1">
          <mxGeometry x="116" y="160" width="100" height="40" as="geometry" />
        </mxCell>
        <mxCell id="yy9yTunvR_vya8VPRvaq-12" value="0" style="text;html=1;align=center;verticalAlign=middle;whiteSpace=wrap;rounded=0;fontSize=16;fontStyle=1" vertex="1" parent="1">
          <mxGeometry x="100" y="165" width="16" height="30" as="geometry" />
        </mxCell>
      </root>
    </mxGraphModel>
  </diagram>
  <diagram name="2" id="dPQ6vEO9QEsXmdZB9Ogp">
    <mxGraphModel dx="1434" dy="780" grid="1" gridSize="10" guides="1" tooltips="1" connect="1" arrows="1" fold="1" page="1" pageScale="1" pageWidth="827" pageHeight="1169" math="0" shadow="0">
      <root>
        <mxCell id="Q7QP2QDqnw5ou-Vghmp6-0" />
        <mxCell id="Q7QP2QDqnw5ou-Vghmp6-1" parent="Q7QP2QDqnw5ou-Vghmp6-0" />
        <mxCell id="Q7QP2QDqnw5ou-Vghmp6-2" value="Tamanho = 6" style="text;html=1;align=center;verticalAlign=middle;whiteSpace=wrap;rounded=0;fontSize=16;fontStyle=1" vertex="1" parent="Q7QP2QDqnw5ou-Vghmp6-1">
          <mxGeometry x="361" y="50" width="106" height="30" as="geometry" />
        </mxCell>
        <mxCell id="Q7QP2QDqnw5ou-Vghmp6-3" value="Insere 13" style="rounded=1;whiteSpace=wrap;html=1;fontSize=16;" vertex="1" parent="Q7QP2QDqnw5ou-Vghmp6-1">
          <mxGeometry x="680" y="40" width="110" height="40" as="geometry" />
        </mxCell>
        <mxCell id="Q7QP2QDqnw5ou-Vghmp6-4" value="posicao = 13 % 6 = 1" style="text;html=1;align=center;verticalAlign=middle;whiteSpace=wrap;rounded=0;fontSize=16;fontStyle=0" vertex="1" parent="Q7QP2QDqnw5ou-Vghmp6-1">
          <mxGeometry x="314" y="90" width="199" height="30" as="geometry" />
        </mxCell>
        <mxCell id="Q7QP2QDqnw5ou-Vghmp6-10" value="" style="rounded=0;whiteSpace=wrap;html=1;" vertex="1" parent="Q7QP2QDqnw5ou-Vghmp6-1">
          <mxGeometry x="116" y="360" width="100" height="40" as="geometry" />
        </mxCell>
        <mxCell id="Q7QP2QDqnw5ou-Vghmp6-16" value="5" style="text;html=1;align=center;verticalAlign=middle;whiteSpace=wrap;rounded=0;fontSize=16;fontStyle=1" vertex="1" parent="Q7QP2QDqnw5ou-Vghmp6-1">
          <mxGeometry x="100" y="365" width="16" height="30" as="geometry" />
        </mxCell>
        <mxCell id="p0KFRvbfTzEBr3KZANjP-0" value="" style="rounded=0;whiteSpace=wrap;html=1;" vertex="1" parent="Q7QP2QDqnw5ou-Vghmp6-1">
          <mxGeometry x="116" y="320" width="100" height="40" as="geometry" />
        </mxCell>
        <mxCell id="p0KFRvbfTzEBr3KZANjP-1" value="4" style="text;html=1;align=center;verticalAlign=middle;whiteSpace=wrap;rounded=0;fontSize=16;fontStyle=1" vertex="1" parent="Q7QP2QDqnw5ou-Vghmp6-1">
          <mxGeometry x="100" y="325" width="16" height="30" as="geometry" />
        </mxCell>
        <mxCell id="p0KFRvbfTzEBr3KZANjP-2" value="" style="rounded=0;whiteSpace=wrap;html=1;" vertex="1" parent="Q7QP2QDqnw5ou-Vghmp6-1">
          <mxGeometry x="116" y="280" width="100" height="40" as="geometry" />
        </mxCell>
        <mxCell id="p0KFRvbfTzEBr3KZANjP-3" value="3" style="text;html=1;align=center;verticalAlign=middle;whiteSpace=wrap;rounded=0;fontSize=16;fontStyle=1" vertex="1" parent="Q7QP2QDqnw5ou-Vghmp6-1">
          <mxGeometry x="100" y="285" width="16" height="30" as="geometry" />
        </mxCell>
        <mxCell id="p0KFRvbfTzEBr3KZANjP-4" value="" style="rounded=0;whiteSpace=wrap;html=1;" vertex="1" parent="Q7QP2QDqnw5ou-Vghmp6-1">
          <mxGeometry x="116" y="240" width="100" height="40" as="geometry" />
        </mxCell>
        <mxCell id="p0KFRvbfTzEBr3KZANjP-5" value="2" style="text;html=1;align=center;verticalAlign=middle;whiteSpace=wrap;rounded=0;fontSize=16;fontStyle=1" vertex="1" parent="Q7QP2QDqnw5ou-Vghmp6-1">
          <mxGeometry x="100" y="245" width="16" height="30" as="geometry" />
        </mxCell>
        <mxCell id="p0KFRvbfTzEBr3KZANjP-6" value="13" style="rounded=0;whiteSpace=wrap;html=1;fontStyle=1;fontSize=16;" vertex="1" parent="Q7QP2QDqnw5ou-Vghmp6-1">
          <mxGeometry x="116" y="200" width="100" height="40" as="geometry" />
        </mxCell>
        <mxCell id="p0KFRvbfTzEBr3KZANjP-7" value="1" style="text;html=1;align=center;verticalAlign=middle;whiteSpace=wrap;rounded=0;fontSize=16;fontStyle=1" vertex="1" parent="Q7QP2QDqnw5ou-Vghmp6-1">
          <mxGeometry x="100" y="205" width="16" height="30" as="geometry" />
        </mxCell>
        <mxCell id="p0KFRvbfTzEBr3KZANjP-8" value="" style="rounded=0;whiteSpace=wrap;html=1;" vertex="1" parent="Q7QP2QDqnw5ou-Vghmp6-1">
          <mxGeometry x="116" y="160" width="100" height="40" as="geometry" />
        </mxCell>
        <mxCell id="p0KFRvbfTzEBr3KZANjP-9" value="0" style="text;html=1;align=center;verticalAlign=middle;whiteSpace=wrap;rounded=0;fontSize=16;fontStyle=1" vertex="1" parent="Q7QP2QDqnw5ou-Vghmp6-1">
          <mxGeometry x="100" y="165" width="16" height="30" as="geometry" />
        </mxCell>
      </root>
    </mxGraphModel>
  </diagram>
  <diagram name="3" id="WshVc7_7E8tb0wnywsoV">
    <mxGraphModel dx="1434" dy="780" grid="1" gridSize="10" guides="1" tooltips="1" connect="1" arrows="1" fold="1" page="1" pageScale="1" pageWidth="827" pageHeight="1169" math="0" shadow="0">
      <root>
        <mxCell id="RLB-o2ZdnPrkvNhxNj4X-0" />
        <mxCell id="RLB-o2ZdnPrkvNhxNj4X-1" parent="RLB-o2ZdnPrkvNhxNj4X-0" />
        <mxCell id="RLB-o2ZdnPrkvNhxNj4X-2" value="Tamanho = 6" style="text;html=1;align=center;verticalAlign=middle;whiteSpace=wrap;rounded=0;fontSize=16;fontStyle=1" vertex="1" parent="RLB-o2ZdnPrkvNhxNj4X-1">
          <mxGeometry x="361" y="50" width="106" height="30" as="geometry" />
        </mxCell>
        <mxCell id="RLB-o2ZdnPrkvNhxNj4X-3" value="Insere 11" style="rounded=1;whiteSpace=wrap;html=1;fontSize=16;" vertex="1" parent="RLB-o2ZdnPrkvNhxNj4X-1">
          <mxGeometry x="680" y="40" width="110" height="40" as="geometry" />
        </mxCell>
        <mxCell id="RLB-o2ZdnPrkvNhxNj4X-4" value="posicao = 11 % 6 = 5" style="text;html=1;align=center;verticalAlign=middle;whiteSpace=wrap;rounded=0;fontSize=16;fontStyle=0" vertex="1" parent="RLB-o2ZdnPrkvNhxNj4X-1">
          <mxGeometry x="314" y="90" width="199" height="30" as="geometry" />
        </mxCell>
        <mxCell id="RLB-o2ZdnPrkvNhxNj4X-5" value="&lt;b&gt;&lt;font style=&quot;font-size: 16px;&quot;&gt;11&lt;/font&gt;&lt;/b&gt;" style="rounded=0;whiteSpace=wrap;html=1;" vertex="1" parent="RLB-o2ZdnPrkvNhxNj4X-1">
          <mxGeometry x="116" y="360" width="100" height="40" as="geometry" />
        </mxCell>
        <mxCell id="RLB-o2ZdnPrkvNhxNj4X-6" value="5" style="text;html=1;align=center;verticalAlign=middle;whiteSpace=wrap;rounded=0;fontSize=16;fontStyle=1" vertex="1" parent="RLB-o2ZdnPrkvNhxNj4X-1">
          <mxGeometry x="100" y="365" width="16" height="30" as="geometry" />
        </mxCell>
        <mxCell id="RLB-o2ZdnPrkvNhxNj4X-7" value="" style="rounded=0;whiteSpace=wrap;html=1;" vertex="1" parent="RLB-o2ZdnPrkvNhxNj4X-1">
          <mxGeometry x="116" y="320" width="100" height="40" as="geometry" />
        </mxCell>
        <mxCell id="RLB-o2ZdnPrkvNhxNj4X-8" value="4" style="text;html=1;align=center;verticalAlign=middle;whiteSpace=wrap;rounded=0;fontSize=16;fontStyle=1" vertex="1" parent="RLB-o2ZdnPrkvNhxNj4X-1">
          <mxGeometry x="100" y="325" width="16" height="30" as="geometry" />
        </mxCell>
        <mxCell id="RLB-o2ZdnPrkvNhxNj4X-9" value="" style="rounded=0;whiteSpace=wrap;html=1;" vertex="1" parent="RLB-o2ZdnPrkvNhxNj4X-1">
          <mxGeometry x="116" y="280" width="100" height="40" as="geometry" />
        </mxCell>
        <mxCell id="RLB-o2ZdnPrkvNhxNj4X-10" value="3" style="text;html=1;align=center;verticalAlign=middle;whiteSpace=wrap;rounded=0;fontSize=16;fontStyle=1" vertex="1" parent="RLB-o2ZdnPrkvNhxNj4X-1">
          <mxGeometry x="100" y="285" width="16" height="30" as="geometry" />
        </mxCell>
        <mxCell id="RLB-o2ZdnPrkvNhxNj4X-11" value="" style="rounded=0;whiteSpace=wrap;html=1;" vertex="1" parent="RLB-o2ZdnPrkvNhxNj4X-1">
          <mxGeometry x="116" y="240" width="100" height="40" as="geometry" />
        </mxCell>
        <mxCell id="RLB-o2ZdnPrkvNhxNj4X-12" value="2" style="text;html=1;align=center;verticalAlign=middle;whiteSpace=wrap;rounded=0;fontSize=16;fontStyle=1" vertex="1" parent="RLB-o2ZdnPrkvNhxNj4X-1">
          <mxGeometry x="100" y="245" width="16" height="30" as="geometry" />
        </mxCell>
        <mxCell id="RLB-o2ZdnPrkvNhxNj4X-14" value="1" style="text;html=1;align=center;verticalAlign=middle;whiteSpace=wrap;rounded=0;fontSize=16;fontStyle=1" vertex="1" parent="RLB-o2ZdnPrkvNhxNj4X-1">
          <mxGeometry x="100" y="205" width="16" height="30" as="geometry" />
        </mxCell>
        <mxCell id="RLB-o2ZdnPrkvNhxNj4X-15" value="" style="rounded=0;whiteSpace=wrap;html=1;fontStyle=1;fontSize=16;" vertex="1" parent="RLB-o2ZdnPrkvNhxNj4X-1">
          <mxGeometry x="116" y="160" width="100" height="40" as="geometry" />
        </mxCell>
        <mxCell id="RLB-o2ZdnPrkvNhxNj4X-16" value="0" style="text;html=1;align=center;verticalAlign=middle;whiteSpace=wrap;rounded=0;fontSize=16;fontStyle=1" vertex="1" parent="RLB-o2ZdnPrkvNhxNj4X-1">
          <mxGeometry x="100" y="165" width="16" height="30" as="geometry" />
        </mxCell>
        <mxCell id="g4r0yd5xNgJ8kGmg9nOK-1" value="13" style="rounded=0;whiteSpace=wrap;html=1;fontStyle=1;fontSize=16;" vertex="1" parent="RLB-o2ZdnPrkvNhxNj4X-1">
          <mxGeometry x="116" y="200" width="100" height="40" as="geometry" />
        </mxCell>
      </root>
    </mxGraphModel>
  </diagram>
  <diagram name="4" id="Otw6t6-V2tqqnDF5UOgQ">
    <mxGraphModel dx="1434" dy="780" grid="1" gridSize="10" guides="1" tooltips="1" connect="1" arrows="1" fold="1" page="1" pageScale="1" pageWidth="827" pageHeight="1169" math="0" shadow="0">
      <root>
        <mxCell id="GYjLS0t0-FffMUtZZm4v-0" />
        <mxCell id="GYjLS0t0-FffMUtZZm4v-1" parent="GYjLS0t0-FffMUtZZm4v-0" />
        <mxCell id="GYjLS0t0-FffMUtZZm4v-2" value="Tamanho = 6" style="text;html=1;align=center;verticalAlign=middle;whiteSpace=wrap;rounded=0;fontSize=16;fontStyle=1" vertex="1" parent="GYjLS0t0-FffMUtZZm4v-1">
          <mxGeometry x="361" y="50" width="106" height="30" as="geometry" />
        </mxCell>
        <mxCell id="GYjLS0t0-FffMUtZZm4v-3" value="Insere 21" style="rounded=1;whiteSpace=wrap;html=1;fontSize=16;" vertex="1" parent="GYjLS0t0-FffMUtZZm4v-1">
          <mxGeometry x="680" y="40" width="110" height="40" as="geometry" />
        </mxCell>
        <mxCell id="GYjLS0t0-FffMUtZZm4v-4" value="posicao = 21 % 6 = 3" style="text;html=1;align=center;verticalAlign=middle;whiteSpace=wrap;rounded=0;fontSize=16;fontStyle=0" vertex="1" parent="GYjLS0t0-FffMUtZZm4v-1">
          <mxGeometry x="314" y="90" width="199" height="30" as="geometry" />
        </mxCell>
        <mxCell id="GYjLS0t0-FffMUtZZm4v-5" value="&lt;b&gt;&lt;font style=&quot;font-size: 16px;&quot;&gt;11&lt;/font&gt;&lt;/b&gt;" style="rounded=0;whiteSpace=wrap;html=1;" vertex="1" parent="GYjLS0t0-FffMUtZZm4v-1">
          <mxGeometry x="116" y="360" width="100" height="40" as="geometry" />
        </mxCell>
        <mxCell id="GYjLS0t0-FffMUtZZm4v-6" value="5" style="text;html=1;align=center;verticalAlign=middle;whiteSpace=wrap;rounded=0;fontSize=16;fontStyle=1" vertex="1" parent="GYjLS0t0-FffMUtZZm4v-1">
          <mxGeometry x="100" y="365" width="16" height="30" as="geometry" />
        </mxCell>
        <mxCell id="GYjLS0t0-FffMUtZZm4v-7" value="" style="rounded=0;whiteSpace=wrap;html=1;" vertex="1" parent="GYjLS0t0-FffMUtZZm4v-1">
          <mxGeometry x="116" y="320" width="100" height="40" as="geometry" />
        </mxCell>
        <mxCell id="GYjLS0t0-FffMUtZZm4v-8" value="4" style="text;html=1;align=center;verticalAlign=middle;whiteSpace=wrap;rounded=0;fontSize=16;fontStyle=1" vertex="1" parent="GYjLS0t0-FffMUtZZm4v-1">
          <mxGeometry x="100" y="325" width="16" height="30" as="geometry" />
        </mxCell>
        <mxCell id="GYjLS0t0-FffMUtZZm4v-9" value="21" style="rounded=0;whiteSpace=wrap;html=1;fontStyle=1;fontSize=16;" vertex="1" parent="GYjLS0t0-FffMUtZZm4v-1">
          <mxGeometry x="116" y="280" width="100" height="40" as="geometry" />
        </mxCell>
        <mxCell id="GYjLS0t0-FffMUtZZm4v-10" value="3" style="text;html=1;align=center;verticalAlign=middle;whiteSpace=wrap;rounded=0;fontSize=16;fontStyle=1" vertex="1" parent="GYjLS0t0-FffMUtZZm4v-1">
          <mxGeometry x="100" y="285" width="16" height="30" as="geometry" />
        </mxCell>
        <mxCell id="GYjLS0t0-FffMUtZZm4v-11" value="" style="rounded=0;whiteSpace=wrap;html=1;" vertex="1" parent="GYjLS0t0-FffMUtZZm4v-1">
          <mxGeometry x="116" y="240" width="100" height="40" as="geometry" />
        </mxCell>
        <mxCell id="GYjLS0t0-FffMUtZZm4v-12" value="2" style="text;html=1;align=center;verticalAlign=middle;whiteSpace=wrap;rounded=0;fontSize=16;fontStyle=1" vertex="1" parent="GYjLS0t0-FffMUtZZm4v-1">
          <mxGeometry x="100" y="245" width="16" height="30" as="geometry" />
        </mxCell>
        <mxCell id="GYjLS0t0-FffMUtZZm4v-14" value="1" style="text;html=1;align=center;verticalAlign=middle;whiteSpace=wrap;rounded=0;fontSize=16;fontStyle=1" vertex="1" parent="GYjLS0t0-FffMUtZZm4v-1">
          <mxGeometry x="100" y="205" width="16" height="30" as="geometry" />
        </mxCell>
        <mxCell id="GYjLS0t0-FffMUtZZm4v-15" value="" style="rounded=0;whiteSpace=wrap;html=1;fontStyle=1;fontSize=16;" vertex="1" parent="GYjLS0t0-FffMUtZZm4v-1">
          <mxGeometry x="116" y="160" width="100" height="40" as="geometry" />
        </mxCell>
        <mxCell id="GYjLS0t0-FffMUtZZm4v-16" value="0" style="text;html=1;align=center;verticalAlign=middle;whiteSpace=wrap;rounded=0;fontSize=16;fontStyle=1" vertex="1" parent="GYjLS0t0-FffMUtZZm4v-1">
          <mxGeometry x="100" y="165" width="16" height="30" as="geometry" />
        </mxCell>
        <mxCell id="UvttgbvJs1sAwp8qFlGx-0" value="13" style="rounded=0;whiteSpace=wrap;html=1;fontStyle=1;fontSize=16;" vertex="1" parent="GYjLS0t0-FffMUtZZm4v-1">
          <mxGeometry x="116" y="200" width="100" height="40" as="geometry" />
        </mxCell>
      </root>
    </mxGraphModel>
  </diagram>
  <diagram name="5" id="RPK_yZseBvEcLtDd4MNj">
    <mxGraphModel dx="1434" dy="780" grid="1" gridSize="10" guides="1" tooltips="1" connect="1" arrows="1" fold="1" page="1" pageScale="1" pageWidth="827" pageHeight="1169" math="0" shadow="0">
      <root>
        <mxCell id="x1ox-Q_yvgi2nQL-L3rD-0" />
        <mxCell id="x1ox-Q_yvgi2nQL-L3rD-1" parent="x1ox-Q_yvgi2nQL-L3rD-0" />
        <mxCell id="x1ox-Q_yvgi2nQL-L3rD-2" value="Tamanho = 6" style="text;html=1;align=center;verticalAlign=middle;whiteSpace=wrap;rounded=0;fontSize=16;fontStyle=1" vertex="1" parent="x1ox-Q_yvgi2nQL-L3rD-1">
          <mxGeometry x="361" y="50" width="106" height="30" as="geometry" />
        </mxCell>
        <mxCell id="x1ox-Q_yvgi2nQL-L3rD-3" value="Insere 7" style="rounded=1;whiteSpace=wrap;html=1;fontSize=16;" vertex="1" parent="x1ox-Q_yvgi2nQL-L3rD-1">
          <mxGeometry x="680" y="40" width="110" height="40" as="geometry" />
        </mxCell>
        <mxCell id="x1ox-Q_yvgi2nQL-L3rD-4" value="posicao = 7 % 6 = 1" style="text;html=1;align=center;verticalAlign=middle;whiteSpace=wrap;rounded=0;fontSize=16;fontStyle=0" vertex="1" parent="x1ox-Q_yvgi2nQL-L3rD-1">
          <mxGeometry x="314" y="90" width="199" height="30" as="geometry" />
        </mxCell>
        <mxCell id="x1ox-Q_yvgi2nQL-L3rD-5" value="&lt;b&gt;&lt;font style=&quot;font-size: 16px;&quot;&gt;11&lt;/font&gt;&lt;/b&gt;" style="rounded=0;whiteSpace=wrap;html=1;" vertex="1" parent="x1ox-Q_yvgi2nQL-L3rD-1">
          <mxGeometry x="116" y="360" width="100" height="40" as="geometry" />
        </mxCell>
        <mxCell id="x1ox-Q_yvgi2nQL-L3rD-6" value="5" style="text;html=1;align=center;verticalAlign=middle;whiteSpace=wrap;rounded=0;fontSize=16;fontStyle=1" vertex="1" parent="x1ox-Q_yvgi2nQL-L3rD-1">
          <mxGeometry x="100" y="365" width="16" height="30" as="geometry" />
        </mxCell>
        <mxCell id="x1ox-Q_yvgi2nQL-L3rD-7" value="" style="rounded=0;whiteSpace=wrap;html=1;" vertex="1" parent="x1ox-Q_yvgi2nQL-L3rD-1">
          <mxGeometry x="116" y="320" width="100" height="40" as="geometry" />
        </mxCell>
        <mxCell id="x1ox-Q_yvgi2nQL-L3rD-8" value="4" style="text;html=1;align=center;verticalAlign=middle;whiteSpace=wrap;rounded=0;fontSize=16;fontStyle=1" vertex="1" parent="x1ox-Q_yvgi2nQL-L3rD-1">
          <mxGeometry x="100" y="325" width="16" height="30" as="geometry" />
        </mxCell>
        <mxCell id="x1ox-Q_yvgi2nQL-L3rD-9" value="21" style="rounded=0;whiteSpace=wrap;html=1;fontStyle=1;fontSize=16;" vertex="1" parent="x1ox-Q_yvgi2nQL-L3rD-1">
          <mxGeometry x="116" y="280" width="100" height="40" as="geometry" />
        </mxCell>
        <mxCell id="x1ox-Q_yvgi2nQL-L3rD-10" value="3" style="text;html=1;align=center;verticalAlign=middle;whiteSpace=wrap;rounded=0;fontSize=16;fontStyle=1" vertex="1" parent="x1ox-Q_yvgi2nQL-L3rD-1">
          <mxGeometry x="100" y="285" width="16" height="30" as="geometry" />
        </mxCell>
        <mxCell id="x1ox-Q_yvgi2nQL-L3rD-11" value="" style="rounded=0;whiteSpace=wrap;html=1;" vertex="1" parent="x1ox-Q_yvgi2nQL-L3rD-1">
          <mxGeometry x="116" y="240" width="100" height="40" as="geometry" />
        </mxCell>
        <mxCell id="x1ox-Q_yvgi2nQL-L3rD-12" value="2" style="text;html=1;align=center;verticalAlign=middle;whiteSpace=wrap;rounded=0;fontSize=16;fontStyle=1" vertex="1" parent="x1ox-Q_yvgi2nQL-L3rD-1">
          <mxGeometry x="100" y="245" width="16" height="30" as="geometry" />
        </mxCell>
        <mxCell id="x1ox-Q_yvgi2nQL-L3rD-13" value="1" style="text;html=1;align=center;verticalAlign=middle;whiteSpace=wrap;rounded=0;fontSize=16;fontStyle=1" vertex="1" parent="x1ox-Q_yvgi2nQL-L3rD-1">
          <mxGeometry x="100" y="205" width="16" height="30" as="geometry" />
        </mxCell>
        <mxCell id="x1ox-Q_yvgi2nQL-L3rD-14" value="" style="rounded=0;whiteSpace=wrap;html=1;fontStyle=1;fontSize=16;" vertex="1" parent="x1ox-Q_yvgi2nQL-L3rD-1">
          <mxGeometry x="116" y="160" width="100" height="40" as="geometry" />
        </mxCell>
        <mxCell id="x1ox-Q_yvgi2nQL-L3rD-15" value="0" style="text;html=1;align=center;verticalAlign=middle;whiteSpace=wrap;rounded=0;fontSize=16;fontStyle=1" vertex="1" parent="x1ox-Q_yvgi2nQL-L3rD-1">
          <mxGeometry x="100" y="165" width="16" height="30" as="geometry" />
        </mxCell>
        <mxCell id="x1ox-Q_yvgi2nQL-L3rD-16" value="7" style="rounded=0;whiteSpace=wrap;html=1;fontStyle=1;fontSize=16;" vertex="1" parent="x1ox-Q_yvgi2nQL-L3rD-1">
          <mxGeometry x="116" y="200" width="100" height="40" as="geometry" />
        </mxCell>
        <mxCell id="iwGfj6TiKnx3u4AhAVbP-0" value="13" style="rounded=0;whiteSpace=wrap;html=1;fontStyle=1;fontSize=16;" vertex="1" parent="x1ox-Q_yvgi2nQL-L3rD-1">
          <mxGeometry x="261" y="200" width="100" height="40" as="geometry" />
        </mxCell>
        <mxCell id="iwGfj6TiKnx3u4AhAVbP-1" value="" style="endArrow=classic;html=1;rounded=0;exitX=1;exitY=0.5;exitDx=0;exitDy=0;entryX=0;entryY=0.5;entryDx=0;entryDy=0;" edge="1" parent="x1ox-Q_yvgi2nQL-L3rD-1" source="x1ox-Q_yvgi2nQL-L3rD-16" target="iwGfj6TiKnx3u4AhAVbP-0">
          <mxGeometry width="50" height="50" relative="1" as="geometry">
            <mxPoint x="390" y="430" as="sourcePoint" />
            <mxPoint x="270" y="220" as="targetPoint" />
          </mxGeometry>
        </mxCell>
      </root>
    </mxGraphModel>
  </diagram>
  <diagram name="6" id="NN8vW-bqgLwg9G0m73bH">
    <mxGraphModel dx="1434" dy="780" grid="1" gridSize="10" guides="1" tooltips="1" connect="1" arrows="1" fold="1" page="1" pageScale="1" pageWidth="827" pageHeight="1169" math="0" shadow="0">
      <root>
        <mxCell id="X57iZggDIOiGhjPKLrhJ-0" />
        <mxCell id="X57iZggDIOiGhjPKLrhJ-1" parent="X57iZggDIOiGhjPKLrhJ-0" />
        <mxCell id="X57iZggDIOiGhjPKLrhJ-2" value="Tamanho = 6" style="text;html=1;align=center;verticalAlign=middle;whiteSpace=wrap;rounded=0;fontSize=16;fontStyle=1" vertex="1" parent="X57iZggDIOiGhjPKLrhJ-1">
          <mxGeometry x="361" y="50" width="106" height="30" as="geometry" />
        </mxCell>
        <mxCell id="X57iZggDIOiGhjPKLrhJ-3" value="Insere 60" style="rounded=1;whiteSpace=wrap;html=1;fontSize=16;" vertex="1" parent="X57iZggDIOiGhjPKLrhJ-1">
          <mxGeometry x="680" y="40" width="110" height="40" as="geometry" />
        </mxCell>
        <mxCell id="X57iZggDIOiGhjPKLrhJ-4" value="posicao = 60 % 6 = 0" style="text;html=1;align=center;verticalAlign=middle;whiteSpace=wrap;rounded=0;fontSize=16;fontStyle=0" vertex="1" parent="X57iZggDIOiGhjPKLrhJ-1">
          <mxGeometry x="314" y="90" width="199" height="30" as="geometry" />
        </mxCell>
        <mxCell id="X57iZggDIOiGhjPKLrhJ-5" value="&lt;b&gt;&lt;font style=&quot;font-size: 16px;&quot;&gt;11&lt;/font&gt;&lt;/b&gt;" style="rounded=0;whiteSpace=wrap;html=1;" vertex="1" parent="X57iZggDIOiGhjPKLrhJ-1">
          <mxGeometry x="116" y="360" width="100" height="40" as="geometry" />
        </mxCell>
        <mxCell id="X57iZggDIOiGhjPKLrhJ-6" value="5" style="text;html=1;align=center;verticalAlign=middle;whiteSpace=wrap;rounded=0;fontSize=16;fontStyle=1" vertex="1" parent="X57iZggDIOiGhjPKLrhJ-1">
          <mxGeometry x="100" y="365" width="16" height="30" as="geometry" />
        </mxCell>
        <mxCell id="X57iZggDIOiGhjPKLrhJ-7" value="" style="rounded=0;whiteSpace=wrap;html=1;" vertex="1" parent="X57iZggDIOiGhjPKLrhJ-1">
          <mxGeometry x="116" y="320" width="100" height="40" as="geometry" />
        </mxCell>
        <mxCell id="X57iZggDIOiGhjPKLrhJ-8" value="4" style="text;html=1;align=center;verticalAlign=middle;whiteSpace=wrap;rounded=0;fontSize=16;fontStyle=1" vertex="1" parent="X57iZggDIOiGhjPKLrhJ-1">
          <mxGeometry x="100" y="325" width="16" height="30" as="geometry" />
        </mxCell>
        <mxCell id="X57iZggDIOiGhjPKLrhJ-9" value="21" style="rounded=0;whiteSpace=wrap;html=1;fontStyle=1;fontSize=16;" vertex="1" parent="X57iZggDIOiGhjPKLrhJ-1">
          <mxGeometry x="116" y="280" width="100" height="40" as="geometry" />
        </mxCell>
        <mxCell id="X57iZggDIOiGhjPKLrhJ-10" value="3" style="text;html=1;align=center;verticalAlign=middle;whiteSpace=wrap;rounded=0;fontSize=16;fontStyle=1" vertex="1" parent="X57iZggDIOiGhjPKLrhJ-1">
          <mxGeometry x="100" y="285" width="16" height="30" as="geometry" />
        </mxCell>
        <mxCell id="X57iZggDIOiGhjPKLrhJ-11" value="" style="rounded=0;whiteSpace=wrap;html=1;" vertex="1" parent="X57iZggDIOiGhjPKLrhJ-1">
          <mxGeometry x="116" y="240" width="100" height="40" as="geometry" />
        </mxCell>
        <mxCell id="X57iZggDIOiGhjPKLrhJ-12" value="2" style="text;html=1;align=center;verticalAlign=middle;whiteSpace=wrap;rounded=0;fontSize=16;fontStyle=1" vertex="1" parent="X57iZggDIOiGhjPKLrhJ-1">
          <mxGeometry x="100" y="245" width="16" height="30" as="geometry" />
        </mxCell>
        <mxCell id="X57iZggDIOiGhjPKLrhJ-13" value="1" style="text;html=1;align=center;verticalAlign=middle;whiteSpace=wrap;rounded=0;fontSize=16;fontStyle=1" vertex="1" parent="X57iZggDIOiGhjPKLrhJ-1">
          <mxGeometry x="100" y="205" width="16" height="30" as="geometry" />
        </mxCell>
        <mxCell id="X57iZggDIOiGhjPKLrhJ-14" value="60" style="rounded=0;whiteSpace=wrap;html=1;fontStyle=1;fontSize=16;" vertex="1" parent="X57iZggDIOiGhjPKLrhJ-1">
          <mxGeometry x="116" y="160" width="100" height="40" as="geometry" />
        </mxCell>
        <mxCell id="X57iZggDIOiGhjPKLrhJ-15" value="0" style="text;html=1;align=center;verticalAlign=middle;whiteSpace=wrap;rounded=0;fontSize=16;fontStyle=1" vertex="1" parent="X57iZggDIOiGhjPKLrhJ-1">
          <mxGeometry x="100" y="165" width="16" height="30" as="geometry" />
        </mxCell>
        <mxCell id="X57iZggDIOiGhjPKLrhJ-16" value="7" style="rounded=0;whiteSpace=wrap;html=1;fontStyle=1;fontSize=16;" vertex="1" parent="X57iZggDIOiGhjPKLrhJ-1">
          <mxGeometry x="116" y="200" width="100" height="40" as="geometry" />
        </mxCell>
        <mxCell id="X57iZggDIOiGhjPKLrhJ-17" value="13" style="rounded=0;whiteSpace=wrap;html=1;fontStyle=1;fontSize=16;" vertex="1" parent="X57iZggDIOiGhjPKLrhJ-1">
          <mxGeometry x="261" y="200" width="100" height="40" as="geometry" />
        </mxCell>
        <mxCell id="X57iZggDIOiGhjPKLrhJ-18" value="" style="endArrow=classic;html=1;rounded=0;exitX=1;exitY=0.5;exitDx=0;exitDy=0;entryX=0;entryY=0.5;entryDx=0;entryDy=0;" edge="1" parent="X57iZggDIOiGhjPKLrhJ-1" source="X57iZggDIOiGhjPKLrhJ-16" target="X57iZggDIOiGhjPKLrhJ-17">
          <mxGeometry width="50" height="50" relative="1" as="geometry">
            <mxPoint x="390" y="430" as="sourcePoint" />
            <mxPoint x="270" y="220" as="targetPoint" />
          </mxGeometry>
        </mxCell>
      </root>
    </mxGraphModel>
  </diagram>
  <diagram name="7" id="2qHKBR5g20sNLIP3pE7M">
    <mxGraphModel dx="1434" dy="780" grid="1" gridSize="10" guides="1" tooltips="1" connect="1" arrows="1" fold="1" page="1" pageScale="1" pageWidth="827" pageHeight="1169" math="0" shadow="0">
      <root>
        <mxCell id="hKEYAriQEDfuDjNmw2W6-0" />
        <mxCell id="hKEYAriQEDfuDjNmw2W6-1" parent="hKEYAriQEDfuDjNmw2W6-0" />
        <mxCell id="hKEYAriQEDfuDjNmw2W6-2" value="Tamanho = 6" style="text;html=1;align=center;verticalAlign=middle;whiteSpace=wrap;rounded=0;fontSize=16;fontStyle=1" vertex="1" parent="hKEYAriQEDfuDjNmw2W6-1">
          <mxGeometry x="361" y="50" width="106" height="30" as="geometry" />
        </mxCell>
        <mxCell id="hKEYAriQEDfuDjNmw2W6-3" value="Insere 4" style="rounded=1;whiteSpace=wrap;html=1;fontSize=16;" vertex="1" parent="hKEYAriQEDfuDjNmw2W6-1">
          <mxGeometry x="680" y="40" width="110" height="40" as="geometry" />
        </mxCell>
        <mxCell id="hKEYAriQEDfuDjNmw2W6-4" value="posicao = 4 % 6 = 4" style="text;html=1;align=center;verticalAlign=middle;whiteSpace=wrap;rounded=0;fontSize=16;fontStyle=0" vertex="1" parent="hKEYAriQEDfuDjNmw2W6-1">
          <mxGeometry x="314" y="90" width="199" height="30" as="geometry" />
        </mxCell>
        <mxCell id="hKEYAriQEDfuDjNmw2W6-5" value="&lt;b&gt;&lt;font style=&quot;font-size: 16px;&quot;&gt;11&lt;/font&gt;&lt;/b&gt;" style="rounded=0;whiteSpace=wrap;html=1;" vertex="1" parent="hKEYAriQEDfuDjNmw2W6-1">
          <mxGeometry x="116" y="360" width="100" height="40" as="geometry" />
        </mxCell>
        <mxCell id="hKEYAriQEDfuDjNmw2W6-6" value="5" style="text;html=1;align=center;verticalAlign=middle;whiteSpace=wrap;rounded=0;fontSize=16;fontStyle=1" vertex="1" parent="hKEYAriQEDfuDjNmw2W6-1">
          <mxGeometry x="100" y="365" width="16" height="30" as="geometry" />
        </mxCell>
        <mxCell id="hKEYAriQEDfuDjNmw2W6-7" value="4" style="rounded=0;whiteSpace=wrap;html=1;fontStyle=1;fontSize=16;" vertex="1" parent="hKEYAriQEDfuDjNmw2W6-1">
          <mxGeometry x="116" y="320" width="100" height="40" as="geometry" />
        </mxCell>
        <mxCell id="hKEYAriQEDfuDjNmw2W6-8" value="4" style="text;html=1;align=center;verticalAlign=middle;whiteSpace=wrap;rounded=0;fontSize=16;fontStyle=1" vertex="1" parent="hKEYAriQEDfuDjNmw2W6-1">
          <mxGeometry x="100" y="325" width="16" height="30" as="geometry" />
        </mxCell>
        <mxCell id="hKEYAriQEDfuDjNmw2W6-9" value="21" style="rounded=0;whiteSpace=wrap;html=1;fontStyle=1;fontSize=16;" vertex="1" parent="hKEYAriQEDfuDjNmw2W6-1">
          <mxGeometry x="116" y="280" width="100" height="40" as="geometry" />
        </mxCell>
        <mxCell id="hKEYAriQEDfuDjNmw2W6-10" value="3" style="text;html=1;align=center;verticalAlign=middle;whiteSpace=wrap;rounded=0;fontSize=16;fontStyle=1" vertex="1" parent="hKEYAriQEDfuDjNmw2W6-1">
          <mxGeometry x="100" y="285" width="16" height="30" as="geometry" />
        </mxCell>
        <mxCell id="hKEYAriQEDfuDjNmw2W6-11" value="" style="rounded=0;whiteSpace=wrap;html=1;" vertex="1" parent="hKEYAriQEDfuDjNmw2W6-1">
          <mxGeometry x="116" y="240" width="100" height="40" as="geometry" />
        </mxCell>
        <mxCell id="hKEYAriQEDfuDjNmw2W6-12" value="2" style="text;html=1;align=center;verticalAlign=middle;whiteSpace=wrap;rounded=0;fontSize=16;fontStyle=1" vertex="1" parent="hKEYAriQEDfuDjNmw2W6-1">
          <mxGeometry x="100" y="245" width="16" height="30" as="geometry" />
        </mxCell>
        <mxCell id="hKEYAriQEDfuDjNmw2W6-13" value="1" style="text;html=1;align=center;verticalAlign=middle;whiteSpace=wrap;rounded=0;fontSize=16;fontStyle=1" vertex="1" parent="hKEYAriQEDfuDjNmw2W6-1">
          <mxGeometry x="100" y="205" width="16" height="30" as="geometry" />
        </mxCell>
        <mxCell id="hKEYAriQEDfuDjNmw2W6-14" value="60" style="rounded=0;whiteSpace=wrap;html=1;fontStyle=1;fontSize=16;" vertex="1" parent="hKEYAriQEDfuDjNmw2W6-1">
          <mxGeometry x="116" y="160" width="100" height="40" as="geometry" />
        </mxCell>
        <mxCell id="hKEYAriQEDfuDjNmw2W6-15" value="0" style="text;html=1;align=center;verticalAlign=middle;whiteSpace=wrap;rounded=0;fontSize=16;fontStyle=1" vertex="1" parent="hKEYAriQEDfuDjNmw2W6-1">
          <mxGeometry x="100" y="165" width="16" height="30" as="geometry" />
        </mxCell>
        <mxCell id="hKEYAriQEDfuDjNmw2W6-16" value="7" style="rounded=0;whiteSpace=wrap;html=1;fontStyle=1;fontSize=16;" vertex="1" parent="hKEYAriQEDfuDjNmw2W6-1">
          <mxGeometry x="116" y="200" width="100" height="40" as="geometry" />
        </mxCell>
        <mxCell id="hKEYAriQEDfuDjNmw2W6-17" value="13" style="rounded=0;whiteSpace=wrap;html=1;fontStyle=1;fontSize=16;" vertex="1" parent="hKEYAriQEDfuDjNmw2W6-1">
          <mxGeometry x="261" y="200" width="100" height="40" as="geometry" />
        </mxCell>
        <mxCell id="hKEYAriQEDfuDjNmw2W6-18" value="" style="endArrow=classic;html=1;rounded=0;exitX=1;exitY=0.5;exitDx=0;exitDy=0;entryX=0;entryY=0.5;entryDx=0;entryDy=0;" edge="1" parent="hKEYAriQEDfuDjNmw2W6-1" source="hKEYAriQEDfuDjNmw2W6-16" target="hKEYAriQEDfuDjNmw2W6-17">
          <mxGeometry width="50" height="50" relative="1" as="geometry">
            <mxPoint x="390" y="430" as="sourcePoint" />
            <mxPoint x="270" y="220" as="targetPoint" />
          </mxGeometry>
        </mxCell>
      </root>
    </mxGraphModel>
  </diagram>
  <diagram name="8" id="kCrPGJYhHzQ3XkcoXCRy">
    <mxGraphModel dx="1434" dy="780" grid="1" gridSize="10" guides="1" tooltips="1" connect="1" arrows="1" fold="1" page="1" pageScale="1" pageWidth="827" pageHeight="1169" math="0" shadow="0">
      <root>
        <mxCell id="e2NnfmyhUVvQR1nOEBtY-0" />
        <mxCell id="e2NnfmyhUVvQR1nOEBtY-1" parent="e2NnfmyhUVvQR1nOEBtY-0" />
        <mxCell id="e2NnfmyhUVvQR1nOEBtY-2" value="Tamanho = 6" style="text;html=1;align=center;verticalAlign=middle;whiteSpace=wrap;rounded=0;fontSize=16;fontStyle=1" vertex="1" parent="e2NnfmyhUVvQR1nOEBtY-1">
          <mxGeometry x="361" y="50" width="106" height="30" as="geometry" />
        </mxCell>
        <mxCell id="e2NnfmyhUVvQR1nOEBtY-3" value="Insere 49" style="rounded=1;whiteSpace=wrap;html=1;fontSize=16;" vertex="1" parent="e2NnfmyhUVvQR1nOEBtY-1">
          <mxGeometry x="680" y="40" width="110" height="40" as="geometry" />
        </mxCell>
        <mxCell id="e2NnfmyhUVvQR1nOEBtY-4" value="posicao = 49 % 6 = 1" style="text;html=1;align=center;verticalAlign=middle;whiteSpace=wrap;rounded=0;fontSize=16;fontStyle=0" vertex="1" parent="e2NnfmyhUVvQR1nOEBtY-1">
          <mxGeometry x="314" y="90" width="199" height="30" as="geometry" />
        </mxCell>
        <mxCell id="e2NnfmyhUVvQR1nOEBtY-5" value="&lt;b&gt;&lt;font style=&quot;font-size: 16px;&quot;&gt;11&lt;/font&gt;&lt;/b&gt;" style="rounded=0;whiteSpace=wrap;html=1;" vertex="1" parent="e2NnfmyhUVvQR1nOEBtY-1">
          <mxGeometry x="116" y="360" width="100" height="40" as="geometry" />
        </mxCell>
        <mxCell id="e2NnfmyhUVvQR1nOEBtY-6" value="5" style="text;html=1;align=center;verticalAlign=middle;whiteSpace=wrap;rounded=0;fontSize=16;fontStyle=1" vertex="1" parent="e2NnfmyhUVvQR1nOEBtY-1">
          <mxGeometry x="100" y="365" width="16" height="30" as="geometry" />
        </mxCell>
        <mxCell id="e2NnfmyhUVvQR1nOEBtY-7" value="4" style="rounded=0;whiteSpace=wrap;html=1;fontStyle=1;fontSize=16;" vertex="1" parent="e2NnfmyhUVvQR1nOEBtY-1">
          <mxGeometry x="116" y="320" width="100" height="40" as="geometry" />
        </mxCell>
        <mxCell id="e2NnfmyhUVvQR1nOEBtY-8" value="4" style="text;html=1;align=center;verticalAlign=middle;whiteSpace=wrap;rounded=0;fontSize=16;fontStyle=1" vertex="1" parent="e2NnfmyhUVvQR1nOEBtY-1">
          <mxGeometry x="100" y="325" width="16" height="30" as="geometry" />
        </mxCell>
        <mxCell id="e2NnfmyhUVvQR1nOEBtY-9" value="21" style="rounded=0;whiteSpace=wrap;html=1;fontStyle=1;fontSize=16;" vertex="1" parent="e2NnfmyhUVvQR1nOEBtY-1">
          <mxGeometry x="116" y="280" width="100" height="40" as="geometry" />
        </mxCell>
        <mxCell id="e2NnfmyhUVvQR1nOEBtY-10" value="3" style="text;html=1;align=center;verticalAlign=middle;whiteSpace=wrap;rounded=0;fontSize=16;fontStyle=1" vertex="1" parent="e2NnfmyhUVvQR1nOEBtY-1">
          <mxGeometry x="100" y="285" width="16" height="30" as="geometry" />
        </mxCell>
        <mxCell id="e2NnfmyhUVvQR1nOEBtY-11" value="" style="rounded=0;whiteSpace=wrap;html=1;" vertex="1" parent="e2NnfmyhUVvQR1nOEBtY-1">
          <mxGeometry x="116" y="240" width="100" height="40" as="geometry" />
        </mxCell>
        <mxCell id="e2NnfmyhUVvQR1nOEBtY-12" value="2" style="text;html=1;align=center;verticalAlign=middle;whiteSpace=wrap;rounded=0;fontSize=16;fontStyle=1" vertex="1" parent="e2NnfmyhUVvQR1nOEBtY-1">
          <mxGeometry x="100" y="245" width="16" height="30" as="geometry" />
        </mxCell>
        <mxCell id="e2NnfmyhUVvQR1nOEBtY-13" value="1" style="text;html=1;align=center;verticalAlign=middle;whiteSpace=wrap;rounded=0;fontSize=16;fontStyle=1" vertex="1" parent="e2NnfmyhUVvQR1nOEBtY-1">
          <mxGeometry x="100" y="205" width="16" height="30" as="geometry" />
        </mxCell>
        <mxCell id="e2NnfmyhUVvQR1nOEBtY-14" value="60" style="rounded=0;whiteSpace=wrap;html=1;fontStyle=1;fontSize=16;" vertex="1" parent="e2NnfmyhUVvQR1nOEBtY-1">
          <mxGeometry x="116" y="160" width="100" height="40" as="geometry" />
        </mxCell>
        <mxCell id="e2NnfmyhUVvQR1nOEBtY-15" value="0" style="text;html=1;align=center;verticalAlign=middle;whiteSpace=wrap;rounded=0;fontSize=16;fontStyle=1" vertex="1" parent="e2NnfmyhUVvQR1nOEBtY-1">
          <mxGeometry x="100" y="165" width="16" height="30" as="geometry" />
        </mxCell>
        <mxCell id="e2NnfmyhUVvQR1nOEBtY-16" value="49" style="rounded=0;whiteSpace=wrap;html=1;fontStyle=1;fontSize=16;" vertex="1" parent="e2NnfmyhUVvQR1nOEBtY-1">
          <mxGeometry x="116" y="200" width="100" height="40" as="geometry" />
        </mxCell>
        <mxCell id="e2NnfmyhUVvQR1nOEBtY-18" value="" style="endArrow=classic;html=1;rounded=0;exitX=1;exitY=0.5;exitDx=0;exitDy=0;entryX=0;entryY=0.5;entryDx=0;entryDy=0;" edge="1" parent="e2NnfmyhUVvQR1nOEBtY-1" source="e2NnfmyhUVvQR1nOEBtY-16">
          <mxGeometry width="50" height="50" relative="1" as="geometry">
            <mxPoint x="390" y="430" as="sourcePoint" />
            <mxPoint x="261" y="220" as="targetPoint" />
          </mxGeometry>
        </mxCell>
        <mxCell id="dEemotG8ZR6_zYSwTZG_-0" value="7" style="rounded=0;whiteSpace=wrap;html=1;fontStyle=1;fontSize=16;" vertex="1" parent="e2NnfmyhUVvQR1nOEBtY-1">
          <mxGeometry x="260" y="200" width="100" height="40" as="geometry" />
        </mxCell>
        <mxCell id="dEemotG8ZR6_zYSwTZG_-1" value="13" style="rounded=0;whiteSpace=wrap;html=1;fontStyle=1;fontSize=16;" vertex="1" parent="e2NnfmyhUVvQR1nOEBtY-1">
          <mxGeometry x="405" y="200" width="100" height="40" as="geometry" />
        </mxCell>
        <mxCell id="dEemotG8ZR6_zYSwTZG_-2" value="" style="endArrow=classic;html=1;rounded=0;exitX=1;exitY=0.5;exitDx=0;exitDy=0;entryX=0;entryY=0.5;entryDx=0;entryDy=0;" edge="1" parent="e2NnfmyhUVvQR1nOEBtY-1" source="dEemotG8ZR6_zYSwTZG_-0" target="dEemotG8ZR6_zYSwTZG_-1">
          <mxGeometry width="50" height="50" relative="1" as="geometry">
            <mxPoint x="534" y="430" as="sourcePoint" />
            <mxPoint x="414" y="220" as="targetPoint" />
          </mxGeometry>
        </mxCell>
      </root>
    </mxGraphModel>
  </diagram>
  <diagram name="9" id="PsWIUnDYmKpgBK3LTOmD">
    <mxGraphModel dx="1434" dy="780" grid="1" gridSize="10" guides="1" tooltips="1" connect="1" arrows="1" fold="1" page="1" pageScale="1" pageWidth="827" pageHeight="1169" math="0" shadow="0">
      <root>
        <mxCell id="lBL2Y9kKNWVFnUPyaniQ-0" />
        <mxCell id="lBL2Y9kKNWVFnUPyaniQ-1" parent="lBL2Y9kKNWVFnUPyaniQ-0" />
        <mxCell id="lBL2Y9kKNWVFnUPyaniQ-2" value="Tamanho = 6" style="text;html=1;align=center;verticalAlign=middle;whiteSpace=wrap;rounded=0;fontSize=16;fontStyle=1" vertex="1" parent="lBL2Y9kKNWVFnUPyaniQ-1">
          <mxGeometry x="361" y="50" width="106" height="30" as="geometry" />
        </mxCell>
        <mxCell id="lBL2Y9kKNWVFnUPyaniQ-3" value="Insere 33" style="rounded=1;whiteSpace=wrap;html=1;fontSize=16;" vertex="1" parent="lBL2Y9kKNWVFnUPyaniQ-1">
          <mxGeometry x="680" y="40" width="110" height="40" as="geometry" />
        </mxCell>
        <mxCell id="lBL2Y9kKNWVFnUPyaniQ-4" value="posicao = 33 % 6 = 3" style="text;html=1;align=center;verticalAlign=middle;whiteSpace=wrap;rounded=0;fontSize=16;fontStyle=0" vertex="1" parent="lBL2Y9kKNWVFnUPyaniQ-1">
          <mxGeometry x="314" y="90" width="199" height="30" as="geometry" />
        </mxCell>
        <mxCell id="lBL2Y9kKNWVFnUPyaniQ-5" value="&lt;b&gt;&lt;font style=&quot;font-size: 16px;&quot;&gt;11&lt;/font&gt;&lt;/b&gt;" style="rounded=0;whiteSpace=wrap;html=1;" vertex="1" parent="lBL2Y9kKNWVFnUPyaniQ-1">
          <mxGeometry x="116" y="360" width="100" height="40" as="geometry" />
        </mxCell>
        <mxCell id="lBL2Y9kKNWVFnUPyaniQ-6" value="5" style="text;html=1;align=center;verticalAlign=middle;whiteSpace=wrap;rounded=0;fontSize=16;fontStyle=1" vertex="1" parent="lBL2Y9kKNWVFnUPyaniQ-1">
          <mxGeometry x="100" y="365" width="16" height="30" as="geometry" />
        </mxCell>
        <mxCell id="lBL2Y9kKNWVFnUPyaniQ-7" value="4" style="rounded=0;whiteSpace=wrap;html=1;fontStyle=1;fontSize=16;" vertex="1" parent="lBL2Y9kKNWVFnUPyaniQ-1">
          <mxGeometry x="116" y="320" width="100" height="40" as="geometry" />
        </mxCell>
        <mxCell id="lBL2Y9kKNWVFnUPyaniQ-8" value="4" style="text;html=1;align=center;verticalAlign=middle;whiteSpace=wrap;rounded=0;fontSize=16;fontStyle=1" vertex="1" parent="lBL2Y9kKNWVFnUPyaniQ-1">
          <mxGeometry x="100" y="325" width="16" height="30" as="geometry" />
        </mxCell>
        <mxCell id="lBL2Y9kKNWVFnUPyaniQ-9" value="33" style="rounded=0;whiteSpace=wrap;html=1;fontStyle=1;fontSize=16;" vertex="1" parent="lBL2Y9kKNWVFnUPyaniQ-1">
          <mxGeometry x="116" y="280" width="100" height="40" as="geometry" />
        </mxCell>
        <mxCell id="lBL2Y9kKNWVFnUPyaniQ-10" value="3" style="text;html=1;align=center;verticalAlign=middle;whiteSpace=wrap;rounded=0;fontSize=16;fontStyle=1" vertex="1" parent="lBL2Y9kKNWVFnUPyaniQ-1">
          <mxGeometry x="100" y="285" width="16" height="30" as="geometry" />
        </mxCell>
        <mxCell id="lBL2Y9kKNWVFnUPyaniQ-11" value="" style="rounded=0;whiteSpace=wrap;html=1;" vertex="1" parent="lBL2Y9kKNWVFnUPyaniQ-1">
          <mxGeometry x="116" y="240" width="100" height="40" as="geometry" />
        </mxCell>
        <mxCell id="lBL2Y9kKNWVFnUPyaniQ-12" value="2" style="text;html=1;align=center;verticalAlign=middle;whiteSpace=wrap;rounded=0;fontSize=16;fontStyle=1" vertex="1" parent="lBL2Y9kKNWVFnUPyaniQ-1">
          <mxGeometry x="100" y="245" width="16" height="30" as="geometry" />
        </mxCell>
        <mxCell id="lBL2Y9kKNWVFnUPyaniQ-13" value="1" style="text;html=1;align=center;verticalAlign=middle;whiteSpace=wrap;rounded=0;fontSize=16;fontStyle=1" vertex="1" parent="lBL2Y9kKNWVFnUPyaniQ-1">
          <mxGeometry x="100" y="205" width="16" height="30" as="geometry" />
        </mxCell>
        <mxCell id="lBL2Y9kKNWVFnUPyaniQ-14" value="60" style="rounded=0;whiteSpace=wrap;html=1;fontStyle=1;fontSize=16;" vertex="1" parent="lBL2Y9kKNWVFnUPyaniQ-1">
          <mxGeometry x="116" y="160" width="100" height="40" as="geometry" />
        </mxCell>
        <mxCell id="lBL2Y9kKNWVFnUPyaniQ-15" value="0" style="text;html=1;align=center;verticalAlign=middle;whiteSpace=wrap;rounded=0;fontSize=16;fontStyle=1" vertex="1" parent="lBL2Y9kKNWVFnUPyaniQ-1">
          <mxGeometry x="100" y="165" width="16" height="30" as="geometry" />
        </mxCell>
        <mxCell id="lBL2Y9kKNWVFnUPyaniQ-16" value="49" style="rounded=0;whiteSpace=wrap;html=1;fontStyle=1;fontSize=16;" vertex="1" parent="lBL2Y9kKNWVFnUPyaniQ-1">
          <mxGeometry x="116" y="200" width="100" height="40" as="geometry" />
        </mxCell>
        <mxCell id="lBL2Y9kKNWVFnUPyaniQ-17" value="" style="endArrow=classic;html=1;rounded=0;exitX=1;exitY=0.5;exitDx=0;exitDy=0;entryX=0;entryY=0.5;entryDx=0;entryDy=0;" edge="1" parent="lBL2Y9kKNWVFnUPyaniQ-1" source="lBL2Y9kKNWVFnUPyaniQ-16">
          <mxGeometry width="50" height="50" relative="1" as="geometry">
            <mxPoint x="390" y="430" as="sourcePoint" />
            <mxPoint x="261" y="220" as="targetPoint" />
          </mxGeometry>
        </mxCell>
        <mxCell id="lBL2Y9kKNWVFnUPyaniQ-18" value="7" style="rounded=0;whiteSpace=wrap;html=1;fontStyle=1;fontSize=16;" vertex="1" parent="lBL2Y9kKNWVFnUPyaniQ-1">
          <mxGeometry x="260" y="200" width="100" height="40" as="geometry" />
        </mxCell>
        <mxCell id="lBL2Y9kKNWVFnUPyaniQ-19" value="13" style="rounded=0;whiteSpace=wrap;html=1;fontStyle=1;fontSize=16;" vertex="1" parent="lBL2Y9kKNWVFnUPyaniQ-1">
          <mxGeometry x="405" y="200" width="100" height="40" as="geometry" />
        </mxCell>
        <mxCell id="lBL2Y9kKNWVFnUPyaniQ-20" value="" style="endArrow=classic;html=1;rounded=0;exitX=1;exitY=0.5;exitDx=0;exitDy=0;entryX=0;entryY=0.5;entryDx=0;entryDy=0;" edge="1" parent="lBL2Y9kKNWVFnUPyaniQ-1" source="lBL2Y9kKNWVFnUPyaniQ-18" target="lBL2Y9kKNWVFnUPyaniQ-19">
          <mxGeometry width="50" height="50" relative="1" as="geometry">
            <mxPoint x="534" y="430" as="sourcePoint" />
            <mxPoint x="414" y="220" as="targetPoint" />
          </mxGeometry>
        </mxCell>
        <mxCell id="y9Z5ME1rPyOpUst7nwUt-0" value="" style="endArrow=classic;html=1;rounded=0;exitX=1;exitY=0.5;exitDx=0;exitDy=0;entryX=0;entryY=0.5;entryDx=0;entryDy=0;" edge="1" parent="lBL2Y9kKNWVFnUPyaniQ-1">
          <mxGeometry width="50" height="50" relative="1" as="geometry">
            <mxPoint x="216" y="299.5" as="sourcePoint" />
            <mxPoint x="261" y="299.5" as="targetPoint" />
          </mxGeometry>
        </mxCell>
        <mxCell id="y9Z5ME1rPyOpUst7nwUt-1" value="21" style="rounded=0;whiteSpace=wrap;html=1;fontStyle=1;fontSize=16;" vertex="1" parent="lBL2Y9kKNWVFnUPyaniQ-1">
          <mxGeometry x="260" y="280" width="100" height="40" as="geometry" />
        </mxCell>
      </root>
    </mxGraphModel>
  </diagram>
  <diagram name="10" id="Hl8ebjve_gVXfushJ2iO">
    <mxGraphModel dx="1434" dy="780" grid="1" gridSize="10" guides="1" tooltips="1" connect="1" arrows="1" fold="1" page="1" pageScale="1" pageWidth="827" pageHeight="1169" math="0" shadow="0">
      <root>
        <mxCell id="unkypP8U_ucPKdIfHoWb-0" />
        <mxCell id="unkypP8U_ucPKdIfHoWb-1" parent="unkypP8U_ucPKdIfHoWb-0" />
        <mxCell id="unkypP8U_ucPKdIfHoWb-2" value="Tamanho = 6" style="text;html=1;align=center;verticalAlign=middle;whiteSpace=wrap;rounded=0;fontSize=16;fontStyle=1" vertex="1" parent="unkypP8U_ucPKdIfHoWb-1">
          <mxGeometry x="361" y="50" width="106" height="30" as="geometry" />
        </mxCell>
        <mxCell id="unkypP8U_ucPKdIfHoWb-3" value="Insere 40" style="rounded=1;whiteSpace=wrap;html=1;fontSize=16;" vertex="1" parent="unkypP8U_ucPKdIfHoWb-1">
          <mxGeometry x="680" y="40" width="110" height="40" as="geometry" />
        </mxCell>
        <mxCell id="unkypP8U_ucPKdIfHoWb-4" value="posicao = 40 % 6 = 4" style="text;html=1;align=center;verticalAlign=middle;whiteSpace=wrap;rounded=0;fontSize=16;fontStyle=0" vertex="1" parent="unkypP8U_ucPKdIfHoWb-1">
          <mxGeometry x="314" y="90" width="199" height="30" as="geometry" />
        </mxCell>
        <mxCell id="unkypP8U_ucPKdIfHoWb-5" value="&lt;b&gt;&lt;font style=&quot;font-size: 16px;&quot;&gt;11&lt;/font&gt;&lt;/b&gt;" style="rounded=0;whiteSpace=wrap;html=1;" vertex="1" parent="unkypP8U_ucPKdIfHoWb-1">
          <mxGeometry x="116" y="360" width="100" height="40" as="geometry" />
        </mxCell>
        <mxCell id="unkypP8U_ucPKdIfHoWb-6" value="5" style="text;html=1;align=center;verticalAlign=middle;whiteSpace=wrap;rounded=0;fontSize=16;fontStyle=1" vertex="1" parent="unkypP8U_ucPKdIfHoWb-1">
          <mxGeometry x="100" y="365" width="16" height="30" as="geometry" />
        </mxCell>
        <mxCell id="unkypP8U_ucPKdIfHoWb-7" value="40" style="rounded=0;whiteSpace=wrap;html=1;fontStyle=1;fontSize=16;" vertex="1" parent="unkypP8U_ucPKdIfHoWb-1">
          <mxGeometry x="116" y="320" width="100" height="40" as="geometry" />
        </mxCell>
        <mxCell id="unkypP8U_ucPKdIfHoWb-8" value="4" style="text;html=1;align=center;verticalAlign=middle;whiteSpace=wrap;rounded=0;fontSize=16;fontStyle=1" vertex="1" parent="unkypP8U_ucPKdIfHoWb-1">
          <mxGeometry x="100" y="325" width="16" height="30" as="geometry" />
        </mxCell>
        <mxCell id="unkypP8U_ucPKdIfHoWb-9" value="33" style="rounded=0;whiteSpace=wrap;html=1;fontStyle=1;fontSize=16;" vertex="1" parent="unkypP8U_ucPKdIfHoWb-1">
          <mxGeometry x="116" y="280" width="100" height="40" as="geometry" />
        </mxCell>
        <mxCell id="unkypP8U_ucPKdIfHoWb-10" value="3" style="text;html=1;align=center;verticalAlign=middle;whiteSpace=wrap;rounded=0;fontSize=16;fontStyle=1" vertex="1" parent="unkypP8U_ucPKdIfHoWb-1">
          <mxGeometry x="100" y="285" width="16" height="30" as="geometry" />
        </mxCell>
        <mxCell id="unkypP8U_ucPKdIfHoWb-11" value="" style="rounded=0;whiteSpace=wrap;html=1;" vertex="1" parent="unkypP8U_ucPKdIfHoWb-1">
          <mxGeometry x="116" y="240" width="100" height="40" as="geometry" />
        </mxCell>
        <mxCell id="unkypP8U_ucPKdIfHoWb-12" value="2" style="text;html=1;align=center;verticalAlign=middle;whiteSpace=wrap;rounded=0;fontSize=16;fontStyle=1" vertex="1" parent="unkypP8U_ucPKdIfHoWb-1">
          <mxGeometry x="100" y="245" width="16" height="30" as="geometry" />
        </mxCell>
        <mxCell id="unkypP8U_ucPKdIfHoWb-13" value="1" style="text;html=1;align=center;verticalAlign=middle;whiteSpace=wrap;rounded=0;fontSize=16;fontStyle=1" vertex="1" parent="unkypP8U_ucPKdIfHoWb-1">
          <mxGeometry x="100" y="205" width="16" height="30" as="geometry" />
        </mxCell>
        <mxCell id="unkypP8U_ucPKdIfHoWb-14" value="60" style="rounded=0;whiteSpace=wrap;html=1;fontStyle=1;fontSize=16;" vertex="1" parent="unkypP8U_ucPKdIfHoWb-1">
          <mxGeometry x="116" y="160" width="100" height="40" as="geometry" />
        </mxCell>
        <mxCell id="unkypP8U_ucPKdIfHoWb-15" value="0" style="text;html=1;align=center;verticalAlign=middle;whiteSpace=wrap;rounded=0;fontSize=16;fontStyle=1" vertex="1" parent="unkypP8U_ucPKdIfHoWb-1">
          <mxGeometry x="100" y="165" width="16" height="30" as="geometry" />
        </mxCell>
        <mxCell id="unkypP8U_ucPKdIfHoWb-16" value="49" style="rounded=0;whiteSpace=wrap;html=1;fontStyle=1;fontSize=16;" vertex="1" parent="unkypP8U_ucPKdIfHoWb-1">
          <mxGeometry x="116" y="200" width="100" height="40" as="geometry" />
        </mxCell>
        <mxCell id="unkypP8U_ucPKdIfHoWb-17" value="" style="endArrow=classic;html=1;rounded=0;exitX=1;exitY=0.5;exitDx=0;exitDy=0;entryX=0;entryY=0.5;entryDx=0;entryDy=0;" edge="1" parent="unkypP8U_ucPKdIfHoWb-1" source="unkypP8U_ucPKdIfHoWb-16">
          <mxGeometry width="50" height="50" relative="1" as="geometry">
            <mxPoint x="390" y="430" as="sourcePoint" />
            <mxPoint x="261" y="220" as="targetPoint" />
          </mxGeometry>
        </mxCell>
        <mxCell id="unkypP8U_ucPKdIfHoWb-18" value="7" style="rounded=0;whiteSpace=wrap;html=1;fontStyle=1;fontSize=16;" vertex="1" parent="unkypP8U_ucPKdIfHoWb-1">
          <mxGeometry x="260" y="200" width="100" height="40" as="geometry" />
        </mxCell>
        <mxCell id="unkypP8U_ucPKdIfHoWb-19" value="13" style="rounded=0;whiteSpace=wrap;html=1;fontStyle=1;fontSize=16;" vertex="1" parent="unkypP8U_ucPKdIfHoWb-1">
          <mxGeometry x="405" y="200" width="100" height="40" as="geometry" />
        </mxCell>
        <mxCell id="unkypP8U_ucPKdIfHoWb-20" value="" style="endArrow=classic;html=1;rounded=0;exitX=1;exitY=0.5;exitDx=0;exitDy=0;entryX=0;entryY=0.5;entryDx=0;entryDy=0;" edge="1" parent="unkypP8U_ucPKdIfHoWb-1" source="unkypP8U_ucPKdIfHoWb-18" target="unkypP8U_ucPKdIfHoWb-19">
          <mxGeometry width="50" height="50" relative="1" as="geometry">
            <mxPoint x="534" y="430" as="sourcePoint" />
            <mxPoint x="414" y="220" as="targetPoint" />
          </mxGeometry>
        </mxCell>
        <mxCell id="unkypP8U_ucPKdIfHoWb-21" value="" style="endArrow=classic;html=1;rounded=0;exitX=1;exitY=0.5;exitDx=0;exitDy=0;entryX=0;entryY=0.5;entryDx=0;entryDy=0;" edge="1" parent="unkypP8U_ucPKdIfHoWb-1">
          <mxGeometry width="50" height="50" relative="1" as="geometry">
            <mxPoint x="216" y="299.5" as="sourcePoint" />
            <mxPoint x="261" y="299.5" as="targetPoint" />
          </mxGeometry>
        </mxCell>
        <mxCell id="unkypP8U_ucPKdIfHoWb-22" value="21" style="rounded=0;whiteSpace=wrap;html=1;fontStyle=1;fontSize=16;" vertex="1" parent="unkypP8U_ucPKdIfHoWb-1">
          <mxGeometry x="260" y="280" width="100" height="40" as="geometry" />
        </mxCell>
        <mxCell id="bvgwBuw-MJw4iScfn1gm-0" value="" style="endArrow=classic;html=1;rounded=0;exitX=1;exitY=0.5;exitDx=0;exitDy=0;entryX=0;entryY=0.5;entryDx=0;entryDy=0;" edge="1" parent="unkypP8U_ucPKdIfHoWb-1">
          <mxGeometry width="50" height="50" relative="1" as="geometry">
            <mxPoint x="216" y="339.5" as="sourcePoint" />
            <mxPoint x="261" y="339.5" as="targetPoint" />
          </mxGeometry>
        </mxCell>
        <mxCell id="bvgwBuw-MJw4iScfn1gm-1" value="4" style="rounded=0;whiteSpace=wrap;html=1;fontStyle=1;fontSize=16;" vertex="1" parent="unkypP8U_ucPKdIfHoWb-1">
          <mxGeometry x="260" y="320" width="100" height="40" as="geometry" />
        </mxCell>
      </root>
    </mxGraphModel>
  </diagram>
  <diagram name="11" id="HerOHLpAR05igxWEblZM">
    <mxGraphModel dx="1434" dy="780" grid="1" gridSize="10" guides="1" tooltips="1" connect="1" arrows="1" fold="1" page="1" pageScale="1" pageWidth="827" pageHeight="1169" math="0" shadow="0">
      <root>
        <mxCell id="QQB4mnC8lJTU3yG7PJpc-0" />
        <mxCell id="QQB4mnC8lJTU3yG7PJpc-1" parent="QQB4mnC8lJTU3yG7PJpc-0" />
        <mxCell id="QQB4mnC8lJTU3yG7PJpc-2" value="Tamanho = 6" style="text;html=1;align=center;verticalAlign=middle;whiteSpace=wrap;rounded=0;fontSize=16;fontStyle=1" vertex="1" parent="QQB4mnC8lJTU3yG7PJpc-1">
          <mxGeometry x="361" y="50" width="106" height="30" as="geometry" />
        </mxCell>
        <mxCell id="QQB4mnC8lJTU3yG7PJpc-3" value="Insere 5" style="rounded=1;whiteSpace=wrap;html=1;fontSize=16;" vertex="1" parent="QQB4mnC8lJTU3yG7PJpc-1">
          <mxGeometry x="680" y="40" width="110" height="40" as="geometry" />
        </mxCell>
        <mxCell id="QQB4mnC8lJTU3yG7PJpc-4" value="posicao = 5 % 6 = 5" style="text;html=1;align=center;verticalAlign=middle;whiteSpace=wrap;rounded=0;fontSize=16;fontStyle=0" vertex="1" parent="QQB4mnC8lJTU3yG7PJpc-1">
          <mxGeometry x="314" y="90" width="199" height="30" as="geometry" />
        </mxCell>
        <mxCell id="QQB4mnC8lJTU3yG7PJpc-5" value="&lt;b&gt;&lt;font style=&quot;font-size: 16px;&quot;&gt;5&lt;/font&gt;&lt;/b&gt;" style="rounded=0;whiteSpace=wrap;html=1;" vertex="1" parent="QQB4mnC8lJTU3yG7PJpc-1">
          <mxGeometry x="116" y="360" width="100" height="40" as="geometry" />
        </mxCell>
        <mxCell id="QQB4mnC8lJTU3yG7PJpc-6" value="5" style="text;html=1;align=center;verticalAlign=middle;whiteSpace=wrap;rounded=0;fontSize=16;fontStyle=1" vertex="1" parent="QQB4mnC8lJTU3yG7PJpc-1">
          <mxGeometry x="100" y="365" width="16" height="30" as="geometry" />
        </mxCell>
        <mxCell id="QQB4mnC8lJTU3yG7PJpc-7" value="40" style="rounded=0;whiteSpace=wrap;html=1;fontStyle=1;fontSize=16;" vertex="1" parent="QQB4mnC8lJTU3yG7PJpc-1">
          <mxGeometry x="116" y="320" width="100" height="40" as="geometry" />
        </mxCell>
        <mxCell id="QQB4mnC8lJTU3yG7PJpc-8" value="4" style="text;html=1;align=center;verticalAlign=middle;whiteSpace=wrap;rounded=0;fontSize=16;fontStyle=1" vertex="1" parent="QQB4mnC8lJTU3yG7PJpc-1">
          <mxGeometry x="100" y="325" width="16" height="30" as="geometry" />
        </mxCell>
        <mxCell id="QQB4mnC8lJTU3yG7PJpc-9" value="33" style="rounded=0;whiteSpace=wrap;html=1;fontStyle=1;fontSize=16;" vertex="1" parent="QQB4mnC8lJTU3yG7PJpc-1">
          <mxGeometry x="116" y="280" width="100" height="40" as="geometry" />
        </mxCell>
        <mxCell id="QQB4mnC8lJTU3yG7PJpc-10" value="3" style="text;html=1;align=center;verticalAlign=middle;whiteSpace=wrap;rounded=0;fontSize=16;fontStyle=1" vertex="1" parent="QQB4mnC8lJTU3yG7PJpc-1">
          <mxGeometry x="100" y="285" width="16" height="30" as="geometry" />
        </mxCell>
        <mxCell id="QQB4mnC8lJTU3yG7PJpc-11" value="" style="rounded=0;whiteSpace=wrap;html=1;" vertex="1" parent="QQB4mnC8lJTU3yG7PJpc-1">
          <mxGeometry x="116" y="240" width="100" height="40" as="geometry" />
        </mxCell>
        <mxCell id="QQB4mnC8lJTU3yG7PJpc-12" value="2" style="text;html=1;align=center;verticalAlign=middle;whiteSpace=wrap;rounded=0;fontSize=16;fontStyle=1" vertex="1" parent="QQB4mnC8lJTU3yG7PJpc-1">
          <mxGeometry x="100" y="245" width="16" height="30" as="geometry" />
        </mxCell>
        <mxCell id="QQB4mnC8lJTU3yG7PJpc-13" value="1" style="text;html=1;align=center;verticalAlign=middle;whiteSpace=wrap;rounded=0;fontSize=16;fontStyle=1" vertex="1" parent="QQB4mnC8lJTU3yG7PJpc-1">
          <mxGeometry x="100" y="205" width="16" height="30" as="geometry" />
        </mxCell>
        <mxCell id="QQB4mnC8lJTU3yG7PJpc-14" value="60" style="rounded=0;whiteSpace=wrap;html=1;fontStyle=1;fontSize=16;" vertex="1" parent="QQB4mnC8lJTU3yG7PJpc-1">
          <mxGeometry x="116" y="160" width="100" height="40" as="geometry" />
        </mxCell>
        <mxCell id="QQB4mnC8lJTU3yG7PJpc-15" value="0" style="text;html=1;align=center;verticalAlign=middle;whiteSpace=wrap;rounded=0;fontSize=16;fontStyle=1" vertex="1" parent="QQB4mnC8lJTU3yG7PJpc-1">
          <mxGeometry x="100" y="165" width="16" height="30" as="geometry" />
        </mxCell>
        <mxCell id="QQB4mnC8lJTU3yG7PJpc-16" value="49" style="rounded=0;whiteSpace=wrap;html=1;fontStyle=1;fontSize=16;" vertex="1" parent="QQB4mnC8lJTU3yG7PJpc-1">
          <mxGeometry x="116" y="200" width="100" height="40" as="geometry" />
        </mxCell>
        <mxCell id="QQB4mnC8lJTU3yG7PJpc-17" value="" style="endArrow=classic;html=1;rounded=0;exitX=1;exitY=0.5;exitDx=0;exitDy=0;entryX=0;entryY=0.5;entryDx=0;entryDy=0;" edge="1" parent="QQB4mnC8lJTU3yG7PJpc-1" source="QQB4mnC8lJTU3yG7PJpc-16">
          <mxGeometry width="50" height="50" relative="1" as="geometry">
            <mxPoint x="390" y="430" as="sourcePoint" />
            <mxPoint x="261" y="220" as="targetPoint" />
          </mxGeometry>
        </mxCell>
        <mxCell id="QQB4mnC8lJTU3yG7PJpc-18" value="7" style="rounded=0;whiteSpace=wrap;html=1;fontStyle=1;fontSize=16;" vertex="1" parent="QQB4mnC8lJTU3yG7PJpc-1">
          <mxGeometry x="260" y="200" width="100" height="40" as="geometry" />
        </mxCell>
        <mxCell id="QQB4mnC8lJTU3yG7PJpc-19" value="13" style="rounded=0;whiteSpace=wrap;html=1;fontStyle=1;fontSize=16;" vertex="1" parent="QQB4mnC8lJTU3yG7PJpc-1">
          <mxGeometry x="405" y="200" width="100" height="40" as="geometry" />
        </mxCell>
        <mxCell id="QQB4mnC8lJTU3yG7PJpc-20" value="" style="endArrow=classic;html=1;rounded=0;exitX=1;exitY=0.5;exitDx=0;exitDy=0;entryX=0;entryY=0.5;entryDx=0;entryDy=0;" edge="1" parent="QQB4mnC8lJTU3yG7PJpc-1" source="QQB4mnC8lJTU3yG7PJpc-18" target="QQB4mnC8lJTU3yG7PJpc-19">
          <mxGeometry width="50" height="50" relative="1" as="geometry">
            <mxPoint x="534" y="430" as="sourcePoint" />
            <mxPoint x="414" y="220" as="targetPoint" />
          </mxGeometry>
        </mxCell>
        <mxCell id="QQB4mnC8lJTU3yG7PJpc-21" value="" style="endArrow=classic;html=1;rounded=0;exitX=1;exitY=0.5;exitDx=0;exitDy=0;entryX=0;entryY=0.5;entryDx=0;entryDy=0;" edge="1" parent="QQB4mnC8lJTU3yG7PJpc-1">
          <mxGeometry width="50" height="50" relative="1" as="geometry">
            <mxPoint x="216" y="299.5" as="sourcePoint" />
            <mxPoint x="261" y="299.5" as="targetPoint" />
          </mxGeometry>
        </mxCell>
        <mxCell id="QQB4mnC8lJTU3yG7PJpc-22" value="21" style="rounded=0;whiteSpace=wrap;html=1;fontStyle=1;fontSize=16;" vertex="1" parent="QQB4mnC8lJTU3yG7PJpc-1">
          <mxGeometry x="260" y="280" width="100" height="40" as="geometry" />
        </mxCell>
        <mxCell id="QQB4mnC8lJTU3yG7PJpc-23" value="" style="endArrow=classic;html=1;rounded=0;exitX=1;exitY=0.5;exitDx=0;exitDy=0;entryX=0;entryY=0.5;entryDx=0;entryDy=0;" edge="1" parent="QQB4mnC8lJTU3yG7PJpc-1">
          <mxGeometry width="50" height="50" relative="1" as="geometry">
            <mxPoint x="216" y="339.5" as="sourcePoint" />
            <mxPoint x="261" y="339.5" as="targetPoint" />
          </mxGeometry>
        </mxCell>
        <mxCell id="QQB4mnC8lJTU3yG7PJpc-24" value="4" style="rounded=0;whiteSpace=wrap;html=1;fontStyle=1;fontSize=16;" vertex="1" parent="QQB4mnC8lJTU3yG7PJpc-1">
          <mxGeometry x="260" y="320" width="100" height="40" as="geometry" />
        </mxCell>
        <mxCell id="M_mPrfOY6ZZoVQe2Toe0-0" value="" style="endArrow=classic;html=1;rounded=0;exitX=1;exitY=0.5;exitDx=0;exitDy=0;entryX=0;entryY=0.5;entryDx=0;entryDy=0;" edge="1" parent="QQB4mnC8lJTU3yG7PJpc-1">
          <mxGeometry width="50" height="50" relative="1" as="geometry">
            <mxPoint x="216" y="379.5" as="sourcePoint" />
            <mxPoint x="261" y="379.5" as="targetPoint" />
          </mxGeometry>
        </mxCell>
        <mxCell id="M_mPrfOY6ZZoVQe2Toe0-2" value="&lt;b&gt;&lt;font style=&quot;font-size: 16px;&quot;&gt;11&lt;/font&gt;&lt;/b&gt;" style="rounded=0;whiteSpace=wrap;html=1;" vertex="1" parent="QQB4mnC8lJTU3yG7PJpc-1">
          <mxGeometry x="260" y="360" width="100" height="40" as="geometry" />
        </mxCell>
      </root>
    </mxGraphModel>
  </diagram>
  <diagram name="12" id="nUHZJ_-OliLLtlQHDroq">
    <mxGraphModel dx="1434" dy="780" grid="1" gridSize="10" guides="1" tooltips="1" connect="1" arrows="1" fold="1" page="1" pageScale="1" pageWidth="827" pageHeight="1169" math="0" shadow="0">
      <root>
        <mxCell id="Gr0xBQ9a8uwZmHyCU14F-0" />
        <mxCell id="Gr0xBQ9a8uwZmHyCU14F-1" parent="Gr0xBQ9a8uwZmHyCU14F-0" />
        <mxCell id="Gr0xBQ9a8uwZmHyCU14F-2" value="Tamanho = 6" style="text;html=1;align=center;verticalAlign=middle;whiteSpace=wrap;rounded=0;fontSize=16;fontStyle=1" vertex="1" parent="Gr0xBQ9a8uwZmHyCU14F-1">
          <mxGeometry x="361" y="50" width="106" height="30" as="geometry" />
        </mxCell>
        <mxCell id="Gr0xBQ9a8uwZmHyCU14F-3" value="Insere 8" style="rounded=1;whiteSpace=wrap;html=1;fontSize=16;" vertex="1" parent="Gr0xBQ9a8uwZmHyCU14F-1">
          <mxGeometry x="680" y="40" width="110" height="40" as="geometry" />
        </mxCell>
        <mxCell id="Gr0xBQ9a8uwZmHyCU14F-4" value="posicao = 8 % 6 = 2" style="text;html=1;align=center;verticalAlign=middle;whiteSpace=wrap;rounded=0;fontSize=16;fontStyle=0" vertex="1" parent="Gr0xBQ9a8uwZmHyCU14F-1">
          <mxGeometry x="314" y="90" width="199" height="30" as="geometry" />
        </mxCell>
        <mxCell id="Gr0xBQ9a8uwZmHyCU14F-5" value="&lt;b&gt;&lt;font style=&quot;font-size: 16px;&quot;&gt;5&lt;/font&gt;&lt;/b&gt;" style="rounded=0;whiteSpace=wrap;html=1;" vertex="1" parent="Gr0xBQ9a8uwZmHyCU14F-1">
          <mxGeometry x="116" y="360" width="100" height="40" as="geometry" />
        </mxCell>
        <mxCell id="Gr0xBQ9a8uwZmHyCU14F-6" value="5" style="text;html=1;align=center;verticalAlign=middle;whiteSpace=wrap;rounded=0;fontSize=16;fontStyle=1" vertex="1" parent="Gr0xBQ9a8uwZmHyCU14F-1">
          <mxGeometry x="100" y="365" width="16" height="30" as="geometry" />
        </mxCell>
        <mxCell id="Gr0xBQ9a8uwZmHyCU14F-7" value="40" style="rounded=0;whiteSpace=wrap;html=1;fontStyle=1;fontSize=16;" vertex="1" parent="Gr0xBQ9a8uwZmHyCU14F-1">
          <mxGeometry x="116" y="320" width="100" height="40" as="geometry" />
        </mxCell>
        <mxCell id="Gr0xBQ9a8uwZmHyCU14F-8" value="4" style="text;html=1;align=center;verticalAlign=middle;whiteSpace=wrap;rounded=0;fontSize=16;fontStyle=1" vertex="1" parent="Gr0xBQ9a8uwZmHyCU14F-1">
          <mxGeometry x="100" y="325" width="16" height="30" as="geometry" />
        </mxCell>
        <mxCell id="Gr0xBQ9a8uwZmHyCU14F-9" value="33" style="rounded=0;whiteSpace=wrap;html=1;fontStyle=1;fontSize=16;" vertex="1" parent="Gr0xBQ9a8uwZmHyCU14F-1">
          <mxGeometry x="116" y="280" width="100" height="40" as="geometry" />
        </mxCell>
        <mxCell id="Gr0xBQ9a8uwZmHyCU14F-10" value="3" style="text;html=1;align=center;verticalAlign=middle;whiteSpace=wrap;rounded=0;fontSize=16;fontStyle=1" vertex="1" parent="Gr0xBQ9a8uwZmHyCU14F-1">
          <mxGeometry x="100" y="285" width="16" height="30" as="geometry" />
        </mxCell>
        <mxCell id="Gr0xBQ9a8uwZmHyCU14F-11" value="&lt;b&gt;&lt;font style=&quot;font-size: 16px;&quot;&gt;8&lt;/font&gt;&lt;/b&gt;" style="rounded=0;whiteSpace=wrap;html=1;" vertex="1" parent="Gr0xBQ9a8uwZmHyCU14F-1">
          <mxGeometry x="116" y="240" width="100" height="40" as="geometry" />
        </mxCell>
        <mxCell id="Gr0xBQ9a8uwZmHyCU14F-12" value="2" style="text;html=1;align=center;verticalAlign=middle;whiteSpace=wrap;rounded=0;fontSize=16;fontStyle=1" vertex="1" parent="Gr0xBQ9a8uwZmHyCU14F-1">
          <mxGeometry x="100" y="245" width="16" height="30" as="geometry" />
        </mxCell>
        <mxCell id="Gr0xBQ9a8uwZmHyCU14F-13" value="1" style="text;html=1;align=center;verticalAlign=middle;whiteSpace=wrap;rounded=0;fontSize=16;fontStyle=1" vertex="1" parent="Gr0xBQ9a8uwZmHyCU14F-1">
          <mxGeometry x="100" y="205" width="16" height="30" as="geometry" />
        </mxCell>
        <mxCell id="Gr0xBQ9a8uwZmHyCU14F-14" value="60" style="rounded=0;whiteSpace=wrap;html=1;fontStyle=1;fontSize=16;" vertex="1" parent="Gr0xBQ9a8uwZmHyCU14F-1">
          <mxGeometry x="116" y="160" width="100" height="40" as="geometry" />
        </mxCell>
        <mxCell id="Gr0xBQ9a8uwZmHyCU14F-15" value="0" style="text;html=1;align=center;verticalAlign=middle;whiteSpace=wrap;rounded=0;fontSize=16;fontStyle=1" vertex="1" parent="Gr0xBQ9a8uwZmHyCU14F-1">
          <mxGeometry x="100" y="165" width="16" height="30" as="geometry" />
        </mxCell>
        <mxCell id="Gr0xBQ9a8uwZmHyCU14F-16" value="49" style="rounded=0;whiteSpace=wrap;html=1;fontStyle=1;fontSize=16;" vertex="1" parent="Gr0xBQ9a8uwZmHyCU14F-1">
          <mxGeometry x="116" y="200" width="100" height="40" as="geometry" />
        </mxCell>
        <mxCell id="Gr0xBQ9a8uwZmHyCU14F-17" value="" style="endArrow=classic;html=1;rounded=0;exitX=1;exitY=0.5;exitDx=0;exitDy=0;entryX=0;entryY=0.5;entryDx=0;entryDy=0;" edge="1" parent="Gr0xBQ9a8uwZmHyCU14F-1" source="Gr0xBQ9a8uwZmHyCU14F-16">
          <mxGeometry width="50" height="50" relative="1" as="geometry">
            <mxPoint x="390" y="430" as="sourcePoint" />
            <mxPoint x="261" y="220" as="targetPoint" />
          </mxGeometry>
        </mxCell>
        <mxCell id="Gr0xBQ9a8uwZmHyCU14F-18" value="7" style="rounded=0;whiteSpace=wrap;html=1;fontStyle=1;fontSize=16;" vertex="1" parent="Gr0xBQ9a8uwZmHyCU14F-1">
          <mxGeometry x="260" y="200" width="100" height="40" as="geometry" />
        </mxCell>
        <mxCell id="Gr0xBQ9a8uwZmHyCU14F-19" value="13" style="rounded=0;whiteSpace=wrap;html=1;fontStyle=1;fontSize=16;" vertex="1" parent="Gr0xBQ9a8uwZmHyCU14F-1">
          <mxGeometry x="405" y="200" width="100" height="40" as="geometry" />
        </mxCell>
        <mxCell id="Gr0xBQ9a8uwZmHyCU14F-20" value="" style="endArrow=classic;html=1;rounded=0;exitX=1;exitY=0.5;exitDx=0;exitDy=0;entryX=0;entryY=0.5;entryDx=0;entryDy=0;" edge="1" parent="Gr0xBQ9a8uwZmHyCU14F-1" source="Gr0xBQ9a8uwZmHyCU14F-18" target="Gr0xBQ9a8uwZmHyCU14F-19">
          <mxGeometry width="50" height="50" relative="1" as="geometry">
            <mxPoint x="534" y="430" as="sourcePoint" />
            <mxPoint x="414" y="220" as="targetPoint" />
          </mxGeometry>
        </mxCell>
        <mxCell id="Gr0xBQ9a8uwZmHyCU14F-21" value="" style="endArrow=classic;html=1;rounded=0;exitX=1;exitY=0.5;exitDx=0;exitDy=0;entryX=0;entryY=0.5;entryDx=0;entryDy=0;" edge="1" parent="Gr0xBQ9a8uwZmHyCU14F-1">
          <mxGeometry width="50" height="50" relative="1" as="geometry">
            <mxPoint x="216" y="299.5" as="sourcePoint" />
            <mxPoint x="261" y="299.5" as="targetPoint" />
          </mxGeometry>
        </mxCell>
        <mxCell id="Gr0xBQ9a8uwZmHyCU14F-22" value="21" style="rounded=0;whiteSpace=wrap;html=1;fontStyle=1;fontSize=16;" vertex="1" parent="Gr0xBQ9a8uwZmHyCU14F-1">
          <mxGeometry x="260" y="280" width="100" height="40" as="geometry" />
        </mxCell>
        <mxCell id="Gr0xBQ9a8uwZmHyCU14F-23" value="" style="endArrow=classic;html=1;rounded=0;exitX=1;exitY=0.5;exitDx=0;exitDy=0;entryX=0;entryY=0.5;entryDx=0;entryDy=0;" edge="1" parent="Gr0xBQ9a8uwZmHyCU14F-1">
          <mxGeometry width="50" height="50" relative="1" as="geometry">
            <mxPoint x="216" y="339.5" as="sourcePoint" />
            <mxPoint x="261" y="339.5" as="targetPoint" />
          </mxGeometry>
        </mxCell>
        <mxCell id="Gr0xBQ9a8uwZmHyCU14F-24" value="4" style="rounded=0;whiteSpace=wrap;html=1;fontStyle=1;fontSize=16;" vertex="1" parent="Gr0xBQ9a8uwZmHyCU14F-1">
          <mxGeometry x="260" y="320" width="100" height="40" as="geometry" />
        </mxCell>
        <mxCell id="Gr0xBQ9a8uwZmHyCU14F-25" value="" style="endArrow=classic;html=1;rounded=0;exitX=1;exitY=0.5;exitDx=0;exitDy=0;entryX=0;entryY=0.5;entryDx=0;entryDy=0;" edge="1" parent="Gr0xBQ9a8uwZmHyCU14F-1">
          <mxGeometry width="50" height="50" relative="1" as="geometry">
            <mxPoint x="216" y="379.5" as="sourcePoint" />
            <mxPoint x="261" y="379.5" as="targetPoint" />
          </mxGeometry>
        </mxCell>
        <mxCell id="Gr0xBQ9a8uwZmHyCU14F-26" value="&lt;b&gt;&lt;font style=&quot;font-size: 16px;&quot;&gt;11&lt;/font&gt;&lt;/b&gt;" style="rounded=0;whiteSpace=wrap;html=1;" vertex="1" parent="Gr0xBQ9a8uwZmHyCU14F-1">
          <mxGeometry x="260" y="360" width="100" height="40" as="geometry" />
        </mxCell>
      </root>
    </mxGraphModel>
  </diagram>
  <diagram name="13" id="RKsY54PeZunIsl2K5sUl">
    <mxGraphModel dx="1434" dy="780" grid="1" gridSize="10" guides="1" tooltips="1" connect="1" arrows="1" fold="1" page="1" pageScale="1" pageWidth="827" pageHeight="1169" math="0" shadow="0">
      <root>
        <mxCell id="NqUwwnlSnXM8lxi4EuJn-0" />
        <mxCell id="NqUwwnlSnXM8lxi4EuJn-1" parent="NqUwwnlSnXM8lxi4EuJn-0" />
        <mxCell id="NqUwwnlSnXM8lxi4EuJn-2" value="Tamanho = 6" style="text;html=1;align=center;verticalAlign=middle;whiteSpace=wrap;rounded=0;fontSize=16;fontStyle=1" vertex="1" parent="NqUwwnlSnXM8lxi4EuJn-1">
          <mxGeometry x="361" y="50" width="106" height="30" as="geometry" />
        </mxCell>
        <mxCell id="NqUwwnlSnXM8lxi4EuJn-3" value="Remove 4" style="rounded=1;whiteSpace=wrap;html=1;fontSize=16;" vertex="1" parent="NqUwwnlSnXM8lxi4EuJn-1">
          <mxGeometry x="680" y="40" width="110" height="40" as="geometry" />
        </mxCell>
        <mxCell id="NqUwwnlSnXM8lxi4EuJn-4" value="posicao = 4 % 6 = 4" style="text;html=1;align=center;verticalAlign=middle;whiteSpace=wrap;rounded=0;fontSize=16;fontStyle=0" vertex="1" parent="NqUwwnlSnXM8lxi4EuJn-1">
          <mxGeometry x="314" y="90" width="199" height="30" as="geometry" />
        </mxCell>
        <mxCell id="NqUwwnlSnXM8lxi4EuJn-5" value="&lt;b&gt;&lt;font style=&quot;font-size: 16px;&quot;&gt;5&lt;/font&gt;&lt;/b&gt;" style="rounded=0;whiteSpace=wrap;html=1;" vertex="1" parent="NqUwwnlSnXM8lxi4EuJn-1">
          <mxGeometry x="116" y="360" width="100" height="40" as="geometry" />
        </mxCell>
        <mxCell id="NqUwwnlSnXM8lxi4EuJn-6" value="5" style="text;html=1;align=center;verticalAlign=middle;whiteSpace=wrap;rounded=0;fontSize=16;fontStyle=1" vertex="1" parent="NqUwwnlSnXM8lxi4EuJn-1">
          <mxGeometry x="100" y="365" width="16" height="30" as="geometry" />
        </mxCell>
        <mxCell id="NqUwwnlSnXM8lxi4EuJn-7" value="40" style="rounded=0;whiteSpace=wrap;html=1;fontStyle=1;fontSize=16;" vertex="1" parent="NqUwwnlSnXM8lxi4EuJn-1">
          <mxGeometry x="116" y="320" width="100" height="40" as="geometry" />
        </mxCell>
        <mxCell id="NqUwwnlSnXM8lxi4EuJn-8" value="4" style="text;html=1;align=center;verticalAlign=middle;whiteSpace=wrap;rounded=0;fontSize=16;fontStyle=1" vertex="1" parent="NqUwwnlSnXM8lxi4EuJn-1">
          <mxGeometry x="100" y="325" width="16" height="30" as="geometry" />
        </mxCell>
        <mxCell id="NqUwwnlSnXM8lxi4EuJn-9" value="33" style="rounded=0;whiteSpace=wrap;html=1;fontStyle=1;fontSize=16;" vertex="1" parent="NqUwwnlSnXM8lxi4EuJn-1">
          <mxGeometry x="116" y="280" width="100" height="40" as="geometry" />
        </mxCell>
        <mxCell id="NqUwwnlSnXM8lxi4EuJn-10" value="3" style="text;html=1;align=center;verticalAlign=middle;whiteSpace=wrap;rounded=0;fontSize=16;fontStyle=1" vertex="1" parent="NqUwwnlSnXM8lxi4EuJn-1">
          <mxGeometry x="100" y="285" width="16" height="30" as="geometry" />
        </mxCell>
        <mxCell id="NqUwwnlSnXM8lxi4EuJn-11" value="&lt;b&gt;&lt;font style=&quot;font-size: 16px;&quot;&gt;8&lt;/font&gt;&lt;/b&gt;" style="rounded=0;whiteSpace=wrap;html=1;" vertex="1" parent="NqUwwnlSnXM8lxi4EuJn-1">
          <mxGeometry x="116" y="240" width="100" height="40" as="geometry" />
        </mxCell>
        <mxCell id="NqUwwnlSnXM8lxi4EuJn-12" value="2" style="text;html=1;align=center;verticalAlign=middle;whiteSpace=wrap;rounded=0;fontSize=16;fontStyle=1" vertex="1" parent="NqUwwnlSnXM8lxi4EuJn-1">
          <mxGeometry x="100" y="245" width="16" height="30" as="geometry" />
        </mxCell>
        <mxCell id="NqUwwnlSnXM8lxi4EuJn-13" value="1" style="text;html=1;align=center;verticalAlign=middle;whiteSpace=wrap;rounded=0;fontSize=16;fontStyle=1" vertex="1" parent="NqUwwnlSnXM8lxi4EuJn-1">
          <mxGeometry x="100" y="205" width="16" height="30" as="geometry" />
        </mxCell>
        <mxCell id="NqUwwnlSnXM8lxi4EuJn-14" value="60" style="rounded=0;whiteSpace=wrap;html=1;fontStyle=1;fontSize=16;" vertex="1" parent="NqUwwnlSnXM8lxi4EuJn-1">
          <mxGeometry x="116" y="160" width="100" height="40" as="geometry" />
        </mxCell>
        <mxCell id="NqUwwnlSnXM8lxi4EuJn-15" value="0" style="text;html=1;align=center;verticalAlign=middle;whiteSpace=wrap;rounded=0;fontSize=16;fontStyle=1" vertex="1" parent="NqUwwnlSnXM8lxi4EuJn-1">
          <mxGeometry x="100" y="165" width="16" height="30" as="geometry" />
        </mxCell>
        <mxCell id="NqUwwnlSnXM8lxi4EuJn-16" value="49" style="rounded=0;whiteSpace=wrap;html=1;fontStyle=1;fontSize=16;" vertex="1" parent="NqUwwnlSnXM8lxi4EuJn-1">
          <mxGeometry x="116" y="200" width="100" height="40" as="geometry" />
        </mxCell>
        <mxCell id="NqUwwnlSnXM8lxi4EuJn-17" value="" style="endArrow=classic;html=1;rounded=0;exitX=1;exitY=0.5;exitDx=0;exitDy=0;entryX=0;entryY=0.5;entryDx=0;entryDy=0;" edge="1" parent="NqUwwnlSnXM8lxi4EuJn-1" source="NqUwwnlSnXM8lxi4EuJn-16">
          <mxGeometry width="50" height="50" relative="1" as="geometry">
            <mxPoint x="390" y="430" as="sourcePoint" />
            <mxPoint x="261" y="220" as="targetPoint" />
          </mxGeometry>
        </mxCell>
        <mxCell id="NqUwwnlSnXM8lxi4EuJn-18" value="7" style="rounded=0;whiteSpace=wrap;html=1;fontStyle=1;fontSize=16;" vertex="1" parent="NqUwwnlSnXM8lxi4EuJn-1">
          <mxGeometry x="260" y="200" width="100" height="40" as="geometry" />
        </mxCell>
        <mxCell id="NqUwwnlSnXM8lxi4EuJn-19" value="13" style="rounded=0;whiteSpace=wrap;html=1;fontStyle=1;fontSize=16;" vertex="1" parent="NqUwwnlSnXM8lxi4EuJn-1">
          <mxGeometry x="405" y="200" width="100" height="40" as="geometry" />
        </mxCell>
        <mxCell id="NqUwwnlSnXM8lxi4EuJn-20" value="" style="endArrow=classic;html=1;rounded=0;exitX=1;exitY=0.5;exitDx=0;exitDy=0;entryX=0;entryY=0.5;entryDx=0;entryDy=0;" edge="1" parent="NqUwwnlSnXM8lxi4EuJn-1" source="NqUwwnlSnXM8lxi4EuJn-18" target="NqUwwnlSnXM8lxi4EuJn-19">
          <mxGeometry width="50" height="50" relative="1" as="geometry">
            <mxPoint x="534" y="430" as="sourcePoint" />
            <mxPoint x="414" y="220" as="targetPoint" />
          </mxGeometry>
        </mxCell>
        <mxCell id="NqUwwnlSnXM8lxi4EuJn-21" value="" style="endArrow=classic;html=1;rounded=0;exitX=1;exitY=0.5;exitDx=0;exitDy=0;entryX=0;entryY=0.5;entryDx=0;entryDy=0;" edge="1" parent="NqUwwnlSnXM8lxi4EuJn-1">
          <mxGeometry width="50" height="50" relative="1" as="geometry">
            <mxPoint x="216" y="299.5" as="sourcePoint" />
            <mxPoint x="261" y="299.5" as="targetPoint" />
          </mxGeometry>
        </mxCell>
        <mxCell id="NqUwwnlSnXM8lxi4EuJn-22" value="21" style="rounded=0;whiteSpace=wrap;html=1;fontStyle=1;fontSize=16;" vertex="1" parent="NqUwwnlSnXM8lxi4EuJn-1">
          <mxGeometry x="260" y="280" width="100" height="40" as="geometry" />
        </mxCell>
        <mxCell id="NqUwwnlSnXM8lxi4EuJn-23" value="" style="endArrow=classic;html=1;rounded=0;exitX=1;exitY=0.5;exitDx=0;exitDy=0;entryX=0;entryY=0.5;entryDx=0;entryDy=0;" edge="1" parent="NqUwwnlSnXM8lxi4EuJn-1">
          <mxGeometry width="50" height="50" relative="1" as="geometry">
            <mxPoint x="216" y="339.5" as="sourcePoint" />
            <mxPoint x="261" y="339.5" as="targetPoint" />
          </mxGeometry>
        </mxCell>
        <mxCell id="NqUwwnlSnXM8lxi4EuJn-24" value="4" style="rounded=0;whiteSpace=wrap;html=1;fontStyle=1;fontSize=16;" vertex="1" parent="NqUwwnlSnXM8lxi4EuJn-1">
          <mxGeometry x="260" y="320" width="100" height="40" as="geometry" />
        </mxCell>
        <mxCell id="NqUwwnlSnXM8lxi4EuJn-25" value="" style="endArrow=classic;html=1;rounded=0;exitX=1;exitY=0.5;exitDx=0;exitDy=0;entryX=0;entryY=0.5;entryDx=0;entryDy=0;" edge="1" parent="NqUwwnlSnXM8lxi4EuJn-1">
          <mxGeometry width="50" height="50" relative="1" as="geometry">
            <mxPoint x="216" y="379.5" as="sourcePoint" />
            <mxPoint x="261" y="379.5" as="targetPoint" />
          </mxGeometry>
        </mxCell>
        <mxCell id="NqUwwnlSnXM8lxi4EuJn-26" value="&lt;b&gt;&lt;font style=&quot;font-size: 16px;&quot;&gt;11&lt;/font&gt;&lt;/b&gt;" style="rounded=0;whiteSpace=wrap;html=1;" vertex="1" parent="NqUwwnlSnXM8lxi4EuJn-1">
          <mxGeometry x="260" y="360" width="100" height="40" as="geometry" />
        </mxCell>
        <mxCell id="jBXLcLViJ5ezKMsO2TyE-0" value="AUX" style="text;html=1;align=center;verticalAlign=middle;whiteSpace=wrap;rounded=0;fontSize=16;fontStyle=1" vertex="1" parent="NqUwwnlSnXM8lxi4EuJn-1">
          <mxGeometry x="10" y="275" width="50" height="30" as="geometry" />
        </mxCell>
        <mxCell id="jBXLcLViJ5ezKMsO2TyE-1" value="" style="endArrow=classic;html=1;rounded=0;exitX=0.75;exitY=1;exitDx=0;exitDy=0;entryX=0.75;entryY=0;entryDx=0;entryDy=0;" edge="1" parent="NqUwwnlSnXM8lxi4EuJn-1" source="jBXLcLViJ5ezKMsO2TyE-0" target="NqUwwnlSnXM8lxi4EuJn-8">
          <mxGeometry width="50" height="50" relative="1" as="geometry">
            <mxPoint x="390" y="430" as="sourcePoint" />
            <mxPoint x="440" y="380" as="targetPoint" />
          </mxGeometry>
        </mxCell>
      </root>
    </mxGraphModel>
  </diagram>
  <diagram name="14" id="ld-5D2yCrrGf7ACrD_ne">
    <mxGraphModel dx="1434" dy="780" grid="1" gridSize="10" guides="1" tooltips="1" connect="1" arrows="1" fold="1" page="1" pageScale="1" pageWidth="827" pageHeight="1169" math="0" shadow="0">
      <root>
        <mxCell id="hsiUXaVb7k5W9dYGmore-0" />
        <mxCell id="hsiUXaVb7k5W9dYGmore-1" parent="hsiUXaVb7k5W9dYGmore-0" />
        <mxCell id="hsiUXaVb7k5W9dYGmore-2" value="Tamanho = 6" style="text;html=1;align=center;verticalAlign=middle;whiteSpace=wrap;rounded=0;fontSize=16;fontStyle=1" vertex="1" parent="hsiUXaVb7k5W9dYGmore-1">
          <mxGeometry x="361" y="50" width="106" height="30" as="geometry" />
        </mxCell>
        <mxCell id="hsiUXaVb7k5W9dYGmore-3" value="Remove 4" style="rounded=1;whiteSpace=wrap;html=1;fontSize=16;" vertex="1" parent="hsiUXaVb7k5W9dYGmore-1">
          <mxGeometry x="680" y="40" width="110" height="40" as="geometry" />
        </mxCell>
        <mxCell id="hsiUXaVb7k5W9dYGmore-5" value="&lt;b&gt;&lt;font style=&quot;font-size: 16px;&quot;&gt;5&lt;/font&gt;&lt;/b&gt;" style="rounded=0;whiteSpace=wrap;html=1;" vertex="1" parent="hsiUXaVb7k5W9dYGmore-1">
          <mxGeometry x="116" y="360" width="100" height="40" as="geometry" />
        </mxCell>
        <mxCell id="hsiUXaVb7k5W9dYGmore-6" value="5" style="text;html=1;align=center;verticalAlign=middle;whiteSpace=wrap;rounded=0;fontSize=16;fontStyle=1" vertex="1" parent="hsiUXaVb7k5W9dYGmore-1">
          <mxGeometry x="100" y="365" width="16" height="30" as="geometry" />
        </mxCell>
        <mxCell id="hsiUXaVb7k5W9dYGmore-7" value="40" style="rounded=0;whiteSpace=wrap;html=1;fontStyle=1;fontSize=16;" vertex="1" parent="hsiUXaVb7k5W9dYGmore-1">
          <mxGeometry x="116" y="320" width="100" height="40" as="geometry" />
        </mxCell>
        <mxCell id="hsiUXaVb7k5W9dYGmore-8" value="4" style="text;html=1;align=center;verticalAlign=middle;whiteSpace=wrap;rounded=0;fontSize=16;fontStyle=1" vertex="1" parent="hsiUXaVb7k5W9dYGmore-1">
          <mxGeometry x="100" y="325" width="16" height="30" as="geometry" />
        </mxCell>
        <mxCell id="hsiUXaVb7k5W9dYGmore-9" value="33" style="rounded=0;whiteSpace=wrap;html=1;fontStyle=1;fontSize=16;" vertex="1" parent="hsiUXaVb7k5W9dYGmore-1">
          <mxGeometry x="116" y="280" width="100" height="40" as="geometry" />
        </mxCell>
        <mxCell id="hsiUXaVb7k5W9dYGmore-10" value="3" style="text;html=1;align=center;verticalAlign=middle;whiteSpace=wrap;rounded=0;fontSize=16;fontStyle=1" vertex="1" parent="hsiUXaVb7k5W9dYGmore-1">
          <mxGeometry x="100" y="285" width="16" height="30" as="geometry" />
        </mxCell>
        <mxCell id="hsiUXaVb7k5W9dYGmore-11" value="&lt;b&gt;&lt;font style=&quot;font-size: 16px;&quot;&gt;8&lt;/font&gt;&lt;/b&gt;" style="rounded=0;whiteSpace=wrap;html=1;" vertex="1" parent="hsiUXaVb7k5W9dYGmore-1">
          <mxGeometry x="116" y="240" width="100" height="40" as="geometry" />
        </mxCell>
        <mxCell id="hsiUXaVb7k5W9dYGmore-12" value="2" style="text;html=1;align=center;verticalAlign=middle;whiteSpace=wrap;rounded=0;fontSize=16;fontStyle=1" vertex="1" parent="hsiUXaVb7k5W9dYGmore-1">
          <mxGeometry x="100" y="245" width="16" height="30" as="geometry" />
        </mxCell>
        <mxCell id="hsiUXaVb7k5W9dYGmore-13" value="1" style="text;html=1;align=center;verticalAlign=middle;whiteSpace=wrap;rounded=0;fontSize=16;fontStyle=1" vertex="1" parent="hsiUXaVb7k5W9dYGmore-1">
          <mxGeometry x="100" y="205" width="16" height="30" as="geometry" />
        </mxCell>
        <mxCell id="hsiUXaVb7k5W9dYGmore-14" value="60" style="rounded=0;whiteSpace=wrap;html=1;fontStyle=1;fontSize=16;" vertex="1" parent="hsiUXaVb7k5W9dYGmore-1">
          <mxGeometry x="116" y="160" width="100" height="40" as="geometry" />
        </mxCell>
        <mxCell id="hsiUXaVb7k5W9dYGmore-15" value="0" style="text;html=1;align=center;verticalAlign=middle;whiteSpace=wrap;rounded=0;fontSize=16;fontStyle=1" vertex="1" parent="hsiUXaVb7k5W9dYGmore-1">
          <mxGeometry x="100" y="165" width="16" height="30" as="geometry" />
        </mxCell>
        <mxCell id="hsiUXaVb7k5W9dYGmore-16" value="49" style="rounded=0;whiteSpace=wrap;html=1;fontStyle=1;fontSize=16;" vertex="1" parent="hsiUXaVb7k5W9dYGmore-1">
          <mxGeometry x="116" y="200" width="100" height="40" as="geometry" />
        </mxCell>
        <mxCell id="hsiUXaVb7k5W9dYGmore-17" value="" style="endArrow=classic;html=1;rounded=0;exitX=1;exitY=0.5;exitDx=0;exitDy=0;entryX=0;entryY=0.5;entryDx=0;entryDy=0;" edge="1" parent="hsiUXaVb7k5W9dYGmore-1" source="hsiUXaVb7k5W9dYGmore-16">
          <mxGeometry width="50" height="50" relative="1" as="geometry">
            <mxPoint x="390" y="430" as="sourcePoint" />
            <mxPoint x="261" y="220" as="targetPoint" />
          </mxGeometry>
        </mxCell>
        <mxCell id="hsiUXaVb7k5W9dYGmore-18" value="7" style="rounded=0;whiteSpace=wrap;html=1;fontStyle=1;fontSize=16;" vertex="1" parent="hsiUXaVb7k5W9dYGmore-1">
          <mxGeometry x="260" y="200" width="100" height="40" as="geometry" />
        </mxCell>
        <mxCell id="hsiUXaVb7k5W9dYGmore-19" value="13" style="rounded=0;whiteSpace=wrap;html=1;fontStyle=1;fontSize=16;" vertex="1" parent="hsiUXaVb7k5W9dYGmore-1">
          <mxGeometry x="405" y="200" width="100" height="40" as="geometry" />
        </mxCell>
        <mxCell id="hsiUXaVb7k5W9dYGmore-20" value="" style="endArrow=classic;html=1;rounded=0;exitX=1;exitY=0.5;exitDx=0;exitDy=0;entryX=0;entryY=0.5;entryDx=0;entryDy=0;" edge="1" parent="hsiUXaVb7k5W9dYGmore-1" source="hsiUXaVb7k5W9dYGmore-18" target="hsiUXaVb7k5W9dYGmore-19">
          <mxGeometry width="50" height="50" relative="1" as="geometry">
            <mxPoint x="534" y="430" as="sourcePoint" />
            <mxPoint x="414" y="220" as="targetPoint" />
          </mxGeometry>
        </mxCell>
        <mxCell id="hsiUXaVb7k5W9dYGmore-21" value="" style="endArrow=classic;html=1;rounded=0;exitX=1;exitY=0.5;exitDx=0;exitDy=0;entryX=0;entryY=0.5;entryDx=0;entryDy=0;" edge="1" parent="hsiUXaVb7k5W9dYGmore-1">
          <mxGeometry width="50" height="50" relative="1" as="geometry">
            <mxPoint x="216" y="299.5" as="sourcePoint" />
            <mxPoint x="261" y="299.5" as="targetPoint" />
          </mxGeometry>
        </mxCell>
        <mxCell id="hsiUXaVb7k5W9dYGmore-22" value="21" style="rounded=0;whiteSpace=wrap;html=1;fontStyle=1;fontSize=16;" vertex="1" parent="hsiUXaVb7k5W9dYGmore-1">
          <mxGeometry x="260" y="280" width="100" height="40" as="geometry" />
        </mxCell>
        <mxCell id="hsiUXaVb7k5W9dYGmore-23" value="" style="endArrow=classic;html=1;rounded=0;exitX=1;exitY=0.5;exitDx=0;exitDy=0;entryX=0;entryY=0.5;entryDx=0;entryDy=0;" edge="1" parent="hsiUXaVb7k5W9dYGmore-1">
          <mxGeometry width="50" height="50" relative="1" as="geometry">
            <mxPoint x="216" y="339.5" as="sourcePoint" />
            <mxPoint x="261" y="339.5" as="targetPoint" />
          </mxGeometry>
        </mxCell>
        <mxCell id="hsiUXaVb7k5W9dYGmore-24" value="4" style="rounded=0;whiteSpace=wrap;html=1;fontStyle=1;fontSize=16;" vertex="1" parent="hsiUXaVb7k5W9dYGmore-1">
          <mxGeometry x="260" y="320" width="100" height="40" as="geometry" />
        </mxCell>
        <mxCell id="hsiUXaVb7k5W9dYGmore-25" value="" style="endArrow=classic;html=1;rounded=0;exitX=1;exitY=0.5;exitDx=0;exitDy=0;entryX=0;entryY=0.5;entryDx=0;entryDy=0;" edge="1" parent="hsiUXaVb7k5W9dYGmore-1">
          <mxGeometry width="50" height="50" relative="1" as="geometry">
            <mxPoint x="216" y="379.5" as="sourcePoint" />
            <mxPoint x="261" y="379.5" as="targetPoint" />
          </mxGeometry>
        </mxCell>
        <mxCell id="hsiUXaVb7k5W9dYGmore-26" value="&lt;b&gt;&lt;font style=&quot;font-size: 16px;&quot;&gt;11&lt;/font&gt;&lt;/b&gt;" style="rounded=0;whiteSpace=wrap;html=1;" vertex="1" parent="hsiUXaVb7k5W9dYGmore-1">
          <mxGeometry x="260" y="360" width="100" height="40" as="geometry" />
        </mxCell>
        <mxCell id="hsiUXaVb7k5W9dYGmore-27" value="AUX" style="text;html=1;align=center;verticalAlign=middle;whiteSpace=wrap;rounded=0;fontSize=16;fontStyle=1" vertex="1" parent="hsiUXaVb7k5W9dYGmore-1">
          <mxGeometry x="417" y="270" width="50" height="30" as="geometry" />
        </mxCell>
        <mxCell id="hsiUXaVb7k5W9dYGmore-28" value="" style="endArrow=classic;html=1;rounded=0;exitX=0.25;exitY=1;exitDx=0;exitDy=0;entryX=1;entryY=0.5;entryDx=0;entryDy=0;" edge="1" parent="hsiUXaVb7k5W9dYGmore-1" source="hsiUXaVb7k5W9dYGmore-27" target="hsiUXaVb7k5W9dYGmore-24">
          <mxGeometry width="50" height="50" relative="1" as="geometry">
            <mxPoint x="390" y="430" as="sourcePoint" />
            <mxPoint x="440" y="380" as="targetPoint" />
          </mxGeometry>
        </mxCell>
      </root>
    </mxGraphModel>
  </diagram>
  <diagram name="15" id="YbsZKenBOU3T7RGlbEJm">
    <mxGraphModel dx="1434" dy="780" grid="1" gridSize="10" guides="1" tooltips="1" connect="1" arrows="1" fold="1" page="1" pageScale="1" pageWidth="827" pageHeight="1169" math="0" shadow="0">
      <root>
        <mxCell id="yiCt4JCcUBEE6EGX1Y_2-0" />
        <mxCell id="yiCt4JCcUBEE6EGX1Y_2-1" parent="yiCt4JCcUBEE6EGX1Y_2-0" />
        <mxCell id="yiCt4JCcUBEE6EGX1Y_2-2" value="Tamanho = 6" style="text;html=1;align=center;verticalAlign=middle;whiteSpace=wrap;rounded=0;fontSize=16;fontStyle=1" vertex="1" parent="yiCt4JCcUBEE6EGX1Y_2-1">
          <mxGeometry x="361" y="50" width="106" height="30" as="geometry" />
        </mxCell>
        <mxCell id="yiCt4JCcUBEE6EGX1Y_2-3" value="Remove 4" style="rounded=1;whiteSpace=wrap;html=1;fontSize=16;" vertex="1" parent="yiCt4JCcUBEE6EGX1Y_2-1">
          <mxGeometry x="680" y="40" width="110" height="40" as="geometry" />
        </mxCell>
        <mxCell id="yiCt4JCcUBEE6EGX1Y_2-5" value="&lt;b&gt;&lt;font style=&quot;font-size: 16px;&quot;&gt;5&lt;/font&gt;&lt;/b&gt;" style="rounded=0;whiteSpace=wrap;html=1;" vertex="1" parent="yiCt4JCcUBEE6EGX1Y_2-1">
          <mxGeometry x="116" y="360" width="100" height="40" as="geometry" />
        </mxCell>
        <mxCell id="yiCt4JCcUBEE6EGX1Y_2-6" value="5" style="text;html=1;align=center;verticalAlign=middle;whiteSpace=wrap;rounded=0;fontSize=16;fontStyle=1" vertex="1" parent="yiCt4JCcUBEE6EGX1Y_2-1">
          <mxGeometry x="100" y="365" width="16" height="30" as="geometry" />
        </mxCell>
        <mxCell id="yiCt4JCcUBEE6EGX1Y_2-7" value="40" style="rounded=0;whiteSpace=wrap;html=1;fontStyle=1;fontSize=16;" vertex="1" parent="yiCt4JCcUBEE6EGX1Y_2-1">
          <mxGeometry x="116" y="320" width="100" height="40" as="geometry" />
        </mxCell>
        <mxCell id="yiCt4JCcUBEE6EGX1Y_2-8" value="4" style="text;html=1;align=center;verticalAlign=middle;whiteSpace=wrap;rounded=0;fontSize=16;fontStyle=1" vertex="1" parent="yiCt4JCcUBEE6EGX1Y_2-1">
          <mxGeometry x="100" y="325" width="16" height="30" as="geometry" />
        </mxCell>
        <mxCell id="yiCt4JCcUBEE6EGX1Y_2-9" value="33" style="rounded=0;whiteSpace=wrap;html=1;fontStyle=1;fontSize=16;" vertex="1" parent="yiCt4JCcUBEE6EGX1Y_2-1">
          <mxGeometry x="116" y="280" width="100" height="40" as="geometry" />
        </mxCell>
        <mxCell id="yiCt4JCcUBEE6EGX1Y_2-10" value="3" style="text;html=1;align=center;verticalAlign=middle;whiteSpace=wrap;rounded=0;fontSize=16;fontStyle=1" vertex="1" parent="yiCt4JCcUBEE6EGX1Y_2-1">
          <mxGeometry x="100" y="285" width="16" height="30" as="geometry" />
        </mxCell>
        <mxCell id="yiCt4JCcUBEE6EGX1Y_2-11" value="&lt;b&gt;&lt;font style=&quot;font-size: 16px;&quot;&gt;8&lt;/font&gt;&lt;/b&gt;" style="rounded=0;whiteSpace=wrap;html=1;" vertex="1" parent="yiCt4JCcUBEE6EGX1Y_2-1">
          <mxGeometry x="116" y="240" width="100" height="40" as="geometry" />
        </mxCell>
        <mxCell id="yiCt4JCcUBEE6EGX1Y_2-12" value="2" style="text;html=1;align=center;verticalAlign=middle;whiteSpace=wrap;rounded=0;fontSize=16;fontStyle=1" vertex="1" parent="yiCt4JCcUBEE6EGX1Y_2-1">
          <mxGeometry x="100" y="245" width="16" height="30" as="geometry" />
        </mxCell>
        <mxCell id="yiCt4JCcUBEE6EGX1Y_2-13" value="1" style="text;html=1;align=center;verticalAlign=middle;whiteSpace=wrap;rounded=0;fontSize=16;fontStyle=1" vertex="1" parent="yiCt4JCcUBEE6EGX1Y_2-1">
          <mxGeometry x="100" y="205" width="16" height="30" as="geometry" />
        </mxCell>
        <mxCell id="yiCt4JCcUBEE6EGX1Y_2-14" value="60" style="rounded=0;whiteSpace=wrap;html=1;fontStyle=1;fontSize=16;" vertex="1" parent="yiCt4JCcUBEE6EGX1Y_2-1">
          <mxGeometry x="116" y="160" width="100" height="40" as="geometry" />
        </mxCell>
        <mxCell id="yiCt4JCcUBEE6EGX1Y_2-15" value="0" style="text;html=1;align=center;verticalAlign=middle;whiteSpace=wrap;rounded=0;fontSize=16;fontStyle=1" vertex="1" parent="yiCt4JCcUBEE6EGX1Y_2-1">
          <mxGeometry x="100" y="165" width="16" height="30" as="geometry" />
        </mxCell>
        <mxCell id="yiCt4JCcUBEE6EGX1Y_2-16" value="49" style="rounded=0;whiteSpace=wrap;html=1;fontStyle=1;fontSize=16;" vertex="1" parent="yiCt4JCcUBEE6EGX1Y_2-1">
          <mxGeometry x="116" y="200" width="100" height="40" as="geometry" />
        </mxCell>
        <mxCell id="yiCt4JCcUBEE6EGX1Y_2-17" value="" style="endArrow=classic;html=1;rounded=0;exitX=1;exitY=0.5;exitDx=0;exitDy=0;entryX=0;entryY=0.5;entryDx=0;entryDy=0;" edge="1" parent="yiCt4JCcUBEE6EGX1Y_2-1" source="yiCt4JCcUBEE6EGX1Y_2-16">
          <mxGeometry width="50" height="50" relative="1" as="geometry">
            <mxPoint x="390" y="430" as="sourcePoint" />
            <mxPoint x="261" y="220" as="targetPoint" />
          </mxGeometry>
        </mxCell>
        <mxCell id="yiCt4JCcUBEE6EGX1Y_2-18" value="7" style="rounded=0;whiteSpace=wrap;html=1;fontStyle=1;fontSize=16;" vertex="1" parent="yiCt4JCcUBEE6EGX1Y_2-1">
          <mxGeometry x="260" y="200" width="100" height="40" as="geometry" />
        </mxCell>
        <mxCell id="yiCt4JCcUBEE6EGX1Y_2-19" value="13" style="rounded=0;whiteSpace=wrap;html=1;fontStyle=1;fontSize=16;" vertex="1" parent="yiCt4JCcUBEE6EGX1Y_2-1">
          <mxGeometry x="405" y="200" width="100" height="40" as="geometry" />
        </mxCell>
        <mxCell id="yiCt4JCcUBEE6EGX1Y_2-20" value="" style="endArrow=classic;html=1;rounded=0;exitX=1;exitY=0.5;exitDx=0;exitDy=0;entryX=0;entryY=0.5;entryDx=0;entryDy=0;" edge="1" parent="yiCt4JCcUBEE6EGX1Y_2-1" source="yiCt4JCcUBEE6EGX1Y_2-18" target="yiCt4JCcUBEE6EGX1Y_2-19">
          <mxGeometry width="50" height="50" relative="1" as="geometry">
            <mxPoint x="534" y="430" as="sourcePoint" />
            <mxPoint x="414" y="220" as="targetPoint" />
          </mxGeometry>
        </mxCell>
        <mxCell id="yiCt4JCcUBEE6EGX1Y_2-21" value="" style="endArrow=classic;html=1;rounded=0;exitX=1;exitY=0.5;exitDx=0;exitDy=0;entryX=0;entryY=0.5;entryDx=0;entryDy=0;" edge="1" parent="yiCt4JCcUBEE6EGX1Y_2-1">
          <mxGeometry width="50" height="50" relative="1" as="geometry">
            <mxPoint x="216" y="299.5" as="sourcePoint" />
            <mxPoint x="261" y="299.5" as="targetPoint" />
          </mxGeometry>
        </mxCell>
        <mxCell id="yiCt4JCcUBEE6EGX1Y_2-22" value="21" style="rounded=0;whiteSpace=wrap;html=1;fontStyle=1;fontSize=16;" vertex="1" parent="yiCt4JCcUBEE6EGX1Y_2-1">
          <mxGeometry x="260" y="280" width="100" height="40" as="geometry" />
        </mxCell>
        <mxCell id="yiCt4JCcUBEE6EGX1Y_2-23" value="" style="endArrow=classic;html=1;rounded=0;exitX=1;exitY=0.5;exitDx=0;exitDy=0;entryX=0;entryY=0.5;entryDx=0;entryDy=0;" edge="1" parent="yiCt4JCcUBEE6EGX1Y_2-1">
          <mxGeometry width="50" height="50" relative="1" as="geometry">
            <mxPoint x="216" y="339.5" as="sourcePoint" />
            <mxPoint x="261" y="339.5" as="targetPoint" />
          </mxGeometry>
        </mxCell>
        <mxCell id="yiCt4JCcUBEE6EGX1Y_2-24" value="4" style="rounded=0;whiteSpace=wrap;html=1;fontStyle=1;fontSize=16;" vertex="1" parent="yiCt4JCcUBEE6EGX1Y_2-1">
          <mxGeometry x="392" y="320" width="100" height="40" as="geometry" />
        </mxCell>
        <mxCell id="yiCt4JCcUBEE6EGX1Y_2-25" value="" style="endArrow=classic;html=1;rounded=0;exitX=1;exitY=0.5;exitDx=0;exitDy=0;entryX=0;entryY=0.5;entryDx=0;entryDy=0;" edge="1" parent="yiCt4JCcUBEE6EGX1Y_2-1">
          <mxGeometry width="50" height="50" relative="1" as="geometry">
            <mxPoint x="216" y="379.5" as="sourcePoint" />
            <mxPoint x="261" y="379.5" as="targetPoint" />
          </mxGeometry>
        </mxCell>
        <mxCell id="yiCt4JCcUBEE6EGX1Y_2-26" value="&lt;b&gt;&lt;font style=&quot;font-size: 16px;&quot;&gt;11&lt;/font&gt;&lt;/b&gt;" style="rounded=0;whiteSpace=wrap;html=1;" vertex="1" parent="yiCt4JCcUBEE6EGX1Y_2-1">
          <mxGeometry x="260" y="360" width="100" height="40" as="geometry" />
        </mxCell>
        <mxCell id="yiCt4JCcUBEE6EGX1Y_2-27" value="AUX" style="text;html=1;align=center;verticalAlign=middle;whiteSpace=wrap;rounded=0;fontSize=16;fontStyle=1" vertex="1" parent="yiCt4JCcUBEE6EGX1Y_2-1">
          <mxGeometry x="417" y="270" width="50" height="30" as="geometry" />
        </mxCell>
        <mxCell id="yiCt4JCcUBEE6EGX1Y_2-28" value="" style="endArrow=classic;html=1;rounded=0;entryX=0.5;entryY=0;entryDx=0;entryDy=0;" edge="1" parent="yiCt4JCcUBEE6EGX1Y_2-1" source="yiCt4JCcUBEE6EGX1Y_2-27" target="yiCt4JCcUBEE6EGX1Y_2-24">
          <mxGeometry width="50" height="50" relative="1" as="geometry">
            <mxPoint x="390" y="430" as="sourcePoint" />
            <mxPoint x="440" y="380" as="targetPoint" />
          </mxGeometry>
        </mxCell>
        <mxCell id="Wg7eOT4vLXPUXh4klfKC-1" value="null" style="text;html=1;align=center;verticalAlign=middle;whiteSpace=wrap;rounded=0;fontSize=16;fontStyle=1" vertex="1" parent="yiCt4JCcUBEE6EGX1Y_2-1">
          <mxGeometry x="260" y="325" width="40" height="30" as="geometry" />
        </mxCell>
      </root>
    </mxGraphModel>
  </diagram>
  <diagram name="16" id="F7ZPgRYU9-8lHmnRC7Ro">
    <mxGraphModel dx="1434" dy="780" grid="1" gridSize="10" guides="1" tooltips="1" connect="1" arrows="1" fold="1" page="1" pageScale="1" pageWidth="827" pageHeight="1169" math="0" shadow="0">
      <root>
        <mxCell id="M7pFshxMiu9L15GMkJXV-0" />
        <mxCell id="M7pFshxMiu9L15GMkJXV-1" parent="M7pFshxMiu9L15GMkJXV-0" />
        <mxCell id="M7pFshxMiu9L15GMkJXV-2" value="Tamanho = 6" style="text;html=1;align=center;verticalAlign=middle;whiteSpace=wrap;rounded=0;fontSize=16;fontStyle=1" vertex="1" parent="M7pFshxMiu9L15GMkJXV-1">
          <mxGeometry x="361" y="50" width="106" height="30" as="geometry" />
        </mxCell>
        <mxCell id="M7pFshxMiu9L15GMkJXV-3" value="Remove 4" style="rounded=1;whiteSpace=wrap;html=1;fontSize=16;" vertex="1" parent="M7pFshxMiu9L15GMkJXV-1">
          <mxGeometry x="680" y="40" width="110" height="40" as="geometry" />
        </mxCell>
        <mxCell id="M7pFshxMiu9L15GMkJXV-4" value="&lt;b&gt;&lt;font style=&quot;font-size: 16px;&quot;&gt;5&lt;/font&gt;&lt;/b&gt;" style="rounded=0;whiteSpace=wrap;html=1;" vertex="1" parent="M7pFshxMiu9L15GMkJXV-1">
          <mxGeometry x="116" y="360" width="100" height="40" as="geometry" />
        </mxCell>
        <mxCell id="M7pFshxMiu9L15GMkJXV-5" value="5" style="text;html=1;align=center;verticalAlign=middle;whiteSpace=wrap;rounded=0;fontSize=16;fontStyle=1" vertex="1" parent="M7pFshxMiu9L15GMkJXV-1">
          <mxGeometry x="100" y="365" width="16" height="30" as="geometry" />
        </mxCell>
        <mxCell id="M7pFshxMiu9L15GMkJXV-6" value="40" style="rounded=0;whiteSpace=wrap;html=1;fontStyle=1;fontSize=16;" vertex="1" parent="M7pFshxMiu9L15GMkJXV-1">
          <mxGeometry x="116" y="320" width="100" height="40" as="geometry" />
        </mxCell>
        <mxCell id="M7pFshxMiu9L15GMkJXV-7" value="4" style="text;html=1;align=center;verticalAlign=middle;whiteSpace=wrap;rounded=0;fontSize=16;fontStyle=1" vertex="1" parent="M7pFshxMiu9L15GMkJXV-1">
          <mxGeometry x="100" y="325" width="16" height="30" as="geometry" />
        </mxCell>
        <mxCell id="M7pFshxMiu9L15GMkJXV-8" value="33" style="rounded=0;whiteSpace=wrap;html=1;fontStyle=1;fontSize=16;" vertex="1" parent="M7pFshxMiu9L15GMkJXV-1">
          <mxGeometry x="116" y="280" width="100" height="40" as="geometry" />
        </mxCell>
        <mxCell id="M7pFshxMiu9L15GMkJXV-9" value="3" style="text;html=1;align=center;verticalAlign=middle;whiteSpace=wrap;rounded=0;fontSize=16;fontStyle=1" vertex="1" parent="M7pFshxMiu9L15GMkJXV-1">
          <mxGeometry x="100" y="285" width="16" height="30" as="geometry" />
        </mxCell>
        <mxCell id="M7pFshxMiu9L15GMkJXV-10" value="&lt;b&gt;&lt;font style=&quot;font-size: 16px;&quot;&gt;8&lt;/font&gt;&lt;/b&gt;" style="rounded=0;whiteSpace=wrap;html=1;" vertex="1" parent="M7pFshxMiu9L15GMkJXV-1">
          <mxGeometry x="116" y="240" width="100" height="40" as="geometry" />
        </mxCell>
        <mxCell id="M7pFshxMiu9L15GMkJXV-11" value="2" style="text;html=1;align=center;verticalAlign=middle;whiteSpace=wrap;rounded=0;fontSize=16;fontStyle=1" vertex="1" parent="M7pFshxMiu9L15GMkJXV-1">
          <mxGeometry x="100" y="245" width="16" height="30" as="geometry" />
        </mxCell>
        <mxCell id="M7pFshxMiu9L15GMkJXV-12" value="1" style="text;html=1;align=center;verticalAlign=middle;whiteSpace=wrap;rounded=0;fontSize=16;fontStyle=1" vertex="1" parent="M7pFshxMiu9L15GMkJXV-1">
          <mxGeometry x="100" y="205" width="16" height="30" as="geometry" />
        </mxCell>
        <mxCell id="M7pFshxMiu9L15GMkJXV-13" value="60" style="rounded=0;whiteSpace=wrap;html=1;fontStyle=1;fontSize=16;" vertex="1" parent="M7pFshxMiu9L15GMkJXV-1">
          <mxGeometry x="116" y="160" width="100" height="40" as="geometry" />
        </mxCell>
        <mxCell id="M7pFshxMiu9L15GMkJXV-14" value="0" style="text;html=1;align=center;verticalAlign=middle;whiteSpace=wrap;rounded=0;fontSize=16;fontStyle=1" vertex="1" parent="M7pFshxMiu9L15GMkJXV-1">
          <mxGeometry x="100" y="165" width="16" height="30" as="geometry" />
        </mxCell>
        <mxCell id="M7pFshxMiu9L15GMkJXV-15" value="49" style="rounded=0;whiteSpace=wrap;html=1;fontStyle=1;fontSize=16;" vertex="1" parent="M7pFshxMiu9L15GMkJXV-1">
          <mxGeometry x="116" y="200" width="100" height="40" as="geometry" />
        </mxCell>
        <mxCell id="M7pFshxMiu9L15GMkJXV-16" value="" style="endArrow=classic;html=1;rounded=0;exitX=1;exitY=0.5;exitDx=0;exitDy=0;entryX=0;entryY=0.5;entryDx=0;entryDy=0;" edge="1" parent="M7pFshxMiu9L15GMkJXV-1" source="M7pFshxMiu9L15GMkJXV-15">
          <mxGeometry width="50" height="50" relative="1" as="geometry">
            <mxPoint x="390" y="430" as="sourcePoint" />
            <mxPoint x="261" y="220" as="targetPoint" />
          </mxGeometry>
        </mxCell>
        <mxCell id="M7pFshxMiu9L15GMkJXV-17" value="7" style="rounded=0;whiteSpace=wrap;html=1;fontStyle=1;fontSize=16;" vertex="1" parent="M7pFshxMiu9L15GMkJXV-1">
          <mxGeometry x="260" y="200" width="100" height="40" as="geometry" />
        </mxCell>
        <mxCell id="M7pFshxMiu9L15GMkJXV-18" value="13" style="rounded=0;whiteSpace=wrap;html=1;fontStyle=1;fontSize=16;" vertex="1" parent="M7pFshxMiu9L15GMkJXV-1">
          <mxGeometry x="405" y="200" width="100" height="40" as="geometry" />
        </mxCell>
        <mxCell id="M7pFshxMiu9L15GMkJXV-19" value="" style="endArrow=classic;html=1;rounded=0;exitX=1;exitY=0.5;exitDx=0;exitDy=0;entryX=0;entryY=0.5;entryDx=0;entryDy=0;" edge="1" parent="M7pFshxMiu9L15GMkJXV-1" source="M7pFshxMiu9L15GMkJXV-17" target="M7pFshxMiu9L15GMkJXV-18">
          <mxGeometry width="50" height="50" relative="1" as="geometry">
            <mxPoint x="534" y="430" as="sourcePoint" />
            <mxPoint x="414" y="220" as="targetPoint" />
          </mxGeometry>
        </mxCell>
        <mxCell id="M7pFshxMiu9L15GMkJXV-20" value="" style="endArrow=classic;html=1;rounded=0;exitX=1;exitY=0.5;exitDx=0;exitDy=0;entryX=0;entryY=0.5;entryDx=0;entryDy=0;" edge="1" parent="M7pFshxMiu9L15GMkJXV-1">
          <mxGeometry width="50" height="50" relative="1" as="geometry">
            <mxPoint x="216" y="299.5" as="sourcePoint" />
            <mxPoint x="261" y="299.5" as="targetPoint" />
          </mxGeometry>
        </mxCell>
        <mxCell id="M7pFshxMiu9L15GMkJXV-21" value="21" style="rounded=0;whiteSpace=wrap;html=1;fontStyle=1;fontSize=16;" vertex="1" parent="M7pFshxMiu9L15GMkJXV-1">
          <mxGeometry x="260" y="280" width="100" height="40" as="geometry" />
        </mxCell>
        <mxCell id="M7pFshxMiu9L15GMkJXV-22" value="" style="endArrow=classic;html=1;rounded=0;exitX=1;exitY=0.5;exitDx=0;exitDy=0;entryX=0;entryY=0.5;entryDx=0;entryDy=0;" edge="1" parent="M7pFshxMiu9L15GMkJXV-1">
          <mxGeometry width="50" height="50" relative="1" as="geometry">
            <mxPoint x="216" y="339.5" as="sourcePoint" />
            <mxPoint x="261" y="339.5" as="targetPoint" />
          </mxGeometry>
        </mxCell>
        <mxCell id="M7pFshxMiu9L15GMkJXV-23" value="4" style="rounded=0;whiteSpace=wrap;html=1;fontStyle=1;fontSize=16;" vertex="1" parent="M7pFshxMiu9L15GMkJXV-1">
          <mxGeometry x="392" y="320" width="100" height="40" as="geometry" />
        </mxCell>
        <mxCell id="M7pFshxMiu9L15GMkJXV-24" value="" style="endArrow=classic;html=1;rounded=0;exitX=1;exitY=0.5;exitDx=0;exitDy=0;entryX=0;entryY=0.5;entryDx=0;entryDy=0;" edge="1" parent="M7pFshxMiu9L15GMkJXV-1">
          <mxGeometry width="50" height="50" relative="1" as="geometry">
            <mxPoint x="216" y="379.5" as="sourcePoint" />
            <mxPoint x="261" y="379.5" as="targetPoint" />
          </mxGeometry>
        </mxCell>
        <mxCell id="M7pFshxMiu9L15GMkJXV-25" value="&lt;b&gt;&lt;font style=&quot;font-size: 16px;&quot;&gt;11&lt;/font&gt;&lt;/b&gt;" style="rounded=0;whiteSpace=wrap;html=1;" vertex="1" parent="M7pFshxMiu9L15GMkJXV-1">
          <mxGeometry x="260" y="360" width="100" height="40" as="geometry" />
        </mxCell>
        <mxCell id="M7pFshxMiu9L15GMkJXV-26" value="AUX" style="text;html=1;align=center;verticalAlign=middle;whiteSpace=wrap;rounded=0;fontSize=16;fontStyle=1" vertex="1" parent="M7pFshxMiu9L15GMkJXV-1">
          <mxGeometry x="417" y="270" width="50" height="30" as="geometry" />
        </mxCell>
        <mxCell id="M7pFshxMiu9L15GMkJXV-27" value="" style="endArrow=classic;html=1;rounded=0;entryX=0.5;entryY=0;entryDx=0;entryDy=0;" edge="1" parent="M7pFshxMiu9L15GMkJXV-1" source="M7pFshxMiu9L15GMkJXV-26" target="M7pFshxMiu9L15GMkJXV-23">
          <mxGeometry width="50" height="50" relative="1" as="geometry">
            <mxPoint x="390" y="430" as="sourcePoint" />
            <mxPoint x="440" y="380" as="targetPoint" />
          </mxGeometry>
        </mxCell>
        <mxCell id="M7pFshxMiu9L15GMkJXV-28" value="null" style="text;html=1;align=center;verticalAlign=middle;whiteSpace=wrap;rounded=0;fontSize=16;fontStyle=1" vertex="1" parent="M7pFshxMiu9L15GMkJXV-1">
          <mxGeometry x="260" y="325" width="40" height="30" as="geometry" />
        </mxCell>
        <mxCell id="wFewOgUvX2hGJYiqmVka-0" value="" style="shape=cross;whiteSpace=wrap;html=1;rotation=45;fillColor=#fad9d5;strokeColor=#ae4132;" vertex="1" parent="M7pFshxMiu9L15GMkJXV-1">
          <mxGeometry x="402" y="300" width="80" height="80" as="geometry" />
        </mxCell>
      </root>
    </mxGraphModel>
  </diagram>
  <diagram name="17" id="A4vWEs5QmEaBaetocseX">
    <mxGraphModel dx="1434" dy="780" grid="1" gridSize="10" guides="1" tooltips="1" connect="1" arrows="1" fold="1" page="1" pageScale="1" pageWidth="827" pageHeight="1169" math="0" shadow="0">
      <root>
        <mxCell id="hZvdz9Jt5MuSoXy1m30G-0" />
        <mxCell id="hZvdz9Jt5MuSoXy1m30G-1" parent="hZvdz9Jt5MuSoXy1m30G-0" />
        <mxCell id="hZvdz9Jt5MuSoXy1m30G-2" value="Tamanho = 6" style="text;html=1;align=center;verticalAlign=middle;whiteSpace=wrap;rounded=0;fontSize=16;fontStyle=1" vertex="1" parent="hZvdz9Jt5MuSoXy1m30G-1">
          <mxGeometry x="361" y="50" width="106" height="30" as="geometry" />
        </mxCell>
        <mxCell id="hZvdz9Jt5MuSoXy1m30G-3" value="Remove 4" style="rounded=1;whiteSpace=wrap;html=1;fontSize=16;" vertex="1" parent="hZvdz9Jt5MuSoXy1m30G-1">
          <mxGeometry x="680" y="40" width="110" height="40" as="geometry" />
        </mxCell>
        <mxCell id="hZvdz9Jt5MuSoXy1m30G-4" value="&lt;b&gt;&lt;font style=&quot;font-size: 16px;&quot;&gt;5&lt;/font&gt;&lt;/b&gt;" style="rounded=0;whiteSpace=wrap;html=1;" vertex="1" parent="hZvdz9Jt5MuSoXy1m30G-1">
          <mxGeometry x="116" y="360" width="100" height="40" as="geometry" />
        </mxCell>
        <mxCell id="hZvdz9Jt5MuSoXy1m30G-5" value="5" style="text;html=1;align=center;verticalAlign=middle;whiteSpace=wrap;rounded=0;fontSize=16;fontStyle=1" vertex="1" parent="hZvdz9Jt5MuSoXy1m30G-1">
          <mxGeometry x="100" y="365" width="16" height="30" as="geometry" />
        </mxCell>
        <mxCell id="hZvdz9Jt5MuSoXy1m30G-6" value="40" style="rounded=0;whiteSpace=wrap;html=1;fontStyle=1;fontSize=16;" vertex="1" parent="hZvdz9Jt5MuSoXy1m30G-1">
          <mxGeometry x="116" y="320" width="100" height="40" as="geometry" />
        </mxCell>
        <mxCell id="hZvdz9Jt5MuSoXy1m30G-7" value="4" style="text;html=1;align=center;verticalAlign=middle;whiteSpace=wrap;rounded=0;fontSize=16;fontStyle=1" vertex="1" parent="hZvdz9Jt5MuSoXy1m30G-1">
          <mxGeometry x="100" y="325" width="16" height="30" as="geometry" />
        </mxCell>
        <mxCell id="hZvdz9Jt5MuSoXy1m30G-8" value="33" style="rounded=0;whiteSpace=wrap;html=1;fontStyle=1;fontSize=16;" vertex="1" parent="hZvdz9Jt5MuSoXy1m30G-1">
          <mxGeometry x="116" y="280" width="100" height="40" as="geometry" />
        </mxCell>
        <mxCell id="hZvdz9Jt5MuSoXy1m30G-9" value="3" style="text;html=1;align=center;verticalAlign=middle;whiteSpace=wrap;rounded=0;fontSize=16;fontStyle=1" vertex="1" parent="hZvdz9Jt5MuSoXy1m30G-1">
          <mxGeometry x="100" y="285" width="16" height="30" as="geometry" />
        </mxCell>
        <mxCell id="hZvdz9Jt5MuSoXy1m30G-10" value="&lt;b&gt;&lt;font style=&quot;font-size: 16px;&quot;&gt;8&lt;/font&gt;&lt;/b&gt;" style="rounded=0;whiteSpace=wrap;html=1;" vertex="1" parent="hZvdz9Jt5MuSoXy1m30G-1">
          <mxGeometry x="116" y="240" width="100" height="40" as="geometry" />
        </mxCell>
        <mxCell id="hZvdz9Jt5MuSoXy1m30G-11" value="2" style="text;html=1;align=center;verticalAlign=middle;whiteSpace=wrap;rounded=0;fontSize=16;fontStyle=1" vertex="1" parent="hZvdz9Jt5MuSoXy1m30G-1">
          <mxGeometry x="100" y="245" width="16" height="30" as="geometry" />
        </mxCell>
        <mxCell id="hZvdz9Jt5MuSoXy1m30G-12" value="1" style="text;html=1;align=center;verticalAlign=middle;whiteSpace=wrap;rounded=0;fontSize=16;fontStyle=1" vertex="1" parent="hZvdz9Jt5MuSoXy1m30G-1">
          <mxGeometry x="100" y="205" width="16" height="30" as="geometry" />
        </mxCell>
        <mxCell id="hZvdz9Jt5MuSoXy1m30G-13" value="60" style="rounded=0;whiteSpace=wrap;html=1;fontStyle=1;fontSize=16;" vertex="1" parent="hZvdz9Jt5MuSoXy1m30G-1">
          <mxGeometry x="116" y="160" width="100" height="40" as="geometry" />
        </mxCell>
        <mxCell id="hZvdz9Jt5MuSoXy1m30G-14" value="0" style="text;html=1;align=center;verticalAlign=middle;whiteSpace=wrap;rounded=0;fontSize=16;fontStyle=1" vertex="1" parent="hZvdz9Jt5MuSoXy1m30G-1">
          <mxGeometry x="100" y="165" width="16" height="30" as="geometry" />
        </mxCell>
        <mxCell id="hZvdz9Jt5MuSoXy1m30G-15" value="49" style="rounded=0;whiteSpace=wrap;html=1;fontStyle=1;fontSize=16;" vertex="1" parent="hZvdz9Jt5MuSoXy1m30G-1">
          <mxGeometry x="116" y="200" width="100" height="40" as="geometry" />
        </mxCell>
        <mxCell id="hZvdz9Jt5MuSoXy1m30G-16" value="" style="endArrow=classic;html=1;rounded=0;exitX=1;exitY=0.5;exitDx=0;exitDy=0;entryX=0;entryY=0.5;entryDx=0;entryDy=0;" edge="1" parent="hZvdz9Jt5MuSoXy1m30G-1" source="hZvdz9Jt5MuSoXy1m30G-15">
          <mxGeometry width="50" height="50" relative="1" as="geometry">
            <mxPoint x="390" y="430" as="sourcePoint" />
            <mxPoint x="261" y="220" as="targetPoint" />
          </mxGeometry>
        </mxCell>
        <mxCell id="hZvdz9Jt5MuSoXy1m30G-17" value="7" style="rounded=0;whiteSpace=wrap;html=1;fontStyle=1;fontSize=16;" vertex="1" parent="hZvdz9Jt5MuSoXy1m30G-1">
          <mxGeometry x="260" y="200" width="100" height="40" as="geometry" />
        </mxCell>
        <mxCell id="hZvdz9Jt5MuSoXy1m30G-18" value="13" style="rounded=0;whiteSpace=wrap;html=1;fontStyle=1;fontSize=16;" vertex="1" parent="hZvdz9Jt5MuSoXy1m30G-1">
          <mxGeometry x="405" y="200" width="100" height="40" as="geometry" />
        </mxCell>
        <mxCell id="hZvdz9Jt5MuSoXy1m30G-19" value="" style="endArrow=classic;html=1;rounded=0;exitX=1;exitY=0.5;exitDx=0;exitDy=0;entryX=0;entryY=0.5;entryDx=0;entryDy=0;" edge="1" parent="hZvdz9Jt5MuSoXy1m30G-1" source="hZvdz9Jt5MuSoXy1m30G-17" target="hZvdz9Jt5MuSoXy1m30G-18">
          <mxGeometry width="50" height="50" relative="1" as="geometry">
            <mxPoint x="534" y="430" as="sourcePoint" />
            <mxPoint x="414" y="220" as="targetPoint" />
          </mxGeometry>
        </mxCell>
        <mxCell id="hZvdz9Jt5MuSoXy1m30G-20" value="" style="endArrow=classic;html=1;rounded=0;exitX=1;exitY=0.5;exitDx=0;exitDy=0;entryX=0;entryY=0.5;entryDx=0;entryDy=0;" edge="1" parent="hZvdz9Jt5MuSoXy1m30G-1">
          <mxGeometry width="50" height="50" relative="1" as="geometry">
            <mxPoint x="216" y="299.5" as="sourcePoint" />
            <mxPoint x="261" y="299.5" as="targetPoint" />
          </mxGeometry>
        </mxCell>
        <mxCell id="hZvdz9Jt5MuSoXy1m30G-21" value="21" style="rounded=0;whiteSpace=wrap;html=1;fontStyle=1;fontSize=16;" vertex="1" parent="hZvdz9Jt5MuSoXy1m30G-1">
          <mxGeometry x="260" y="280" width="100" height="40" as="geometry" />
        </mxCell>
        <mxCell id="hZvdz9Jt5MuSoXy1m30G-24" value="" style="endArrow=classic;html=1;rounded=0;exitX=1;exitY=0.5;exitDx=0;exitDy=0;entryX=0;entryY=0.5;entryDx=0;entryDy=0;" edge="1" parent="hZvdz9Jt5MuSoXy1m30G-1">
          <mxGeometry width="50" height="50" relative="1" as="geometry">
            <mxPoint x="216" y="379.5" as="sourcePoint" />
            <mxPoint x="261" y="379.5" as="targetPoint" />
          </mxGeometry>
        </mxCell>
        <mxCell id="hZvdz9Jt5MuSoXy1m30G-25" value="&lt;b&gt;&lt;font style=&quot;font-size: 16px;&quot;&gt;11&lt;/font&gt;&lt;/b&gt;" style="rounded=0;whiteSpace=wrap;html=1;" vertex="1" parent="hZvdz9Jt5MuSoXy1m30G-1">
          <mxGeometry x="260" y="360" width="100" height="40" as="geometry" />
        </mxCell>
      </root>
    </mxGraphModel>
  </diagram>
  <diagram name="18" id="LL5b0ibwaatr12SMNDZH">
    <mxGraphModel dx="1434" dy="780" grid="1" gridSize="10" guides="1" tooltips="1" connect="1" arrows="1" fold="1" page="1" pageScale="1" pageWidth="827" pageHeight="1169" math="0" shadow="0">
      <root>
        <mxCell id="8Bemq3z64cCaNPJe0oOz-0" />
        <mxCell id="8Bemq3z64cCaNPJe0oOz-1" parent="8Bemq3z64cCaNPJe0oOz-0" />
        <mxCell id="8Bemq3z64cCaNPJe0oOz-2" value="Tamanho = 6" style="text;html=1;align=center;verticalAlign=middle;whiteSpace=wrap;rounded=0;fontSize=16;fontStyle=1" vertex="1" parent="8Bemq3z64cCaNPJe0oOz-1">
          <mxGeometry x="361" y="50" width="106" height="30" as="geometry" />
        </mxCell>
        <mxCell id="8Bemq3z64cCaNPJe0oOz-3" value="Remove 11" style="rounded=1;whiteSpace=wrap;html=1;fontSize=16;" vertex="1" parent="8Bemq3z64cCaNPJe0oOz-1">
          <mxGeometry x="680" y="40" width="110" height="40" as="geometry" />
        </mxCell>
        <mxCell id="8Bemq3z64cCaNPJe0oOz-4" value="&lt;b&gt;&lt;font style=&quot;font-size: 16px;&quot;&gt;5&lt;/font&gt;&lt;/b&gt;" style="rounded=0;whiteSpace=wrap;html=1;" vertex="1" parent="8Bemq3z64cCaNPJe0oOz-1">
          <mxGeometry x="116" y="360" width="100" height="40" as="geometry" />
        </mxCell>
        <mxCell id="8Bemq3z64cCaNPJe0oOz-5" value="5" style="text;html=1;align=center;verticalAlign=middle;whiteSpace=wrap;rounded=0;fontSize=16;fontStyle=1" vertex="1" parent="8Bemq3z64cCaNPJe0oOz-1">
          <mxGeometry x="100" y="365" width="16" height="30" as="geometry" />
        </mxCell>
        <mxCell id="8Bemq3z64cCaNPJe0oOz-6" value="40" style="rounded=0;whiteSpace=wrap;html=1;fontStyle=1;fontSize=16;" vertex="1" parent="8Bemq3z64cCaNPJe0oOz-1">
          <mxGeometry x="116" y="320" width="100" height="40" as="geometry" />
        </mxCell>
        <mxCell id="8Bemq3z64cCaNPJe0oOz-7" value="4" style="text;html=1;align=center;verticalAlign=middle;whiteSpace=wrap;rounded=0;fontSize=16;fontStyle=1" vertex="1" parent="8Bemq3z64cCaNPJe0oOz-1">
          <mxGeometry x="100" y="325" width="16" height="30" as="geometry" />
        </mxCell>
        <mxCell id="8Bemq3z64cCaNPJe0oOz-8" value="33" style="rounded=0;whiteSpace=wrap;html=1;fontStyle=1;fontSize=16;" vertex="1" parent="8Bemq3z64cCaNPJe0oOz-1">
          <mxGeometry x="116" y="280" width="100" height="40" as="geometry" />
        </mxCell>
        <mxCell id="8Bemq3z64cCaNPJe0oOz-9" value="3" style="text;html=1;align=center;verticalAlign=middle;whiteSpace=wrap;rounded=0;fontSize=16;fontStyle=1" vertex="1" parent="8Bemq3z64cCaNPJe0oOz-1">
          <mxGeometry x="100" y="285" width="16" height="30" as="geometry" />
        </mxCell>
        <mxCell id="8Bemq3z64cCaNPJe0oOz-10" value="&lt;b&gt;&lt;font style=&quot;font-size: 16px;&quot;&gt;8&lt;/font&gt;&lt;/b&gt;" style="rounded=0;whiteSpace=wrap;html=1;" vertex="1" parent="8Bemq3z64cCaNPJe0oOz-1">
          <mxGeometry x="116" y="240" width="100" height="40" as="geometry" />
        </mxCell>
        <mxCell id="8Bemq3z64cCaNPJe0oOz-11" value="2" style="text;html=1;align=center;verticalAlign=middle;whiteSpace=wrap;rounded=0;fontSize=16;fontStyle=1" vertex="1" parent="8Bemq3z64cCaNPJe0oOz-1">
          <mxGeometry x="100" y="245" width="16" height="30" as="geometry" />
        </mxCell>
        <mxCell id="8Bemq3z64cCaNPJe0oOz-12" value="1" style="text;html=1;align=center;verticalAlign=middle;whiteSpace=wrap;rounded=0;fontSize=16;fontStyle=1" vertex="1" parent="8Bemq3z64cCaNPJe0oOz-1">
          <mxGeometry x="100" y="205" width="16" height="30" as="geometry" />
        </mxCell>
        <mxCell id="8Bemq3z64cCaNPJe0oOz-13" value="60" style="rounded=0;whiteSpace=wrap;html=1;fontStyle=1;fontSize=16;" vertex="1" parent="8Bemq3z64cCaNPJe0oOz-1">
          <mxGeometry x="116" y="160" width="100" height="40" as="geometry" />
        </mxCell>
        <mxCell id="8Bemq3z64cCaNPJe0oOz-14" value="0" style="text;html=1;align=center;verticalAlign=middle;whiteSpace=wrap;rounded=0;fontSize=16;fontStyle=1" vertex="1" parent="8Bemq3z64cCaNPJe0oOz-1">
          <mxGeometry x="100" y="165" width="16" height="30" as="geometry" />
        </mxCell>
        <mxCell id="8Bemq3z64cCaNPJe0oOz-15" value="49" style="rounded=0;whiteSpace=wrap;html=1;fontStyle=1;fontSize=16;" vertex="1" parent="8Bemq3z64cCaNPJe0oOz-1">
          <mxGeometry x="116" y="200" width="100" height="40" as="geometry" />
        </mxCell>
        <mxCell id="8Bemq3z64cCaNPJe0oOz-16" value="" style="endArrow=classic;html=1;rounded=0;exitX=1;exitY=0.5;exitDx=0;exitDy=0;entryX=0;entryY=0.5;entryDx=0;entryDy=0;" edge="1" parent="8Bemq3z64cCaNPJe0oOz-1" source="8Bemq3z64cCaNPJe0oOz-15">
          <mxGeometry width="50" height="50" relative="1" as="geometry">
            <mxPoint x="390" y="430" as="sourcePoint" />
            <mxPoint x="261" y="220" as="targetPoint" />
          </mxGeometry>
        </mxCell>
        <mxCell id="8Bemq3z64cCaNPJe0oOz-17" value="7" style="rounded=0;whiteSpace=wrap;html=1;fontStyle=1;fontSize=16;" vertex="1" parent="8Bemq3z64cCaNPJe0oOz-1">
          <mxGeometry x="260" y="200" width="100" height="40" as="geometry" />
        </mxCell>
        <mxCell id="8Bemq3z64cCaNPJe0oOz-18" value="13" style="rounded=0;whiteSpace=wrap;html=1;fontStyle=1;fontSize=16;" vertex="1" parent="8Bemq3z64cCaNPJe0oOz-1">
          <mxGeometry x="405" y="200" width="100" height="40" as="geometry" />
        </mxCell>
        <mxCell id="8Bemq3z64cCaNPJe0oOz-19" value="" style="endArrow=classic;html=1;rounded=0;exitX=1;exitY=0.5;exitDx=0;exitDy=0;entryX=0;entryY=0.5;entryDx=0;entryDy=0;" edge="1" parent="8Bemq3z64cCaNPJe0oOz-1" source="8Bemq3z64cCaNPJe0oOz-17" target="8Bemq3z64cCaNPJe0oOz-18">
          <mxGeometry width="50" height="50" relative="1" as="geometry">
            <mxPoint x="534" y="430" as="sourcePoint" />
            <mxPoint x="414" y="220" as="targetPoint" />
          </mxGeometry>
        </mxCell>
        <mxCell id="8Bemq3z64cCaNPJe0oOz-20" value="" style="endArrow=classic;html=1;rounded=0;exitX=1;exitY=0.5;exitDx=0;exitDy=0;entryX=0;entryY=0.5;entryDx=0;entryDy=0;" edge="1" parent="8Bemq3z64cCaNPJe0oOz-1">
          <mxGeometry width="50" height="50" relative="1" as="geometry">
            <mxPoint x="216" y="299.5" as="sourcePoint" />
            <mxPoint x="261" y="299.5" as="targetPoint" />
          </mxGeometry>
        </mxCell>
        <mxCell id="8Bemq3z64cCaNPJe0oOz-21" value="21" style="rounded=0;whiteSpace=wrap;html=1;fontStyle=1;fontSize=16;" vertex="1" parent="8Bemq3z64cCaNPJe0oOz-1">
          <mxGeometry x="260" y="280" width="100" height="40" as="geometry" />
        </mxCell>
        <mxCell id="8Bemq3z64cCaNPJe0oOz-22" value="" style="endArrow=classic;html=1;rounded=0;exitX=1;exitY=0.5;exitDx=0;exitDy=0;entryX=0;entryY=0.5;entryDx=0;entryDy=0;" edge="1" parent="8Bemq3z64cCaNPJe0oOz-1">
          <mxGeometry width="50" height="50" relative="1" as="geometry">
            <mxPoint x="216" y="379.5" as="sourcePoint" />
            <mxPoint x="261" y="379.5" as="targetPoint" />
          </mxGeometry>
        </mxCell>
        <mxCell id="8Bemq3z64cCaNPJe0oOz-23" value="&lt;b&gt;&lt;font style=&quot;font-size: 16px;&quot;&gt;11&lt;/font&gt;&lt;/b&gt;" style="rounded=0;whiteSpace=wrap;html=1;" vertex="1" parent="8Bemq3z64cCaNPJe0oOz-1">
          <mxGeometry x="260" y="360" width="100" height="40" as="geometry" />
        </mxCell>
        <mxCell id="MpbnflQES5i29vECUlx--0" value="posicao = 11 % 6 = 5" style="text;html=1;align=center;verticalAlign=middle;whiteSpace=wrap;rounded=0;fontSize=16;fontStyle=0" vertex="1" parent="8Bemq3z64cCaNPJe0oOz-1">
          <mxGeometry x="314" y="90" width="199" height="30" as="geometry" />
        </mxCell>
        <mxCell id="uc9LJZhVD5RKRaaocfcE-1" value="AUX" style="text;html=1;align=center;verticalAlign=middle;whiteSpace=wrap;rounded=0;fontSize=16;fontStyle=1" vertex="1" parent="8Bemq3z64cCaNPJe0oOz-1">
          <mxGeometry x="10" y="315" width="50" height="30" as="geometry" />
        </mxCell>
        <mxCell id="uc9LJZhVD5RKRaaocfcE-2" value="" style="endArrow=classic;html=1;rounded=0;exitX=0.75;exitY=1;exitDx=0;exitDy=0;entryX=0.75;entryY=0;entryDx=0;entryDy=0;" edge="1" parent="8Bemq3z64cCaNPJe0oOz-1" source="uc9LJZhVD5RKRaaocfcE-1">
          <mxGeometry width="50" height="50" relative="1" as="geometry">
            <mxPoint x="390" y="470" as="sourcePoint" />
            <mxPoint x="112" y="365" as="targetPoint" />
          </mxGeometry>
        </mxCell>
      </root>
    </mxGraphModel>
  </diagram>
  <diagram name="19" id="Zkx3JHa4rDzx3AJOT08v">
    <mxGraphModel dx="1434" dy="780" grid="1" gridSize="10" guides="1" tooltips="1" connect="1" arrows="1" fold="1" page="1" pageScale="1" pageWidth="827" pageHeight="1169" math="0" shadow="0">
      <root>
        <mxCell id="1t9QuGi2dNSSRZFsC2EF-0" />
        <mxCell id="1t9QuGi2dNSSRZFsC2EF-1" parent="1t9QuGi2dNSSRZFsC2EF-0" />
        <mxCell id="1t9QuGi2dNSSRZFsC2EF-2" value="Tamanho = 6" style="text;html=1;align=center;verticalAlign=middle;whiteSpace=wrap;rounded=0;fontSize=16;fontStyle=1" vertex="1" parent="1t9QuGi2dNSSRZFsC2EF-1">
          <mxGeometry x="361" y="50" width="106" height="30" as="geometry" />
        </mxCell>
        <mxCell id="1t9QuGi2dNSSRZFsC2EF-3" value="Remove 11" style="rounded=1;whiteSpace=wrap;html=1;fontSize=16;" vertex="1" parent="1t9QuGi2dNSSRZFsC2EF-1">
          <mxGeometry x="680" y="40" width="110" height="40" as="geometry" />
        </mxCell>
        <mxCell id="1t9QuGi2dNSSRZFsC2EF-4" value="&lt;b&gt;&lt;font style=&quot;font-size: 16px;&quot;&gt;5&lt;/font&gt;&lt;/b&gt;" style="rounded=0;whiteSpace=wrap;html=1;" vertex="1" parent="1t9QuGi2dNSSRZFsC2EF-1">
          <mxGeometry x="116" y="360" width="100" height="40" as="geometry" />
        </mxCell>
        <mxCell id="1t9QuGi2dNSSRZFsC2EF-5" value="5" style="text;html=1;align=center;verticalAlign=middle;whiteSpace=wrap;rounded=0;fontSize=16;fontStyle=1" vertex="1" parent="1t9QuGi2dNSSRZFsC2EF-1">
          <mxGeometry x="100" y="365" width="16" height="30" as="geometry" />
        </mxCell>
        <mxCell id="1t9QuGi2dNSSRZFsC2EF-6" value="40" style="rounded=0;whiteSpace=wrap;html=1;fontStyle=1;fontSize=16;" vertex="1" parent="1t9QuGi2dNSSRZFsC2EF-1">
          <mxGeometry x="116" y="320" width="100" height="40" as="geometry" />
        </mxCell>
        <mxCell id="1t9QuGi2dNSSRZFsC2EF-7" value="4" style="text;html=1;align=center;verticalAlign=middle;whiteSpace=wrap;rounded=0;fontSize=16;fontStyle=1" vertex="1" parent="1t9QuGi2dNSSRZFsC2EF-1">
          <mxGeometry x="100" y="325" width="16" height="30" as="geometry" />
        </mxCell>
        <mxCell id="1t9QuGi2dNSSRZFsC2EF-8" value="33" style="rounded=0;whiteSpace=wrap;html=1;fontStyle=1;fontSize=16;" vertex="1" parent="1t9QuGi2dNSSRZFsC2EF-1">
          <mxGeometry x="116" y="280" width="100" height="40" as="geometry" />
        </mxCell>
        <mxCell id="1t9QuGi2dNSSRZFsC2EF-9" value="3" style="text;html=1;align=center;verticalAlign=middle;whiteSpace=wrap;rounded=0;fontSize=16;fontStyle=1" vertex="1" parent="1t9QuGi2dNSSRZFsC2EF-1">
          <mxGeometry x="100" y="285" width="16" height="30" as="geometry" />
        </mxCell>
        <mxCell id="1t9QuGi2dNSSRZFsC2EF-10" value="&lt;b&gt;&lt;font style=&quot;font-size: 16px;&quot;&gt;8&lt;/font&gt;&lt;/b&gt;" style="rounded=0;whiteSpace=wrap;html=1;" vertex="1" parent="1t9QuGi2dNSSRZFsC2EF-1">
          <mxGeometry x="116" y="240" width="100" height="40" as="geometry" />
        </mxCell>
        <mxCell id="1t9QuGi2dNSSRZFsC2EF-11" value="2" style="text;html=1;align=center;verticalAlign=middle;whiteSpace=wrap;rounded=0;fontSize=16;fontStyle=1" vertex="1" parent="1t9QuGi2dNSSRZFsC2EF-1">
          <mxGeometry x="100" y="245" width="16" height="30" as="geometry" />
        </mxCell>
        <mxCell id="1t9QuGi2dNSSRZFsC2EF-12" value="1" style="text;html=1;align=center;verticalAlign=middle;whiteSpace=wrap;rounded=0;fontSize=16;fontStyle=1" vertex="1" parent="1t9QuGi2dNSSRZFsC2EF-1">
          <mxGeometry x="100" y="205" width="16" height="30" as="geometry" />
        </mxCell>
        <mxCell id="1t9QuGi2dNSSRZFsC2EF-13" value="60" style="rounded=0;whiteSpace=wrap;html=1;fontStyle=1;fontSize=16;" vertex="1" parent="1t9QuGi2dNSSRZFsC2EF-1">
          <mxGeometry x="116" y="160" width="100" height="40" as="geometry" />
        </mxCell>
        <mxCell id="1t9QuGi2dNSSRZFsC2EF-14" value="0" style="text;html=1;align=center;verticalAlign=middle;whiteSpace=wrap;rounded=0;fontSize=16;fontStyle=1" vertex="1" parent="1t9QuGi2dNSSRZFsC2EF-1">
          <mxGeometry x="100" y="165" width="16" height="30" as="geometry" />
        </mxCell>
        <mxCell id="1t9QuGi2dNSSRZFsC2EF-15" value="49" style="rounded=0;whiteSpace=wrap;html=1;fontStyle=1;fontSize=16;" vertex="1" parent="1t9QuGi2dNSSRZFsC2EF-1">
          <mxGeometry x="116" y="200" width="100" height="40" as="geometry" />
        </mxCell>
        <mxCell id="1t9QuGi2dNSSRZFsC2EF-16" value="" style="endArrow=classic;html=1;rounded=0;exitX=1;exitY=0.5;exitDx=0;exitDy=0;entryX=0;entryY=0.5;entryDx=0;entryDy=0;" edge="1" parent="1t9QuGi2dNSSRZFsC2EF-1" source="1t9QuGi2dNSSRZFsC2EF-15">
          <mxGeometry width="50" height="50" relative="1" as="geometry">
            <mxPoint x="390" y="430" as="sourcePoint" />
            <mxPoint x="261" y="220" as="targetPoint" />
          </mxGeometry>
        </mxCell>
        <mxCell id="1t9QuGi2dNSSRZFsC2EF-17" value="7" style="rounded=0;whiteSpace=wrap;html=1;fontStyle=1;fontSize=16;" vertex="1" parent="1t9QuGi2dNSSRZFsC2EF-1">
          <mxGeometry x="260" y="200" width="100" height="40" as="geometry" />
        </mxCell>
        <mxCell id="1t9QuGi2dNSSRZFsC2EF-18" value="13" style="rounded=0;whiteSpace=wrap;html=1;fontStyle=1;fontSize=16;" vertex="1" parent="1t9QuGi2dNSSRZFsC2EF-1">
          <mxGeometry x="405" y="200" width="100" height="40" as="geometry" />
        </mxCell>
        <mxCell id="1t9QuGi2dNSSRZFsC2EF-19" value="" style="endArrow=classic;html=1;rounded=0;exitX=1;exitY=0.5;exitDx=0;exitDy=0;entryX=0;entryY=0.5;entryDx=0;entryDy=0;" edge="1" parent="1t9QuGi2dNSSRZFsC2EF-1" source="1t9QuGi2dNSSRZFsC2EF-17" target="1t9QuGi2dNSSRZFsC2EF-18">
          <mxGeometry width="50" height="50" relative="1" as="geometry">
            <mxPoint x="534" y="430" as="sourcePoint" />
            <mxPoint x="414" y="220" as="targetPoint" />
          </mxGeometry>
        </mxCell>
        <mxCell id="1t9QuGi2dNSSRZFsC2EF-20" value="" style="endArrow=classic;html=1;rounded=0;exitX=1;exitY=0.5;exitDx=0;exitDy=0;entryX=0;entryY=0.5;entryDx=0;entryDy=0;" edge="1" parent="1t9QuGi2dNSSRZFsC2EF-1">
          <mxGeometry width="50" height="50" relative="1" as="geometry">
            <mxPoint x="216" y="299.5" as="sourcePoint" />
            <mxPoint x="261" y="299.5" as="targetPoint" />
          </mxGeometry>
        </mxCell>
        <mxCell id="1t9QuGi2dNSSRZFsC2EF-21" value="21" style="rounded=0;whiteSpace=wrap;html=1;fontStyle=1;fontSize=16;" vertex="1" parent="1t9QuGi2dNSSRZFsC2EF-1">
          <mxGeometry x="260" y="280" width="100" height="40" as="geometry" />
        </mxCell>
        <mxCell id="1t9QuGi2dNSSRZFsC2EF-22" value="" style="endArrow=classic;html=1;rounded=0;exitX=1;exitY=0.5;exitDx=0;exitDy=0;entryX=0;entryY=0.5;entryDx=0;entryDy=0;" edge="1" parent="1t9QuGi2dNSSRZFsC2EF-1">
          <mxGeometry width="50" height="50" relative="1" as="geometry">
            <mxPoint x="216" y="379.5" as="sourcePoint" />
            <mxPoint x="261" y="379.5" as="targetPoint" />
          </mxGeometry>
        </mxCell>
        <mxCell id="1t9QuGi2dNSSRZFsC2EF-23" value="&lt;b&gt;&lt;font style=&quot;font-size: 16px;&quot;&gt;11&lt;/font&gt;&lt;/b&gt;" style="rounded=0;whiteSpace=wrap;html=1;" vertex="1" parent="1t9QuGi2dNSSRZFsC2EF-1">
          <mxGeometry x="260" y="360" width="100" height="40" as="geometry" />
        </mxCell>
        <mxCell id="myr43tZDQwafe2TWqBt4-0" value="AUX" style="text;html=1;align=center;verticalAlign=middle;whiteSpace=wrap;rounded=0;fontSize=16;fontStyle=1" vertex="1" parent="1t9QuGi2dNSSRZFsC2EF-1">
          <mxGeometry x="417" y="315" width="50" height="30" as="geometry" />
        </mxCell>
        <mxCell id="myr43tZDQwafe2TWqBt4-1" value="" style="endArrow=classic;html=1;rounded=0;exitX=0.25;exitY=1;exitDx=0;exitDy=0;entryX=1;entryY=0.5;entryDx=0;entryDy=0;" edge="1" parent="1t9QuGi2dNSSRZFsC2EF-1" source="myr43tZDQwafe2TWqBt4-0">
          <mxGeometry width="50" height="50" relative="1" as="geometry">
            <mxPoint x="390" y="475" as="sourcePoint" />
            <mxPoint x="360" y="385" as="targetPoint" />
          </mxGeometry>
        </mxCell>
      </root>
    </mxGraphModel>
  </diagram>
  <diagram name="20" id="nDJ6R2e4zDFjB5Yvy1TZ">
    <mxGraphModel dx="1434" dy="780" grid="1" gridSize="10" guides="1" tooltips="1" connect="1" arrows="1" fold="1" page="1" pageScale="1" pageWidth="827" pageHeight="1169" math="0" shadow="0">
      <root>
        <mxCell id="OFtoEEG8vN0tRIITDWN0-0" />
        <mxCell id="OFtoEEG8vN0tRIITDWN0-1" parent="OFtoEEG8vN0tRIITDWN0-0" />
        <mxCell id="OFtoEEG8vN0tRIITDWN0-2" value="Tamanho = 6" style="text;html=1;align=center;verticalAlign=middle;whiteSpace=wrap;rounded=0;fontSize=16;fontStyle=1" vertex="1" parent="OFtoEEG8vN0tRIITDWN0-1">
          <mxGeometry x="361" y="50" width="106" height="30" as="geometry" />
        </mxCell>
        <mxCell id="OFtoEEG8vN0tRIITDWN0-3" value="Remove 11" style="rounded=1;whiteSpace=wrap;html=1;fontSize=16;" vertex="1" parent="OFtoEEG8vN0tRIITDWN0-1">
          <mxGeometry x="680" y="40" width="110" height="40" as="geometry" />
        </mxCell>
        <mxCell id="OFtoEEG8vN0tRIITDWN0-4" value="&lt;b&gt;&lt;font style=&quot;font-size: 16px;&quot;&gt;5&lt;/font&gt;&lt;/b&gt;" style="rounded=0;whiteSpace=wrap;html=1;" vertex="1" parent="OFtoEEG8vN0tRIITDWN0-1">
          <mxGeometry x="116" y="360" width="100" height="40" as="geometry" />
        </mxCell>
        <mxCell id="OFtoEEG8vN0tRIITDWN0-5" value="5" style="text;html=1;align=center;verticalAlign=middle;whiteSpace=wrap;rounded=0;fontSize=16;fontStyle=1" vertex="1" parent="OFtoEEG8vN0tRIITDWN0-1">
          <mxGeometry x="100" y="365" width="16" height="30" as="geometry" />
        </mxCell>
        <mxCell id="OFtoEEG8vN0tRIITDWN0-6" value="40" style="rounded=0;whiteSpace=wrap;html=1;fontStyle=1;fontSize=16;" vertex="1" parent="OFtoEEG8vN0tRIITDWN0-1">
          <mxGeometry x="116" y="320" width="100" height="40" as="geometry" />
        </mxCell>
        <mxCell id="OFtoEEG8vN0tRIITDWN0-7" value="4" style="text;html=1;align=center;verticalAlign=middle;whiteSpace=wrap;rounded=0;fontSize=16;fontStyle=1" vertex="1" parent="OFtoEEG8vN0tRIITDWN0-1">
          <mxGeometry x="100" y="325" width="16" height="30" as="geometry" />
        </mxCell>
        <mxCell id="OFtoEEG8vN0tRIITDWN0-8" value="33" style="rounded=0;whiteSpace=wrap;html=1;fontStyle=1;fontSize=16;" vertex="1" parent="OFtoEEG8vN0tRIITDWN0-1">
          <mxGeometry x="116" y="280" width="100" height="40" as="geometry" />
        </mxCell>
        <mxCell id="OFtoEEG8vN0tRIITDWN0-9" value="3" style="text;html=1;align=center;verticalAlign=middle;whiteSpace=wrap;rounded=0;fontSize=16;fontStyle=1" vertex="1" parent="OFtoEEG8vN0tRIITDWN0-1">
          <mxGeometry x="100" y="285" width="16" height="30" as="geometry" />
        </mxCell>
        <mxCell id="OFtoEEG8vN0tRIITDWN0-10" value="&lt;b&gt;&lt;font style=&quot;font-size: 16px;&quot;&gt;8&lt;/font&gt;&lt;/b&gt;" style="rounded=0;whiteSpace=wrap;html=1;" vertex="1" parent="OFtoEEG8vN0tRIITDWN0-1">
          <mxGeometry x="116" y="240" width="100" height="40" as="geometry" />
        </mxCell>
        <mxCell id="OFtoEEG8vN0tRIITDWN0-11" value="2" style="text;html=1;align=center;verticalAlign=middle;whiteSpace=wrap;rounded=0;fontSize=16;fontStyle=1" vertex="1" parent="OFtoEEG8vN0tRIITDWN0-1">
          <mxGeometry x="100" y="245" width="16" height="30" as="geometry" />
        </mxCell>
        <mxCell id="OFtoEEG8vN0tRIITDWN0-12" value="1" style="text;html=1;align=center;verticalAlign=middle;whiteSpace=wrap;rounded=0;fontSize=16;fontStyle=1" vertex="1" parent="OFtoEEG8vN0tRIITDWN0-1">
          <mxGeometry x="100" y="205" width="16" height="30" as="geometry" />
        </mxCell>
        <mxCell id="OFtoEEG8vN0tRIITDWN0-13" value="60" style="rounded=0;whiteSpace=wrap;html=1;fontStyle=1;fontSize=16;" vertex="1" parent="OFtoEEG8vN0tRIITDWN0-1">
          <mxGeometry x="116" y="160" width="100" height="40" as="geometry" />
        </mxCell>
        <mxCell id="OFtoEEG8vN0tRIITDWN0-14" value="0" style="text;html=1;align=center;verticalAlign=middle;whiteSpace=wrap;rounded=0;fontSize=16;fontStyle=1" vertex="1" parent="OFtoEEG8vN0tRIITDWN0-1">
          <mxGeometry x="100" y="165" width="16" height="30" as="geometry" />
        </mxCell>
        <mxCell id="OFtoEEG8vN0tRIITDWN0-15" value="49" style="rounded=0;whiteSpace=wrap;html=1;fontStyle=1;fontSize=16;" vertex="1" parent="OFtoEEG8vN0tRIITDWN0-1">
          <mxGeometry x="116" y="200" width="100" height="40" as="geometry" />
        </mxCell>
        <mxCell id="OFtoEEG8vN0tRIITDWN0-16" value="" style="endArrow=classic;html=1;rounded=0;exitX=1;exitY=0.5;exitDx=0;exitDy=0;entryX=0;entryY=0.5;entryDx=0;entryDy=0;" edge="1" parent="OFtoEEG8vN0tRIITDWN0-1" source="OFtoEEG8vN0tRIITDWN0-15">
          <mxGeometry width="50" height="50" relative="1" as="geometry">
            <mxPoint x="390" y="430" as="sourcePoint" />
            <mxPoint x="261" y="220" as="targetPoint" />
          </mxGeometry>
        </mxCell>
        <mxCell id="OFtoEEG8vN0tRIITDWN0-17" value="7" style="rounded=0;whiteSpace=wrap;html=1;fontStyle=1;fontSize=16;" vertex="1" parent="OFtoEEG8vN0tRIITDWN0-1">
          <mxGeometry x="260" y="200" width="100" height="40" as="geometry" />
        </mxCell>
        <mxCell id="OFtoEEG8vN0tRIITDWN0-18" value="13" style="rounded=0;whiteSpace=wrap;html=1;fontStyle=1;fontSize=16;" vertex="1" parent="OFtoEEG8vN0tRIITDWN0-1">
          <mxGeometry x="405" y="200" width="100" height="40" as="geometry" />
        </mxCell>
        <mxCell id="OFtoEEG8vN0tRIITDWN0-19" value="" style="endArrow=classic;html=1;rounded=0;exitX=1;exitY=0.5;exitDx=0;exitDy=0;entryX=0;entryY=0.5;entryDx=0;entryDy=0;" edge="1" parent="OFtoEEG8vN0tRIITDWN0-1" source="OFtoEEG8vN0tRIITDWN0-17" target="OFtoEEG8vN0tRIITDWN0-18">
          <mxGeometry width="50" height="50" relative="1" as="geometry">
            <mxPoint x="534" y="430" as="sourcePoint" />
            <mxPoint x="414" y="220" as="targetPoint" />
          </mxGeometry>
        </mxCell>
        <mxCell id="OFtoEEG8vN0tRIITDWN0-20" value="" style="endArrow=classic;html=1;rounded=0;exitX=1;exitY=0.5;exitDx=0;exitDy=0;entryX=0;entryY=0.5;entryDx=0;entryDy=0;" edge="1" parent="OFtoEEG8vN0tRIITDWN0-1">
          <mxGeometry width="50" height="50" relative="1" as="geometry">
            <mxPoint x="216" y="299.5" as="sourcePoint" />
            <mxPoint x="261" y="299.5" as="targetPoint" />
          </mxGeometry>
        </mxCell>
        <mxCell id="OFtoEEG8vN0tRIITDWN0-21" value="21" style="rounded=0;whiteSpace=wrap;html=1;fontStyle=1;fontSize=16;" vertex="1" parent="OFtoEEG8vN0tRIITDWN0-1">
          <mxGeometry x="260" y="280" width="100" height="40" as="geometry" />
        </mxCell>
        <mxCell id="OFtoEEG8vN0tRIITDWN0-22" value="" style="endArrow=classic;html=1;rounded=0;exitX=1;exitY=0.5;exitDx=0;exitDy=0;entryX=0;entryY=0.5;entryDx=0;entryDy=0;" edge="1" parent="OFtoEEG8vN0tRIITDWN0-1">
          <mxGeometry width="50" height="50" relative="1" as="geometry">
            <mxPoint x="216" y="379.5" as="sourcePoint" />
            <mxPoint x="261" y="379.5" as="targetPoint" />
          </mxGeometry>
        </mxCell>
        <mxCell id="BeOipDspr2UEZp-mLrMj-1" value="11" style="rounded=0;whiteSpace=wrap;html=1;fontStyle=1;fontSize=16;" vertex="1" parent="OFtoEEG8vN0tRIITDWN0-1">
          <mxGeometry x="392" y="360" width="100" height="40" as="geometry" />
        </mxCell>
        <mxCell id="BeOipDspr2UEZp-mLrMj-2" value="AUX" style="text;html=1;align=center;verticalAlign=middle;whiteSpace=wrap;rounded=0;fontSize=16;fontStyle=1" vertex="1" parent="OFtoEEG8vN0tRIITDWN0-1">
          <mxGeometry x="417" y="310" width="50" height="30" as="geometry" />
        </mxCell>
        <mxCell id="BeOipDspr2UEZp-mLrMj-3" value="" style="endArrow=classic;html=1;rounded=0;entryX=0.5;entryY=0;entryDx=0;entryDy=0;" edge="1" parent="OFtoEEG8vN0tRIITDWN0-1" source="BeOipDspr2UEZp-mLrMj-2" target="BeOipDspr2UEZp-mLrMj-1">
          <mxGeometry width="50" height="50" relative="1" as="geometry">
            <mxPoint x="390" y="470" as="sourcePoint" />
            <mxPoint x="440" y="420" as="targetPoint" />
          </mxGeometry>
        </mxCell>
        <mxCell id="BeOipDspr2UEZp-mLrMj-4" value="null" style="text;html=1;align=center;verticalAlign=middle;whiteSpace=wrap;rounded=0;fontSize=16;fontStyle=1" vertex="1" parent="OFtoEEG8vN0tRIITDWN0-1">
          <mxGeometry x="260" y="365" width="40" height="30" as="geometry" />
        </mxCell>
      </root>
    </mxGraphModel>
  </diagram>
  <diagram name="21" id="76zssMQahWLFH2hHG1gN">
    <mxGraphModel dx="1434" dy="780" grid="1" gridSize="10" guides="1" tooltips="1" connect="1" arrows="1" fold="1" page="1" pageScale="1" pageWidth="827" pageHeight="1169" math="0" shadow="0">
      <root>
        <mxCell id="AC48tKK5Xm6zhTYOeDdI-0" />
        <mxCell id="AC48tKK5Xm6zhTYOeDdI-1" parent="AC48tKK5Xm6zhTYOeDdI-0" />
        <mxCell id="AC48tKK5Xm6zhTYOeDdI-2" value="Tamanho = 6" style="text;html=1;align=center;verticalAlign=middle;whiteSpace=wrap;rounded=0;fontSize=16;fontStyle=1" vertex="1" parent="AC48tKK5Xm6zhTYOeDdI-1">
          <mxGeometry x="361" y="50" width="106" height="30" as="geometry" />
        </mxCell>
        <mxCell id="AC48tKK5Xm6zhTYOeDdI-3" value="Remove 11" style="rounded=1;whiteSpace=wrap;html=1;fontSize=16;" vertex="1" parent="AC48tKK5Xm6zhTYOeDdI-1">
          <mxGeometry x="680" y="40" width="110" height="40" as="geometry" />
        </mxCell>
        <mxCell id="AC48tKK5Xm6zhTYOeDdI-4" value="&lt;b&gt;&lt;font style=&quot;font-size: 16px;&quot;&gt;5&lt;/font&gt;&lt;/b&gt;" style="rounded=0;whiteSpace=wrap;html=1;" vertex="1" parent="AC48tKK5Xm6zhTYOeDdI-1">
          <mxGeometry x="116" y="360" width="100" height="40" as="geometry" />
        </mxCell>
        <mxCell id="AC48tKK5Xm6zhTYOeDdI-5" value="5" style="text;html=1;align=center;verticalAlign=middle;whiteSpace=wrap;rounded=0;fontSize=16;fontStyle=1" vertex="1" parent="AC48tKK5Xm6zhTYOeDdI-1">
          <mxGeometry x="100" y="365" width="16" height="30" as="geometry" />
        </mxCell>
        <mxCell id="AC48tKK5Xm6zhTYOeDdI-6" value="40" style="rounded=0;whiteSpace=wrap;html=1;fontStyle=1;fontSize=16;" vertex="1" parent="AC48tKK5Xm6zhTYOeDdI-1">
          <mxGeometry x="116" y="320" width="100" height="40" as="geometry" />
        </mxCell>
        <mxCell id="AC48tKK5Xm6zhTYOeDdI-7" value="4" style="text;html=1;align=center;verticalAlign=middle;whiteSpace=wrap;rounded=0;fontSize=16;fontStyle=1" vertex="1" parent="AC48tKK5Xm6zhTYOeDdI-1">
          <mxGeometry x="100" y="325" width="16" height="30" as="geometry" />
        </mxCell>
        <mxCell id="AC48tKK5Xm6zhTYOeDdI-8" value="33" style="rounded=0;whiteSpace=wrap;html=1;fontStyle=1;fontSize=16;" vertex="1" parent="AC48tKK5Xm6zhTYOeDdI-1">
          <mxGeometry x="116" y="280" width="100" height="40" as="geometry" />
        </mxCell>
        <mxCell id="AC48tKK5Xm6zhTYOeDdI-9" value="3" style="text;html=1;align=center;verticalAlign=middle;whiteSpace=wrap;rounded=0;fontSize=16;fontStyle=1" vertex="1" parent="AC48tKK5Xm6zhTYOeDdI-1">
          <mxGeometry x="100" y="285" width="16" height="30" as="geometry" />
        </mxCell>
        <mxCell id="AC48tKK5Xm6zhTYOeDdI-10" value="&lt;b&gt;&lt;font style=&quot;font-size: 16px;&quot;&gt;8&lt;/font&gt;&lt;/b&gt;" style="rounded=0;whiteSpace=wrap;html=1;" vertex="1" parent="AC48tKK5Xm6zhTYOeDdI-1">
          <mxGeometry x="116" y="240" width="100" height="40" as="geometry" />
        </mxCell>
        <mxCell id="AC48tKK5Xm6zhTYOeDdI-11" value="2" style="text;html=1;align=center;verticalAlign=middle;whiteSpace=wrap;rounded=0;fontSize=16;fontStyle=1" vertex="1" parent="AC48tKK5Xm6zhTYOeDdI-1">
          <mxGeometry x="100" y="245" width="16" height="30" as="geometry" />
        </mxCell>
        <mxCell id="AC48tKK5Xm6zhTYOeDdI-12" value="1" style="text;html=1;align=center;verticalAlign=middle;whiteSpace=wrap;rounded=0;fontSize=16;fontStyle=1" vertex="1" parent="AC48tKK5Xm6zhTYOeDdI-1">
          <mxGeometry x="100" y="205" width="16" height="30" as="geometry" />
        </mxCell>
        <mxCell id="AC48tKK5Xm6zhTYOeDdI-13" value="60" style="rounded=0;whiteSpace=wrap;html=1;fontStyle=1;fontSize=16;" vertex="1" parent="AC48tKK5Xm6zhTYOeDdI-1">
          <mxGeometry x="116" y="160" width="100" height="40" as="geometry" />
        </mxCell>
        <mxCell id="AC48tKK5Xm6zhTYOeDdI-14" value="0" style="text;html=1;align=center;verticalAlign=middle;whiteSpace=wrap;rounded=0;fontSize=16;fontStyle=1" vertex="1" parent="AC48tKK5Xm6zhTYOeDdI-1">
          <mxGeometry x="100" y="165" width="16" height="30" as="geometry" />
        </mxCell>
        <mxCell id="AC48tKK5Xm6zhTYOeDdI-15" value="49" style="rounded=0;whiteSpace=wrap;html=1;fontStyle=1;fontSize=16;" vertex="1" parent="AC48tKK5Xm6zhTYOeDdI-1">
          <mxGeometry x="116" y="200" width="100" height="40" as="geometry" />
        </mxCell>
        <mxCell id="AC48tKK5Xm6zhTYOeDdI-16" value="" style="endArrow=classic;html=1;rounded=0;exitX=1;exitY=0.5;exitDx=0;exitDy=0;entryX=0;entryY=0.5;entryDx=0;entryDy=0;" edge="1" parent="AC48tKK5Xm6zhTYOeDdI-1" source="AC48tKK5Xm6zhTYOeDdI-15">
          <mxGeometry width="50" height="50" relative="1" as="geometry">
            <mxPoint x="390" y="430" as="sourcePoint" />
            <mxPoint x="261" y="220" as="targetPoint" />
          </mxGeometry>
        </mxCell>
        <mxCell id="AC48tKK5Xm6zhTYOeDdI-17" value="7" style="rounded=0;whiteSpace=wrap;html=1;fontStyle=1;fontSize=16;" vertex="1" parent="AC48tKK5Xm6zhTYOeDdI-1">
          <mxGeometry x="260" y="200" width="100" height="40" as="geometry" />
        </mxCell>
        <mxCell id="AC48tKK5Xm6zhTYOeDdI-18" value="13" style="rounded=0;whiteSpace=wrap;html=1;fontStyle=1;fontSize=16;" vertex="1" parent="AC48tKK5Xm6zhTYOeDdI-1">
          <mxGeometry x="405" y="200" width="100" height="40" as="geometry" />
        </mxCell>
        <mxCell id="AC48tKK5Xm6zhTYOeDdI-19" value="" style="endArrow=classic;html=1;rounded=0;exitX=1;exitY=0.5;exitDx=0;exitDy=0;entryX=0;entryY=0.5;entryDx=0;entryDy=0;" edge="1" parent="AC48tKK5Xm6zhTYOeDdI-1" source="AC48tKK5Xm6zhTYOeDdI-17" target="AC48tKK5Xm6zhTYOeDdI-18">
          <mxGeometry width="50" height="50" relative="1" as="geometry">
            <mxPoint x="534" y="430" as="sourcePoint" />
            <mxPoint x="414" y="220" as="targetPoint" />
          </mxGeometry>
        </mxCell>
        <mxCell id="AC48tKK5Xm6zhTYOeDdI-20" value="" style="endArrow=classic;html=1;rounded=0;exitX=1;exitY=0.5;exitDx=0;exitDy=0;entryX=0;entryY=0.5;entryDx=0;entryDy=0;" edge="1" parent="AC48tKK5Xm6zhTYOeDdI-1">
          <mxGeometry width="50" height="50" relative="1" as="geometry">
            <mxPoint x="216" y="299.5" as="sourcePoint" />
            <mxPoint x="261" y="299.5" as="targetPoint" />
          </mxGeometry>
        </mxCell>
        <mxCell id="AC48tKK5Xm6zhTYOeDdI-21" value="21" style="rounded=0;whiteSpace=wrap;html=1;fontStyle=1;fontSize=16;" vertex="1" parent="AC48tKK5Xm6zhTYOeDdI-1">
          <mxGeometry x="260" y="280" width="100" height="40" as="geometry" />
        </mxCell>
        <mxCell id="AC48tKK5Xm6zhTYOeDdI-22" value="" style="endArrow=classic;html=1;rounded=0;exitX=1;exitY=0.5;exitDx=0;exitDy=0;entryX=0;entryY=0.5;entryDx=0;entryDy=0;" edge="1" parent="AC48tKK5Xm6zhTYOeDdI-1">
          <mxGeometry width="50" height="50" relative="1" as="geometry">
            <mxPoint x="216" y="379.5" as="sourcePoint" />
            <mxPoint x="261" y="379.5" as="targetPoint" />
          </mxGeometry>
        </mxCell>
        <mxCell id="AC48tKK5Xm6zhTYOeDdI-23" value="11" style="rounded=0;whiteSpace=wrap;html=1;fontStyle=1;fontSize=16;" vertex="1" parent="AC48tKK5Xm6zhTYOeDdI-1">
          <mxGeometry x="392" y="360" width="100" height="40" as="geometry" />
        </mxCell>
        <mxCell id="AC48tKK5Xm6zhTYOeDdI-24" value="AUX" style="text;html=1;align=center;verticalAlign=middle;whiteSpace=wrap;rounded=0;fontSize=16;fontStyle=1" vertex="1" parent="AC48tKK5Xm6zhTYOeDdI-1">
          <mxGeometry x="417" y="310" width="50" height="30" as="geometry" />
        </mxCell>
        <mxCell id="AC48tKK5Xm6zhTYOeDdI-25" value="" style="endArrow=classic;html=1;rounded=0;entryX=0.5;entryY=0;entryDx=0;entryDy=0;" edge="1" parent="AC48tKK5Xm6zhTYOeDdI-1" source="AC48tKK5Xm6zhTYOeDdI-24" target="AC48tKK5Xm6zhTYOeDdI-23">
          <mxGeometry width="50" height="50" relative="1" as="geometry">
            <mxPoint x="390" y="470" as="sourcePoint" />
            <mxPoint x="440" y="420" as="targetPoint" />
          </mxGeometry>
        </mxCell>
        <mxCell id="AC48tKK5Xm6zhTYOeDdI-26" value="null" style="text;html=1;align=center;verticalAlign=middle;whiteSpace=wrap;rounded=0;fontSize=16;fontStyle=1" vertex="1" parent="AC48tKK5Xm6zhTYOeDdI-1">
          <mxGeometry x="260" y="365" width="40" height="30" as="geometry" />
        </mxCell>
        <mxCell id="p8hmqCZ7bSrFKRMsWP0L-3" value="" style="shape=cross;whiteSpace=wrap;html=1;rotation=45;fillColor=#fad9d5;strokeColor=#ae4132;" vertex="1" parent="AC48tKK5Xm6zhTYOeDdI-1">
          <mxGeometry x="402" y="340" width="80" height="80" as="geometry" />
        </mxCell>
      </root>
    </mxGraphModel>
  </diagram>
  <diagram name="22" id="S13FoRjAXqNANqiPQzIl">
    <mxGraphModel dx="1434" dy="780" grid="1" gridSize="10" guides="1" tooltips="1" connect="1" arrows="1" fold="1" page="1" pageScale="1" pageWidth="827" pageHeight="1169" math="0" shadow="0">
      <root>
        <mxCell id="yQ6pggWALGnXt9LcaMMB-0" />
        <mxCell id="yQ6pggWALGnXt9LcaMMB-1" parent="yQ6pggWALGnXt9LcaMMB-0" />
        <mxCell id="yQ6pggWALGnXt9LcaMMB-2" value="Tamanho = 6" style="text;html=1;align=center;verticalAlign=middle;whiteSpace=wrap;rounded=0;fontSize=16;fontStyle=1" vertex="1" parent="yQ6pggWALGnXt9LcaMMB-1">
          <mxGeometry x="361" y="50" width="106" height="30" as="geometry" />
        </mxCell>
        <mxCell id="yQ6pggWALGnXt9LcaMMB-3" value="FIM!" style="rounded=1;whiteSpace=wrap;html=1;fontSize=16;fontStyle=1" vertex="1" parent="yQ6pggWALGnXt9LcaMMB-1">
          <mxGeometry x="680" y="40" width="110" height="40" as="geometry" />
        </mxCell>
        <mxCell id="yQ6pggWALGnXt9LcaMMB-4" value="&lt;b&gt;&lt;font style=&quot;font-size: 16px;&quot;&gt;5&lt;/font&gt;&lt;/b&gt;" style="rounded=0;whiteSpace=wrap;html=1;" vertex="1" parent="yQ6pggWALGnXt9LcaMMB-1">
          <mxGeometry x="116" y="360" width="100" height="40" as="geometry" />
        </mxCell>
        <mxCell id="yQ6pggWALGnXt9LcaMMB-5" value="5" style="text;html=1;align=center;verticalAlign=middle;whiteSpace=wrap;rounded=0;fontSize=16;fontStyle=1" vertex="1" parent="yQ6pggWALGnXt9LcaMMB-1">
          <mxGeometry x="100" y="365" width="16" height="30" as="geometry" />
        </mxCell>
        <mxCell id="yQ6pggWALGnXt9LcaMMB-6" value="40" style="rounded=0;whiteSpace=wrap;html=1;fontStyle=1;fontSize=16;" vertex="1" parent="yQ6pggWALGnXt9LcaMMB-1">
          <mxGeometry x="116" y="320" width="100" height="40" as="geometry" />
        </mxCell>
        <mxCell id="yQ6pggWALGnXt9LcaMMB-7" value="4" style="text;html=1;align=center;verticalAlign=middle;whiteSpace=wrap;rounded=0;fontSize=16;fontStyle=1" vertex="1" parent="yQ6pggWALGnXt9LcaMMB-1">
          <mxGeometry x="100" y="325" width="16" height="30" as="geometry" />
        </mxCell>
        <mxCell id="yQ6pggWALGnXt9LcaMMB-8" value="33" style="rounded=0;whiteSpace=wrap;html=1;fontStyle=1;fontSize=16;" vertex="1" parent="yQ6pggWALGnXt9LcaMMB-1">
          <mxGeometry x="116" y="280" width="100" height="40" as="geometry" />
        </mxCell>
        <mxCell id="yQ6pggWALGnXt9LcaMMB-9" value="3" style="text;html=1;align=center;verticalAlign=middle;whiteSpace=wrap;rounded=0;fontSize=16;fontStyle=1" vertex="1" parent="yQ6pggWALGnXt9LcaMMB-1">
          <mxGeometry x="100" y="285" width="16" height="30" as="geometry" />
        </mxCell>
        <mxCell id="yQ6pggWALGnXt9LcaMMB-10" value="&lt;b&gt;&lt;font style=&quot;font-size: 16px;&quot;&gt;8&lt;/font&gt;&lt;/b&gt;" style="rounded=0;whiteSpace=wrap;html=1;" vertex="1" parent="yQ6pggWALGnXt9LcaMMB-1">
          <mxGeometry x="116" y="240" width="100" height="40" as="geometry" />
        </mxCell>
        <mxCell id="yQ6pggWALGnXt9LcaMMB-11" value="2" style="text;html=1;align=center;verticalAlign=middle;whiteSpace=wrap;rounded=0;fontSize=16;fontStyle=1" vertex="1" parent="yQ6pggWALGnXt9LcaMMB-1">
          <mxGeometry x="100" y="245" width="16" height="30" as="geometry" />
        </mxCell>
        <mxCell id="yQ6pggWALGnXt9LcaMMB-12" value="1" style="text;html=1;align=center;verticalAlign=middle;whiteSpace=wrap;rounded=0;fontSize=16;fontStyle=1" vertex="1" parent="yQ6pggWALGnXt9LcaMMB-1">
          <mxGeometry x="100" y="205" width="16" height="30" as="geometry" />
        </mxCell>
        <mxCell id="yQ6pggWALGnXt9LcaMMB-13" value="60" style="rounded=0;whiteSpace=wrap;html=1;fontStyle=1;fontSize=16;" vertex="1" parent="yQ6pggWALGnXt9LcaMMB-1">
          <mxGeometry x="116" y="160" width="100" height="40" as="geometry" />
        </mxCell>
        <mxCell id="yQ6pggWALGnXt9LcaMMB-14" value="0" style="text;html=1;align=center;verticalAlign=middle;whiteSpace=wrap;rounded=0;fontSize=16;fontStyle=1" vertex="1" parent="yQ6pggWALGnXt9LcaMMB-1">
          <mxGeometry x="100" y="165" width="16" height="30" as="geometry" />
        </mxCell>
        <mxCell id="yQ6pggWALGnXt9LcaMMB-15" value="49" style="rounded=0;whiteSpace=wrap;html=1;fontStyle=1;fontSize=16;" vertex="1" parent="yQ6pggWALGnXt9LcaMMB-1">
          <mxGeometry x="116" y="200" width="100" height="40" as="geometry" />
        </mxCell>
        <mxCell id="yQ6pggWALGnXt9LcaMMB-16" value="" style="endArrow=classic;html=1;rounded=0;exitX=1;exitY=0.5;exitDx=0;exitDy=0;entryX=0;entryY=0.5;entryDx=0;entryDy=0;" edge="1" parent="yQ6pggWALGnXt9LcaMMB-1" source="yQ6pggWALGnXt9LcaMMB-15">
          <mxGeometry width="50" height="50" relative="1" as="geometry">
            <mxPoint x="390" y="430" as="sourcePoint" />
            <mxPoint x="261" y="220" as="targetPoint" />
          </mxGeometry>
        </mxCell>
        <mxCell id="yQ6pggWALGnXt9LcaMMB-17" value="7" style="rounded=0;whiteSpace=wrap;html=1;fontStyle=1;fontSize=16;" vertex="1" parent="yQ6pggWALGnXt9LcaMMB-1">
          <mxGeometry x="260" y="200" width="100" height="40" as="geometry" />
        </mxCell>
        <mxCell id="yQ6pggWALGnXt9LcaMMB-18" value="13" style="rounded=0;whiteSpace=wrap;html=1;fontStyle=1;fontSize=16;" vertex="1" parent="yQ6pggWALGnXt9LcaMMB-1">
          <mxGeometry x="405" y="200" width="100" height="40" as="geometry" />
        </mxCell>
        <mxCell id="yQ6pggWALGnXt9LcaMMB-19" value="" style="endArrow=classic;html=1;rounded=0;exitX=1;exitY=0.5;exitDx=0;exitDy=0;entryX=0;entryY=0.5;entryDx=0;entryDy=0;" edge="1" parent="yQ6pggWALGnXt9LcaMMB-1" source="yQ6pggWALGnXt9LcaMMB-17" target="yQ6pggWALGnXt9LcaMMB-18">
          <mxGeometry width="50" height="50" relative="1" as="geometry">
            <mxPoint x="534" y="430" as="sourcePoint" />
            <mxPoint x="414" y="220" as="targetPoint" />
          </mxGeometry>
        </mxCell>
        <mxCell id="yQ6pggWALGnXt9LcaMMB-20" value="" style="endArrow=classic;html=1;rounded=0;exitX=1;exitY=0.5;exitDx=0;exitDy=0;entryX=0;entryY=0.5;entryDx=0;entryDy=0;" edge="1" parent="yQ6pggWALGnXt9LcaMMB-1">
          <mxGeometry width="50" height="50" relative="1" as="geometry">
            <mxPoint x="216" y="299.5" as="sourcePoint" />
            <mxPoint x="261" y="299.5" as="targetPoint" />
          </mxGeometry>
        </mxCell>
        <mxCell id="yQ6pggWALGnXt9LcaMMB-21" value="21" style="rounded=0;whiteSpace=wrap;html=1;fontStyle=1;fontSize=16;" vertex="1" parent="yQ6pggWALGnXt9LcaMMB-1">
          <mxGeometry x="260" y="280" width="100" height="40" as="geometry" />
        </mxCell>
      </root>
    </mxGraphModel>
  </diagram>
</mxfile>
